<mxfile host="65bd71144e">
    <diagram name="Page-1" id="10OKwBSoMjo9PfC5FO3B">
        <mxGraphModel dx="1137" dy="572" grid="0" gridSize="10" guides="1" tooltips="1" connect="1" arrows="1" fold="1" page="0" pageScale="1" pageWidth="850" pageHeight="1100" math="0" shadow="0">
            <root>
                <mxCell id="0"/>
                <mxCell id="1" parent="0"/>
                <mxCell id="10" value="EC2 Host" style="rounded=0;whiteSpace=wrap;html=1;align=left;verticalAlign=top;fontStyle=1;fontSize=17;fillColor=#1ba1e2;strokeColor=#006EAF;fontColor=#ffffff;" vertex="1" parent="1">
                    <mxGeometry x="269" y="273" width="496" height="223" as="geometry"/>
                </mxCell>
                <mxCell id="MZdL-QIuMKirNqRiyHwx-3" value="" style="shape=image;verticalLabelPosition=bottom;labelBackgroundColor=default;verticalAlign=top;aspect=fixed;imageAspect=0;image=data:image/png,iVBORw0KGgoAAAANSUhEUgAAAyAAAAMgCAIAAABUEpE/AAAAAXNSR0IArs4c6QAAAERlWElmTU0AKgAAAAgAAYdpAAQAAAABAAAAGgAAAAAAA6ABAAMAAAABAAEAAKACAAQAAAABAAADIKADAAQAAAABAAADIAAAAADAlM0/AABAAElEQVR4AeydB7wWxfX+FdCIWKNGRRSwAmKn+LNiFwUbGgtqokYxqKBGsHeNvQYTu4kau4gFjFhQUUQIICoqIsUClthi/weB//dy8DBsu++9vNy7+95n4fPe2dkzs2ee3T3zzJm2+Jw5cxbTIQSEgBAQAkJACAgBIVA+BBqVLyvlJASEgBAQAkJACAgBIVCFgAiW3gMhIASEgBAQAkJACJQZARGsMgOq7ISAEBACQkAICAEhIIKld0AICAEhIASEgBAQAmVGQASrzIAqOyEgBISAEBACQkAIiGDpHRACQkAICAEhIASEQJkREMEqM6DKTggIASEgBISAEBACIlh6B4SAEBACQkAICAEhUGYERLDKDKiyEwJCQAgIASEgBISACJbeASEgBISAEBACQkAIlBkBEawyA6rshIAQEAJCQAgIASEggqV3QAgIASEgBISAEBACZUZABKvMgCo7ISAEhIAQEAJCQAiIYOkdEAJCQAgIASEgBIRAmREQwSozoMpOCAgBISAEhIAQEAIiWHoHhIAQEAJCQAgIASFQZgREsMoMqLITAkJACAgBISAEhIAIlt4BISAEhIAQEAJCQAiUGQERrDIDquyEgBAQAkJACAgBISCCpXdACAgBISAEhIAQEAJlRkAEq8yAKjshIASEgBAQAkJACIhg6R0QAkJACAgBISAEhECZERDBKjOgyk4ICAEhIASEgBAQAiJYegeEgBAQAkJACAgBIVBmBESwygyoshMCQkAICAEhIASEgAiW3gEhIASEgBAQAkJACJQZARGsMgOq7ISAEBACQkAICAEhIIKld0AICAEhIASEgBAQAmVGQASrzIAqOyEgBISAEBACQkAIiGDpHRACQkAICAEhIASEQJkREMEqM6DKTggIASEgBISAEBACIlh6B4SAEBACQkAICAEhUGYERLDKDKiyEwJCQAgIASEgBISACJbeASEgBISAEBACQkAIlBkBEawyA6rshIAQEAJCQAgIASEggqV3QAgIASEgBISAEBACZUZABKvMgCo7ISAEhIAQEAJCQAiIYOkdEAJCQAgIASEgBIRAmREQwSozoMpOCAgBISAEhIAQEAIiWHoHhIAQEAJCQAgIASFQZgREsMoMqLITAkJACAgBISAEhIAIlt4BISAEhIAQEAJCQAiUGQERrDIDquyEgBAQAkJACAgBISCCpXdACAgBISAEhIAQEAJlRkAEq8yAKjshIASEgBAQAkJACIhg6R0QAkJACAgBISAEhECZERDBKjOgyk4ICAEhIASEgBAQAiJYegeEgBAQAkJACAgBIVBmBESwygyoshMCQkAICAEhIASEgAiW3gEhIASEgBAQAkJACJQZARGsMgOq7ISAEBACQkAICAEhIIKld0AICAEhIASEgBAQAmVGQASrzIAqOyEgBISAEBACQkAIiGDpHRACQkAICAEhIASEQJkREMEqM6DKTggIASEgBISAEBACIlh6B4SAEBACQkAICAEhUGYERLDKDKiyEwJCQAgIASEgBISACJbeASEgBISAEBACQkAIlBkBEawyA6rshIAQEAJCQAgIASHQRBAIASEgBHKFwMyZM5dYYok5c4+f5x6zZs2Ka7jMMssQufjii/P7ww8/LL300gRmz57dqFGj7777jrAJENAhBISAEKh7BBbHiNX9XXVHISAEhAAIGB8i8M033yy11FIEPvroo4kTJ7711lvvv//+hAkTPvjgg//+97+JWK288sprrbXWhhtuyG+7du3atm3bokULM2jGuhJTKVIICAEhUDcIiGDVDc66ixAQAgkI/L//9/9+9atfwaJGjx791FNPjRkzBlJlkbiu3HEVJ0zeMmzcuHGTJk1IQqB9+/ZbbLHFHnvssfXWW6+22mp4wrgUT5ugh6KEgBAQAuVGQASr3IgqPyEgBBZEADKUxnLuuuuuBx54YPjw4cjQr4dDi6RNmzaFXREgVWJChDmgXxZAki5F6JTflu7CHXbY4dCeh3bZocuqq66amIkLKyAEhIAQWBQIiGAtClSVpxAQAvMRgAZBmBot3qhxk8Y//fQTXYGTJk265JJLBg4c+L///Q9SxQFb4pc0IRkiTFoi7Xd+jiWHmjdv3q1btxNPPHHttdcmEzLEYWY3YqhWydlIUAgIASFQYwREsGoMmRIIASFQUwTgNBCaWT/PGvnqyIsuumjYsGFGdOjac2pleZaXYJHnSiutxF123HHH/v3703VodzHGFt6rpiWSvBAQAkIgGwERrGx8dFUICIHyIMC49T/+8Y8vvvji8ssvb+PW4VhQn0juIekhvDAeLCgdA7PCrsPu3bufddZZnTp14qbiWBHkdSoEhEB5ERDBKi+eyk0ICIEEBE444YTbb7+dxRSWXHJJLkNu4D3On8IEFmk0ywWMDIViNQ3DtMgERxoK/O53v+vXr996660njlVTGCUvBIRA6QiIYJWOlSSFgBAoCQF4DK4pZvAx9vy55547+uijp0yZ4imNPHFaLW3CBUUmjNOytJAk40nmlGKZK4Z2EfbJhn6LtAAZ2k1XWGGFK6+88rDDDkNDhDUqKw0xxQsBIVBrBESwag2dEgoBIZCKgHGsPn36ME8w0g9oBKtaduVZ43OycVqeBJrF1dJ5lWdFgLvbQfKePXteffXVK664ornWmL0YSiosBISAEFgYBESwFgY9pRUCQmABBOBA0Jdvv/2WxUL33ntvVl5gBdEFJH6ZJ+hsKXKVU3LA1UQAGTtsNBXxuKzM2xRPVaMYSBuOMUaDsUjpP/7xj80226xGySUsBISAEKgWARGsaiGSgBAQAjVAAAL097///eyzz3Z2BTGCJ3kWkVOPDwN0//kq7RtssMFyyy3HZEB+IVgwts8//5xfRs2zQikLk7Lmey28WfirfvzxR24Kzbrtttt69OgB5bIhYqEmCgsBISAEaofAAoavdlkolRAQAg0ZgZCXEP7zn/98/vnns9gVYYfFCZYHbGlQJhLCaRhHxfpYEC+4VNeuXVlSoevuXUm7eKOqfQaJ91/PMBJ4+umnGew1dOjQqVOnfvXVVzZUi4S4vqx7MSIfnqIJI71OPfXU0047rUnjJtyUVKhkw7NCSYWFgBAQAqUjIIJVOlaSFAJCIAsBZ1fGbJxLkcbDUBnoS2RUFout9+7dGx9Smw3asBgpDGm5ZZcjVekEy9SCFbGE6SOPPMIAdlxc1pmIM4wAo6zQytWIFINLOLSOP/54FnFYdtllI1d1KgSEgBCoBQKpFqcWeSmJEBACDRYBlrZicfbLLrsMsoJTyigUXMoACZkNkTiubFz5xhtvfMopp+y2225sbhN2z4UDrciQTOw3G14YHglxX/E7aNCgv/71ryy7RZKIGihDbqFKlj8xffv2vfbaazklB0+VfVNdFQJCQAgkIhC1MolCihQCQkAIZCAAsznnnHOuuOIK6++jVw4Gw+FJ4Ct+SgAqs8Yaa8DGDjnkEJjZMs2WmfnzTMZXNWvWjKvkhqPL01pCT+7xkQB5zp41GwcY8YRheHRT3n///eedd94777xDpOfAVcL8eg54rdAZBSBVvXr1uvDCC5duurRl5TIKCAEhIARqhMACVqZGKSUsBIRAg0UAVgQpMR/P119/fffdd7OUKGhYjLl/nMRAZYzNWAyDyiE9LJGwyiqrIEkqoz72a5Baknh8KYDbvVyS0V133HEHfjKGtDOsCucZo+/De4VhvF8InHnmmWxfSBh5iBoxnpsCQkAICIESERDBKhEoiQkBIZCMwEMPPXTEEUd8//33jHbiN1HIidQ222zDku5QK2gWkh5POCQ6dmnhCRYLRjD3kNyYcsh6pyNGjCDM4ffygMWbPuh200037bfffjjSXMB5m8dYEv0KASEgBBIREMFKhEWRQkAIZCFAL54NmXr77bfZ2g+fEKdQkLTlEswjxTQ9nEOEbSA5Y9LxEnEboywR4lJrQuMJbdEsvFDmV8OVdfnll19wwQWchnq6PJogjBrEMOb9hRde2GSTTfB7EUPpXD0PZAGka0JACDR4BESwGvwrIACEQG0RoKOQJRVee+01c/yQDeQjkX8wHOree+/da6+9IreCynBYkkhC4k04Eh/JIX4aT4h6ZAKfwyP12GOP0Zs5Y8YMT+jyxECw4I52aaONNho+fDjeLOgjY/BdDQ94DgoIASEgBOIIzJvjE7+gGCEgBIRABgJMA+zfv/+7777r7MqE4St2QFaI4SqddK+++mr37t0jklyFrOBP4pcjci+LjMdHxOKn8YR2C/NCde/WfcyYMQyxRxnT5xd9q/46uyLbN99884wzzmAMFl2f8bsoRggIASGQjYA8WNn46KoQEALJCLCw50477RS5FuFDcBq2VR42bFibNm2gL3TMGeuKpKrjUzSZNm3adttthx+LPko8W4kKwKvwXeHxMmroRfNAYipFCgEhIAQMAREsvQlCQAjUGAEGj9ODxh41zLALvT5hRvAYVhAdO3Zs8+bN8RXlhF2Zhuj26aefsgrXf/7zn1DneJhijhw58ldL/qpR43n+fhGsOEqKEQJCII6AugjjmChGCAiBBARCT8/FF1/88ccfI2QLiro0xMXD+K7wcsGuYGB00uXBd+W6oSfU8PHHH7c5hh4fD7zxxhuMi/f4EASPVEAICAEhEEdAHqw4JooRAkIgAQGbT7dEkyUmvjsR349L2EgmOzXiQgxE5MEHH9x1112bLd2MFTuNeOH7IZAfDxB+uOeff37fffe1SYWmmKnqpbMANGv99ddHjKsMeI9c1akQEAJCII6APFhxTBQjBIRAAgIMV2IyIGyJxQ4SLs+NgqPg04JdsbCnsyuuOKnyQFoOdRM/6+dZ3IjVIrp06cJIdrsp5IkjUQGKjAeuqvhz15VIlFGkEBACQiBEQB6sEA2FhYAQSEUA8gE9mjBhQvv27UOeEZKSKoYyZ8622247ZMiQpks19d1miCTfnLArHGwskYUy1msJ2eq8Zedx48aFrjiums4OB6tRsCwWMnR3eqQCQkAICIE0BGQp0pBRvBAQAgsgAOGgT40NBCNbxxht4qod9KDdeuutTMFzdgUp4dICedXrCQyJzj60Mj8Wet5yyy2rrbYag8bS9GKoFjstsu7XnNk5KkiatooXAkIgDwiIYOXhKUgHIVAABOAl7IQzaNAgOgF/YVNVbCNCnvr168fAdi8PV2FgdnhkvQfwwFGcxRstbl6rdu3a9e7dm00VQ8XQ2U+/+eabwYMHs2oDbCxSXpdRQAgIASEQIiCCFaKhsBAQAlkIXHfddawvGvaRQVA44BxE0uPGelfHHXccpz7b7hdyNZ+sZN2grq6hqvdyMskRJY899tj11lsvvH9IsAhT8AEDBoQCCgsBISAEMhAQwcoAR5eEgBCYjwCzCNmnmc41pyZcM3cOv+xCwxhw1nZfeeWVmzVrZsOb5ifOX8iYH3qhKguirrjiin369HE1Q3ZFJAWEh9155504sVxGASEgBIRABgIiWBng6JIQaOgI4J0CAvtlYz5blpMR4o6Le7MIQFN69uwJNbERTi6T84BxRPQ/8MAD6StEWxikEawIzWJt0ldeeQUBkviR89JJPSEgBOoLARGs+kJe9xUCeUfAxoBXMYnZcxh3dffddxNEaft17W1dKPxbp512Gn4sY2MRauLCOQm4egQ40JljpZVWOvHEE9HQTk1VEyAMA4N4/f3vf8eVBQKwTH65mpMSSQ0hIATyhoAIVt6eiPQRAnlBgAHdsAqYBAGYxOuvv26aERmqyOAkTpdffvnDDz+cAGzMPUChWCHChx56KDQL5mRHqDMI4JljsQYCBksEh1BYYSEgBITAAoZScAgBISAEIggw1w6PzujRo8ePH8+luM+GnkGcWHvuuecqq6xiaeMykTzzcIqSrqeF+W3atCkFYTCZX0JVyBa/0CkCb7311r///W87zUMppIMQEAK5RUAEK7ePRooJgVwggPvqp59+euKJJ0ybkHlYDF1mMLC+ffvavoSsfRCXyUVJSlCCyY9HHHEEC31leKfYwRBA8j+Kv4TiSkQICIFFiIAI1iIEV1kLgaIjYM4bmNPIkSMpSyJzgousuuqqnTp1gpcgkEFNcohGFRkMxlHRucnmOUyEpDfQegkNATS3QVcERowYUbUSmFYczeHjlEpCIE8IiGDl6WlIFyGQMwRgFXinYE6TJ09GtZCLuKaQko4dO9ppooBL5j8Ar0LJLbbYIq6q8S3ip0yZQq/ozJ9ngkxcTDFCQAgIAUNABEtvghAQAqkIMACLY8aMGZ988kkaeYJgde3aFbZRXMJB0eygCBAphmGlIrLYYh9//DGAFMtRl1EcXRICQmARISCCtYiAVbZCoBIQaNS4ykS8+eab/EJBEosE1cCDRZeZuX8SZYoSCbuaPWs2Hqxs/gQgjYFmwdmURSmj9BQCQqBuEBDBqhucdRchUEgEYBuswjBq1KhwTJIPS7Ii0V/Wrm07xrbzr5CFXFBpisFyozaebMEr887gVePGjft51vzVVhPFFCkEhEADR6ASDGIDf4QqvhBYdAjMmj2LtUM/++yzCKkK79iyZUs7Zb5hGF/EsK/g5YWKl4JuRABJ8+fF5RUjBIRAw0RABKthPneVWgiUhAAdYTio3n///QyC1b59+9lzZldGfxmLL8CcKOyGG26YAdC0adOAJUNAl4SAEBACIlh6B4SAEEhFgP4yrtkWhGlCa621VmV0DloBYVeMJ6NQaeXlejYgaQkVLwSEQINCQASrQT1uFVYI1AwB/FLffPPN559/npGsTZs2xsMyZAp0Cf6EthtttFGGznQRctUkM8R0SQgIgYaMgAhWQ376KrsQKBWB7CFHdrUyCIevIJpdHK5mC5SKrOSEgBCoUAREsCr0wapYQqAOEcimX3WoiG4lBISAEMgLAiJYeXkS0kMI1AKBWT9XrTy+8If5Y+w3zI0YI0/ZFMp8OazpEKYtaLjE7s4qrLRbTkGfsdQWAnWCQJM6uYtuIgSEwCJBgGUUGi82b3EEanx2tmFVhZAMsaYAG+cxlIpx2VOnTn3ppZe+/vrrFi1adO7cmdVBGV+1TLNlIssrGFtydZku9/3337N+Qdo6otzUhJlL6Mp48mIFvvvuu6WXXrpajsX+1qWX64033njyySc/+OCDNdZYY6eddmrduvUqq6xSRc9mzTbkYckE+OVp2jTG0jOXpBAQArlFQAQrt49GigmB6hGgPq7aeHjOHGgQLAp2ZWmszv7www+HDx/OMqEvv/zy66+/HtICaESfPn3OPvtsyATCIaUI+RlhbrHccsvBsdK0sRHfXIWEpckUJZ7Coiql9kLFNYezAghoz14sy2P3448/slpp//79b7nlFjL873//a1nxpDbeeOOtt956q622Yij9uuuuazdlZfgI043fWjFCQAgUCAERrAI9LKkqBBZAgJoerxK1OLHm/4Anvffee2PHjH3m2WegVoQhUnhlqODNL0VdThimxfrsAwYMwJt17bXXkslSSy21QNbBCUxi5ZVX/uijjyKeLUTIil98MxZAMkhXyCBggmSjJo0oVEYBVlppJa5ml7dp06YnnnjiddddF8+HnXbgu1zicUCwoFn77rPvFh22WGeddarNNp6bYoSAEMgnAiJY+Xwu0qqhIwB5yq6/AQgBHEtU0niqRowYMXjwYGruSZMmEYkry3ru8KMggCSnECniiSEtlIjA3XffjR/L6vUMxHHYxNmVy5uzpxSFPUmeA9brmuHBQnkAyS4CcPEsjELNnDkTtHkE1scKu+UUAcgc3se33357ypQpDzzwAP6/DTbYgFVb999/f5Y5Zbue7FvYVWAnN45ShCUjBIRAXSIgglWXaOteQqAGCPz0009IL9FkCes5slOqUupmHE74pZ555plBgwZRkU+YMIGKlnj7JdX8cVFEzZ7Xk0VaMvHKmL4qMiGHP/3pTxlqwQ/WXnvtF154gfwR8+SELWby5MmQBsLmS8vIqhCXKAgowXsytGUZUuuENQRMMkQG5vTUU095DogZu7IYS4UMp6QCPegXke/MPXgixODW2nXXXbt168ZoOZxhnhUBmLHFWD72awKhDmEShYWAEKh7BESw6h5z3VEIVI8ANa5328GQOKXuhMGMHz9+9OjRTw55cujTQ61i5iqVd7yurf4eiy0Gx4JJhDV0JJWRs1atWnH3NDH8Z4hx1ThHJIfCnVIQikOh0jQHitatW3MVsTRCQzzA8gShp2n5hPGOLQ+aeJIzNB66ddVVV9E/C8c6+OCDu3TpwjB5boobsqofs3HVK8GBvCcP81RYCAiB+kVABKt+8dfdhUA1CODnoJJ+99136UUaMmTIxIkT4VXmK3I3Ve3qV5JTna+66qr0IWYowVUGZdOBRdWOWHgvq92/+uorXGhVMsXf7JkC4jIc99o45lemYQJodOTZvD9GayWKARrAgk/ouEqUjEQib0lIa+SM0fFDhw597rnncFxtueWWu+22W/fu3aG8zZo1cwoeyUSnQkAI5AGBZOuQB82kgxAQAs8///xxxx23ySabbLHFFjfeeCNeDdgV1SoshwCMhyNkPDVCjPob9rbHHnuY1yQxrVGoli1bJl61SNjeyJEjs1laRvK8XYI5vfLKKxnFAS7zYOFDSlMema5du9pwtzSZxHgAN8z5XXbZZekK5DHBbnnc/I4bN+7Pf/5zhw4dNt100zPOOAN35rffflvrFyBRAUUKASFQLgRS3f7luoHyEQJCIA0B6BH1KCN+4EwE6PdhhDX15YMPPvj0008zAt0ThpWoVcB+qdoAd3EZ0kIdzE2y4oor7rLLLnfeeScMKczfhS1gt1t99dU/+eQTvxTqQNq99toLB5v51VymiAF7BL/97W8fe+yxNP2bN2/OnEquUvAQh4g87Orwww/H+YQzDG4E5rAl5HnckScSSYiMvRgWn3iL8Hn16tWL5bUYreUOrSo21qjxd99/x7Mm0gi0J0nMMKKDToWAEFh4BESwFh5D5SAEaoaA1a9W7dm4JSpjnEl0Az388MNMBiRMNWwClrXXjpzWqIIkoaUllR3kQAw67Lfvfn8Z8BfoAks2RIZRe3nQxBxmO+ywA+PcPZ6sPExujBNiyBG/HlnQALB8+eWXzOBjXdawjGFxtt9++2HDhhFjzDi85GFmDyyzzDLTp08//vjjGbRu8dbNao8D6kMXrYXtauLtEiP9LhaA18KoWLyU3sNDDjlk55135s2x98olq72RSyogBIRAuRBIdXGX6wbKRwgIgQgC1H8+xOebb7958cUXTz75ZDoBcZzcc889VJY2CieSqnanDIiGIXFQo1NbsyzWeuut17dvXyjCwwMfXmGFFaAURKZljjJconreZ5990mSI//zzz3HVhLV4hnDOL1GQDHaF8j169LCS2hipxOLArqA4yy+//COPPIIz8ogjjmBZUZ47T8HkSUsmPBEOi+GUIzG37EjYOZMV8C/+4x//gGPxfPFpvTziZeItQzSpjF2MsnHQVSGQNwTkwcrbE5E+xUbAqjSvNTMKw7h1asR//vOfVI34NnAjQYPMcRW6uCwHr3rn1sgLdCFl3MIuUfsyDY1ePH5ZYAlSRTy1r3utPPN4VniwSM6me6+/8frmm2/uAmEBzdO25557PvTQQ04gXLJYAQglNJedbSLuJSDyIo8dOxYYKRc8mEeWWECTt1+eLBQWwMmcGaAMnHr00Udx+LFcGXfhIIfwEfiNiLdweDW8HVftVfFIHhZ3wafFg2NxjQMOOOCwww5jnbOw9zbM3xMqIASEQNkREMEqO6TKsEEjYHWqQWBeCuo8TqlfISLUc6xgST8g1Iq6llPiwwovrErDeMeUTDiolUNJuwpLI2DerzXXXJOh8QxgxzHG3H4WxmTENFfDVIn5+40sYPU3khxMnWPJK2rusIyIUQp4IT4bVuRqsUYLm0sYkYlkm7dTSIkR3C+++KJt27aMHKe8oZIUB+4IwrAW1nS10VSNFq/B5jaG/LzfubtEM1exasWNJ5/kF58Zl0K2xFPG+4gavEVhfFyxUM8wjMKk5dGvv/76++6775FHHskC9OSJDPcifwtEMgxzUFgICIGFQUAEa2HQU1ohkIwAnTIzf57pa4RSf8NL6Hti9Dp9Rpxa5QfpidTlVgFbpmk1H/EkRxKaRX1JTQm/IQm5Mb8MTxK/jBOCMUAIQtcFMqXkn1ykxRazjV/w2ZAJRXAxYlCDAjLh8eqrryaesPEDl0kriwvUYwD6grashgAXYc1VdhACN4oQqgTgyFDqk046iXl8FAcZYkKZWoRBEg4EJ37ttdeYifn444+/+uqr3JrMieTIzhM1wgcaETZvFpGUiy5pfulA7Nmz5zbbbINHzfyXlJ1MOCJpdSoEhMDCI5D1fS587spBCDRABMLxxVRgrBF177334rV6//33qZKpPomknw7flTGVsHoL68sw3mEkB2pfqBW/MBvq4NVWW2333XdnbSSqT09iOTfBm7Tg2lTV5u83igcgAZttthnxVNUM4vasuClrMsEUGWdN91mLFi2KRbAoEU8E8sTOjG3atIFp4Y2j/y5EANiBGszx0tHjRmAh2RV3rHqIPMy5D4h3pmqLnkaN2U1y4MCBkC3WPOOFQYYD4VAZD4O8PwWPtIC9CZGrRKI2cxHgyr///e8ZIga9a7Z0M1uzNJKDToWAEFhIBFK/z4XMV8mFQINFwMbcQDjo+rnwwgvhJdTc+Ayooanw+OWIgGPVIZFhjeiREWHzIXXq1AlSdeCBB0Kw8K+Yx8UZFVUyyeM5lJJ/5HZ+Son+7//+j8FD5hqxrMIMUYxJc1dccUWkIJzGNfFs6z3gkwFZWeqSSy5xfUKdrZj0t/JMCS8ku/JbJAZ4lOZ3ZLTWSy+99Nyzzw15cog5KSPyaBjiH7nKKQI8LGQgUqY23BFvFvEEtt56a2ZXMDLPuo/D8sazUowQEAI1RaCa77Om2UleCDQcBKi0YDaUF1+UdbhAQegsY3I+w71ZxQrfFa4OBKiP8UOk1YVhxYYMtR0MDJZGnuRGntSR1gfHFngsX8mKR+wKzGCgDKjDe4X5ZySp9hJ50gN4yimnWInsFuGNiMe5xVrzcL5IfLl0qFbJ2gnAR6dOnQp/wn2VkQPc0YqfIVOWS44erxbUnHcAnxZLc9HFDD0i0u/Cq4UA7jcOj/QAVy2rEH/PHDFeYIboMcnx0EMPbd26NTjA5BDm3TNOxrvnuSkgBIRAjRAQwaoRXBIWAgsgQM8OfTpUY9RGVE4wKkbw0MVDDxokCScB3ogMamV5eeVnNR+cjIMMydZ8XcxZw1nFYpLbbbcdMpFhVQso9MtJWIl6/r9crOVfqnBoH51on376qdfc4Y3IF93gf/AAhMO6uVw61FL1zGTwFYrDhDuGQGUIwhrx3sEgEc4QK8slQ5V3gBdgySWWpBvRYvjFp8UwPsjWtGnTQBivIf7RxJuGmHuYtzQiDMfiRvQbbrftdv3698OhhTA34r3lPfQHbak8n0gmOhUCQiCOgAhWHBPFCIHqEaAG4rC6lvqJ9auuueYa+nSIwaNADAwDgeozCrrPcFNRgZHWcobKsOQSS0fiY8CtRbxVeJan1ZRW4cWrvfDW8aulaBWXQQGOyy67DD8WpMQUCG/kSaj+9+i6h+8kUy4FPP/yBigCnBiCxbMzRhvPH17F8PZTTz3VXJVxgfLGGKqOWziqj0sWz7qvzz77LKuYQuvtWRgZ8ifiydHNwxGCxRtFM4CnyZNFhjcQNk9JWfbM+g1pIRSFKJf3ESg3IbDwCIhgLTyGyqHCEQirt0hRWXPhrrvuuummmyZNmoQngIN2PzLUVQTSautIJl75EU9lBq9izSo2sWFnXyo86ksqOavXqQWpIKlH8Zrxz27kv2G2XssmXg0lSw/b2DLcV0z7Zwx4BsHC2cNYJXihZR4WsPTb1Zkkq6SyxNeHH34YuSMwOx1hUgLD271EEcmyn/rjC6FDGd4EYnhJTDfCSLJDJTQLio9PK+woDNNa2IsTKgzH4iAGGfKHStIjyXwF5oQee+yxv/nNb1wZk7G0ZIU8R5iVwkJACIQIiGCFaCgsBBIQCHu7oDjUN4xTYYbX/ffff/HFF1sCKjwLcJUjIZdfoiBh0CYbRmPVJL08VGxMvtt7771Z5ZJJamxfg3iYT1iTpcX/codF9dem+qMqI6NvueUWoOBOKBbqY/eGAbBOBLU+zrxFpU2Z8oUo0Kf5zDPPWHHCXHlSFslsOyYTXHXVVcSU0j8bZrKQYcM2fPrxDCkCLxL0d9SoUYz8o6OTHmpOkSQhOnOVNxaOmNiZaJnHHyLJIZRwfR43AXfd0d7AN2lLwxfFSRkHTTFCoA4QSDCOdXBX3UIIFAWBsKVuNRmzAs8//3z2DeSUmswYRikEy+gUBafO49cqb+oteNV+++1HTRavvL3aC6tYjySTML4OIDUnFkwLlw9rY0I9I7PbDA00gWPR03TBBReAEgyyDnSr6S1QDLLYv39/HJBxdmW5WXGYT4CXCDcPT9CeXU3vVWv5agkWpWCdfVtngbBxKVZcY2WQJ554AkcjOfBeUVKeQuRhuVb+1LzU5MOBF5bGAOCwetY555zDJjzEkCEPF8l6fA9dcwWEQK4R4CPRIQSEQAYC1Fs2oArfAN4OqlgqJHMMME5lbgdLVdVrB5cyPni/ysAXljy4/vrrbQlvHFrUhdR/P8+s6ljkjpEjVC+8FMYv0jA3Nd24CwFIidWy9ChRqMhhCMAdb7/9dublLVLFap05HWF/+ctfMh4WlygXv3/7298oPk+He9nTqfVNa5rQnnWJqXhLeZHQk4NnxBt1880329Jl1gloL228yFZM+7WrvMw8X56gjcQy6k9L4Pnnn+cuQIdK9fIelgiFxIRAHhCQBytubRTTQBGgpZ7on8BNxYBinDFjxoyxYVXUOtQxVFo+ysorJ77qNPjMkYAbgB1sjjrqqI022ghhbur+AE4tQ6sOLZ945Rfewu+bdtNyxXNTDupdMjR/D04shldboeJ3QZhLyNOZiP8jLlC/MRARfDy9e/fGtRNqgsJzC1r1EK1o2267LbtxQya4xEM3whEmWaRhlCH/ap8yYjb4j6F5eLRwO1kSionadGfDtOixnTJlinmkIjojTA72G17icwAE4qsY288/kxXvJ1NZ8eDSPLD31uTtdmFahYWAEBDB0jsgBOYhQC1CNwpVKefUJbTUOaBW5557LkyCqoVahJgMvLyKinTHMBSJCow6qVevXvvvvz9iHBn5mA6hTBjOSLjoLllN7/mjzzvvvLPVVlt99dVXVMNWu/tVC3gSNrRmLiQ8Fb9dRKaOT3l8RgtQiZWfInc3ZySR9pQ5hV6wABWrjjnzrvcHEdHZTh1qO40raTxy8ODBuB4pEaeUkbcUBmaLiUCaPZXnRoyHPWdieJ933HHHvn377rzzzkY9uZoxF8TS6lcINDgE+Fp0CAEhAAJQKMOBOoMelkcffRRK5BbB/DF+mhGwisrJBPOwWJ1y3LhxVGZUbKVAjQKRo5RUi1omrhJj/GGixksodXhYBxMxhgMrO5h6DvKi1jaeP8+UIhB/5ZVX8vhQDM3hCiF5Qm0OCoUAzioWdieJJfTix3Ou9xjXLS1AEaDCgM/Bq8gMQTZ+5un4awzZ8sdH8T3sAmHAEiLGVAY6DSl+Va/k3C7UeodCCgiB/CAQbaCEX5HCQqBhIsCcMjoEWdQKPoRvBmpFTYwDJrF7JREi5Km22VUXz83BBx9MtferJX/FcpFUQnYpMZVHYiA8bIGwLoxcqrPTUCuQgYhwaxYBZ6EKkIk4sUxhS8LviiuuCA6MecJTAp51pnN4I3RmK6Gj/nAUy3TBNoxG8IvmYdGIoTj84p7xpUdDgTw8i7BchEP1Ipci2oI/B7SSmQqsB8viDkzX4FHi0KLIntYz9IBfigfoNOR74Zec7a2IyyhGCDRABESwGuBDV5FTEWC0DeNL2LGY0TYwJPgQtU4VPZo7D8vqodTEv1yAQrFqJR0ojFIiCbUOI2N+nlXlPsF/QLZWhUdqvl9SV/2N12oZwmHCRRp2rUwZTqEmFKpVq1YM1efWhEMFKCkCIACMxOMjad++PSOf1l133VCszsKsVfaHP/yBR2x3ZNkChoHzsEy9UA1URW2GLiFDPOUK8Q/DYap6DPujiesQauu9eBSZMtq6G6+88gqOuuHDh3PqyT1DD/glC9g7zFUCMFd+2cTprLPOYvG2iKSfIhwq4/EKCIFKRUAEq1KfrMqVjIBVGBh6ArTaYU4QIETZQa9fv36MuIIW4KwyMcvCw5YqzJfq2dxa/CK2+uqrs/Y6Gx7TLUgPVIRwWO0C50C46DWNYwIaEBe28fnoo4/wi9AN6viYDHiCsENHz9QNN9ywf4/98eeBDxWz1frIIOlpFzJAnuTALfhlaQnIBN4avImWrSnGL3ePPCMTYB2yESNGtGzZ0k4r+JeGBC8qT+ett95iA01GaLGQLM0AisynAUQ2HC2OgL/AFjAYebi4/aBZLGzBy8BTYDlcO8JwPDfFCIGKREAEqyIfqwpVDQLUHF5DsJA3KzbRbYQ/g6qFioEq2a+SkdXHGTlSFTE3kAHsTJejL8wkqZnIjUueMMwzDLtAgQIhJuDGuu0sYAF3NLZqBQlloDJEEsMBwp06dYJmARoVMxAZ0yp78bkX+sD/TjvttCFDhnj+xJsyHhMGeDT0Ee+www5Ff0ZhoRLDVQ/jl5mhJjBjxgxcjCxLMXny5MQkHungeMByQwA6e+SRR7Ju1qqrruryXGVtUuNbHulpPUYBIVBJCIhgVdLTVFlKQsCns9F8ZyUqNteDDFHH41ii68Q8UmTk1p+6ISNfxvmecMIJ++y9j/tLGG5l+9iwAqQFLLlnGGaekXOeL4WYUC4AHDZs2O677x6WMSLDJQ4icftBPQEcVx+bsbByPRyLS+UqL8pYZy7OGAbXs0KBLWtuJI+7mGKheuGtn3zyyd12262M+oSZ5y0MCJGS8gnQV8iW0jBgG54VJ81hkjBs2Bqw0Cym3/KI+aB4HL7CRSgfhvOGjPQRAmVAgI9BhxBoUAhQAVPj0hvClnl8Qlh55otR64efE5F+hPFhGD7BktlAlz09EDJhB5TCj6ID7gUhQFlskhrdcA4agRArwvAbpzh+iaqX8Wo4wMoLCBPlWGnM7mKaUN+bAvyakqaSa2IBHJkwDJ4Xv+VVKbe58QStvLzG9jS97JBm2g/xZxrGOKoeAEl6e813yycGwWWQlt2FGxHwI7eYSDEhUBYE5MGKGFidVg4CmHUK4510NMSx7Mwje/SxR+m/oBPEYqzAfE5hyalCwhgbHtSsWTPqHg52puvTp48t4oBkmDAeDvPxq9WmcskCBcCTGYVnn332xx9/DOycUqGG+lNqqmFieBAGi43QIoZOQ0ags1Y4HYjgjKQ9HQcKR4ilRdgH9NiOeOY7JE+e6VNPPXXfffexMTN+yvjdXZmVV16Zgfl+d+g1ydnIj6mOLuO39phKDVB2K6y/qzhfvbAvj3gZRyBtCT4oxBxVfxwuaQHPxE/btm2LN2vfffeFT0eEdSoEKhiBBWqRCi6nitYAEYAJ4begMuaf0Sy2EWQELh0fNNZtNXavRCO1QgQuamIqflxfnTt3prJp06YN1Qw8ADHPIZLETtOyzU6VmFUhIqE1rGOJ9+iDDz4ANGpur49df6uYQQBwEPB469dr164dPXS77rorI7RatWwFecLdSJIlmizhRIrBXmQL5SL5J598wnQ/qn/cLYxMJzeeFFSAq8awPX/H3B+KEyw2M2bsUYcOHXhh4vIeU8EBw8SRCUsK0+WU3RhplgAynxWnPBF7gqGkhT0TCyDGAYVlTXw2zN50003jSRQjBCoSARGsinysuSuU21xMbV0qB7eyWvnDDz+87bbb4EZUDFQYNigHTVwf1zCuHtvtwRvYj/nUU0+lDjYB5HGf2Ca78SQek5at39clKyYA5m+9/RYL1jOv0LxQcY5F8UMEzIFkYlVcau5KFpyySgIT+ljWgUeAz4lfiDIjhJiXwO977703bdo0BloBHUngRqDNk4VgkQmDfgxSfwR+RwLWI4x6ZMhYbFbLpDMLTsbhD8LlPaaCA45SvIzgYG0VLrF8Px5K5hsCePyxWtowK8LMUoQQkwNJyIo1TvmOfv3rX3Mav5dihEAlISCCVUlPs/xlcYJS66y998FyqONKCx8GNeh99953Qp8TvvzyS6pPLL79RtwbYa0QKSwL/Jx++ulQK/a+xYll9QQyliS7RGnZZqeKKFCgU8prRWOP59/97ndPP/20cSzi7QjLAg0yGLlk8TixCJMkIkaeYXUOPbLcLAe/RDwPlydLgEieVJhViLndkXeDyY/0DJIPJAB5EawQeQsbMjZ1AINA5KjRo1g6i4134sLE+NMEcB4E2Nq3Zo+DR9yiRQt2qMShRUxiDnUQGb4/tb4dmYQvVa3zUcJKRUAEq1KfbHnKhVXFOIYb3GJh2U3W7Kbdw3p5rKqzGLOw/FLJscZmZG62a7aIbBMaVt2zUSP6AadPn3700Ue//PLLVBKhbqEOpi3KcBgdtBjKSB3ADH96rFxegWwEDDqTAU+GZDHFErJFjPUAhsnnQp5ggsJMQnnCJInE2GliEoQj8cSgBq80Xi7oMuuPM/ArrObT8k+8aeVFRuCyAqZhwnTL8847j/kEfFzIwE0J4K9y3yGRHGYfIljRvc4QRlgaW55jZEgVEVjUp5SUAwNllNqWkAiNWKgARfAyUqLwksJCIAOBqAHKENWlBogANsgNClbG1h0wM8QlAJn3O3uO9cQRYwwsrLRMJo6e5xy/VLsYNMRicjsCuC4w30w1x3yTm7WhCaQp43esGrY1axZ2nxEnjLn2eAVKQSCEl+dLhx2b0vTu3ZvKmFOeBS8PMiaW9gLY1cTb1SKJ50MtTlcvp3As9ipmR0LGe3nnl4ml5e+ZVHYgEfk0TGjAQFIZ0di/f39GaPHFZT/WEDokabbxerDhAXsncAnKRST3SrtdmLzsYW+Vec4ow8Gpjfe3NptfVUAIlIKACFYpKDVEGYyLWzrYCadVXqu57ijqSEbAMLiYujPsUll//fXhVXS7kJCqFJaDJGESOoKeJzFh2AUWMmBqDxo0iAV4cF+Rm1Wrfi8zmml3Qax169YMxYVaWRIsr3PHtFSKdwRCeAnzAhi1fWTgIyedfBLvDG+Id9v5Q/HkFggziVyqRRLPgTeTd5JxXddfd/2e3faESfP22r08Ww94KgUSEfB2lH0gfHHQLNZ05fm6tzgxIZG8FWYTAJ/GzCqrrHLtNdcedPBBxtjSUpU3nlvjteIfAR5640aNaT7yrqI8A/v8Xhg6hosxPo9fa7zZC0MxKYWLKSAEEhEQwUqEpQFFmn3JKDCz2ZkRxtrW2B3aqfzS44MZgkKRlirKDQ3mafnll19zzTUZj8yWZPCtjh078huSsLAC83C1OmSoF7nE8Odex/Qa+MhAdu344osv8FWQOTV6eK9IEj+l6qVDkBG4eDWMJlIfU9KwjC6sQCICoO3xhrnXxLw2jLxhv2deJ5Pxh+JJLBBmErlUiySeA/sX0SHIGG2fKvj111/zxroAgbT8QxmFQwSsHcUj46thbTkaJ9awCWUiYX++Ya8xq8rhb2aPnYjwojvFgsEIR40axe+7776L6WAqDObOuzi5NUSQzx86RYCmGrsnbbzxxvxi3/ht1aqVXphF94AqIGcRrAp4iAtVBIwd/IMGHM4pAhAL2pFsfjJhwgRapWPGjPn3v/9NDCYGUwKXohnnHojEG5vFCesttifr0qULPqHVV1udaXekgophsMiTMAospJEyqofmGHfokWmF3Xc7HtGTW1MKalmqBGNg2FCWFKfPKCLpp66hB/ySAokIRB5r+CwYuHPjjTd+9tlnJORZcMmugi1PLZ5bKZhbDqTlpbL3k5wtNy4xD/GII45gpkI880hMKfeKJNGpIwDUNMCg0XyJfJUWD6TE26ooLpkYYJupa6+9dp999uHbtA/TxWrxXFAAs4b7ucoUzN1TwTJhcivNRbZOGj9+PHQKks1dsvO3q/Zr7UnaXRSK5Vp22WUXVsXbsvOW8nP7w1LAERDBcigUqEIA0/Pwww8//vjjmCdbqhEugk0x40I4g7ikIUhaGAwEaMMNN2STMgwoLi44FgM4cG/gpceYpqUtMZ7BHOyyzCKT7k7L0BN9uCMKYMepjFn/kN1yWq7VEoqZeDsru10Kw4nCijQEqH7SsOLR0LnMqKwBAwbA42HzCFsqp908F142i0zLx6FGwGTCh25vwk477UT9x5oRMH6/iyeMByyfeLxiSkcAnNk6nZV4mUNKKj58oyM8nWoz4QVg7fhnn30Wy2CNMUuykM8FlejsY6kzlpWHVLHlIkQcCxDRp8S78GpxOI9HZ9ZRY/NKjNvWW2/NvUrMJ3J3nVYgArwNOoQASxhQ29HQZ3aVveXejcIpFoRjYayGUSj64MiNZYeYwI9vzGC3SnFhHgGOKBbXwY6jvKlairZY2C222IIhuihgdTw1euKBgB8Lo6fSGgI4RB0KHB5XXHEFi0/i4eDxmVPT3kDetxod1Hkk502jKwcqf8YZZ/g75rfz55gWcEkFao0A2MJmSP7CCy9sttlm9jRr9Asn5iUJn1GNlCEhHzJNRAIk5DXAf0mjDh2wEhmalPi+WQ4YGX9d3VrSdUgnOL2NNVJYwpWKQFUHjY4GjgAT6ddaay2shhEgjAW2g1MPZJik0i9hjMiWyo8ktu4Dq3WzpyyWlJ3sFuYRUEmzBKVpMrdtWfWDrSTGfuNKMn7ir3/9K34U7ost5heKmciuiKy1oV+YQlVqWsDkcfOL/8CeO95H3gEGwbCV4THHHIMzANdmiVWdi/HEN9lkE95kXBT0AVG5AiC34NdqWcMzfJSJ4UqFvS7LxdP02/GI6fXjmfoX6h+jPTs/DQO8ALg2wwfkGZYYsIf+xBNPMF2UnDE4GB+6IO0uZhb4JdJshb9IJQZcWzNonELdyMriGe135plnssFAidpKrFIRUBehfykNIoBbG6JD9YMdYfABJOOaa67BA0Q8JqkOIOC+3MV+6bVBBzpxGHe8zTbbEMlnZhq6qSpFJZZop2ImreVgSTiFL9oAC2IgixQQe4r1P+yww6677jrujjyH34IkHk4LhPJpMorPQMBAjkDNEBmbz2X1IsnZTJCx8NSy/NKhwxsLWzLChI+Kp8lrTLVNwwBnFb8s+E4VHo78y9BBl+oMAR4cz4vZo/gp8ZFzChHh8THjgY+Rg5iIMrArPtK///3vhx9+uF0q/aNjfDpcChsyduzYyy+7/PEnHmdwArlFbhGeYmoib2N4NS1sSUyxMHmoKvNsWKCkX79+TZdqaiO00ITSpeWp+ApEgJdDR0NAwHzm5jOgomKU1TrrrIPty/aZl/2NxwBxYNQ4yJz2Hwc6sBzOlClT7EGYS6n0h8KgWtMzsSzkz1Wza3RYjB49GuMOAvG7ULtXe5SulSQTETCEAT/74EVFAGHPhFOjWfYOE89VwkTyG0p6EgXygABPhyYcX9yLL77IdgjerYYF4IPFBJkpsE/Y/NyEaTXZq1L6k7XXg8kTzBUN87Sc037NItX0l9w8SVrOFI1LzKr+17/+hW48C3918/BcpEMdIDDPpZn2iii+YhDA4lQZryaNcVyzuDk7602dOtVMUr2UkZcbC0WTjgPji0tpq622wqWPSlSlNVKJqd1GrUKrSuPYTDk9UMTTaL700ktp19KR1GzpZlwiErtfoxtJuG4Q4MWwTR55SaqmQfxc1YdrLzCVljkD7P0hbG81SepGN92lpgj88OMPkCQeHBulj3xl5EUXXYSj0T5YXE2Rj53Plvz5ZTyo3aj0J0tWTHOBw0HOLB9yWEQeo1K0Qh9KzVShvfba64ADDmBwvb26NQVQ8gVGADulo4EgAI959NFHGWNu7yucAzPnlqjOXuKq6vOXwQoYIDO13J0wv0cddRTtPGxT6Q+F4VOtW7cmLSVKLAWTyOikIEMMPXwuLWdvMWcE0tIqvkQEDFueb8aBDLkhAAOGH/PexjOHiNvgLXkF4uDkJIbnyNPxL84eK8+U5aYOOeQQ//DDbxYjwFdMny/zTuxVSSwL70Y8HtPhRoAJE6VwIOQRW8gj1D8MQ/1Deocr67HHHqP4cc0VU6kIaJB7pT7Z+eUyY0SFdPHFF5sbwPw3hDkgWKF9YVVlbITZPuLdXpgkCY0SEQivmhhZcZVLlqcPayU3kntWfjvLk18OjyRA45UhzxSAGhQDbTOS5pcnFsIQMyHc9PFfM20M08ErRj6xRIqoNwSs4sz+NfqVUcXaJRPjN8yt3gqmG8cQMOMTi66KgG0w14RvHzLEL/aBXzr0GbrEJSbi8UwTExIZaYMxuoAmFsntMGPiBic7YMbKZCx5XB4ZzJodhE2Au3g4niQSgzDJiWQxNsyR2bRqLVta8RVfFAQ0yD3yIVTgKX74Tz/9lIU0WXkIm8V3zi/l5B210sYDyJDKrppxIdyqVSt26MMmspYx5AkqhqvfxRDAzNH/aKu9M0gZ8wG14tdID8YLGfswLGeLt3D4y7hU6BHONuY8kwP2iBjzb4ViHqYLCd/7888/z+h1ZpBZPDmcfPLJJ554IiabW2ck93wUqBsE/H3LuJ3J2BuS+J6YgGcVyoThjFvoUj0igFcS7oUCZ5111p133kk/GpaEj5TJCldffXXGHqDYLhJioHAF8V1z+sorr+yxxx52aiWKvBtpxcR8MRyTt4VtcJgqYZaNXzaf8CTYH2Rge/yyrTUTlrFs/JIKz5yJoQanVhxPGAmQD0W2SNYmZa1BBuOjvFnFiLBOKwYBEayKeZTJBcFyQXGYo8dULL5nDjME4YfttRRZYOOQwdhhEXB6QarYwoKD1f9gWlxlcWTEbIhM4i1tEBV5slAyq0wNHDiQuWBmXIzbkb8lTKsIuZHJPPDAAyzfx2RAbBmEKU3eMkdhssWVRW8g5I9demgKE8NVu5SorSLrHoHwfSvl7onPPSOTRPlSbiSZekGAYelMPYHEMHoBO2O+54zPFuOAkaEnkXeAtUN79uyJ2nGDlviG0NzCJCIPv2nfvj1cp2vXruuttx5bTS/RpGqIqiFgae1F4nYslEo85osYs28shcp4L4wb1obVH9AWG5XNsSxnMkFzOBxeOiwb3juL129FIiCCVZGPdX6hGO4Au7Ld34zfZBMssywwkm7durH2AUtxQlPgW5Ae5tJX/WPXZ+gV+z4HHYjz7/dLCKuErG1BD8FiiSPmXePfClOFYbL1U2NXmCECeNQ50IdwaEN/uc+8v1wluefgV8NsPVKB+kXA3rHSdYg/VtJmZJIoX/rtJLmoEQi/SsLQF0yT35QYVlvwAQYeHwZgOSQ5//zzL7zwQowDOWDWPFsCCNtvmMrCjEBgyXWWHmULZ/LhwEFutoUkBEJlPLnl5q+W8T+c67Qh2YERLxrt2NCd7wkJkArWiDCqcju7F41AFmINvWVhEoUrBAHeGx0VhgDecswNx+TJk7FTMBV/WeFJfN6Rw60GYnz2zLaDlpV97DCrerK54eabb85dUMBUwuKYeuiQeEDv0IcHhHmqsMek4mQgAGPmyBCwSyZWimS1WUmgKAhg2VD1z3/+M+6o0GiEZo1LWBjcVGZn7JchB4888gjcyFYYDsvLK0S29jqF8SWGsbQMSDBSaKMRUMxuilYedmWIwRTDukhow97tt8TbSawoCMiD5e985QRoJOFimvHxDPztH3/8MVbD9gKjhHztvJqRotrLCtHB2c6Gx3z84YKNXI0biEgO2aemD+53jAjW5+WXX6b5CIerip/bgfBmFwAAQABJREFU7cgtaPyhZzwfLqEMTixGUzUhi198+HFJxVQSAjx3ilPti2dipUhWEjgNuSw8cd4Kxmmde+65dPaFb0gYdmNCHxxtM6YlsloeW0dYcq56G8/AJN4u1e5dIi02Fpt26623ohsczrLlLpg4N7+RB4fCLDGD9wvbawNPIwI6LToCIlhFf4LJ+rOCOQs+Wc8gHzlfL3LW8osnwI3EiCVMA87z2ayoPXsWXz52gV+OuHztYrBBZA1Dwvpg4FhBnlmN7mlPu5FZPX5vv/32tKndtdNHqYSAECgcApgOxhvYuCsMWmg3wjDl4hS7wRaEbBTRq1cvwrTubGS6DfMKy85VP43k4/EZgaruvyV/Zc0/xp7izaLr0NgVSpLQCV8kE2wvM52HDRsGBYxc0mkFICCCVQEPMVoEZtXtsusuzObDE242iFEFfO14jKKic89pcrGlg488QAxzwJdfC0OTmD8NTegaJI9f1IBUmS+KtRhYc3n48OGkCu+FsfNTN3x4+5m/s0bzNeTESgRZkUKg4hHAGkydOpWePts5lPK6ofCAgWCEhtk5N954I2PnbRwCkdifRJTczoR5JkpWG0lWuOq576mnnmrml/uG+Yc5oA8+NroaWE0mjFe4QhDgweuoAAT4hiFGHHzb55xzDubGTQlhmI3zp/DFZfrMW2+9FRaffPwI4xcmTIYYGjs8cwtAtmhfopKtheM6u5Io7weNPFZhYHAYY2At+cJopbRCQAgUBQEMBaqyGHrbtm3dOIQBTBwsyn4tvn///qxWWnoBMSmlC0ck3ayF8W+//TYG1pRxyxaOvuASTjUu4VFDW6w3xm1h1AjvrnAeEJAHK/xICxzGa2Xb5bJ81IEHHggpscJ4gFM+XX75pPmecZUzRZluQabShMXmpfTTMK1H1iJgL7olDPMkjE1huNjARwYeeuihKIavCysJR/S7hPJEsuANw1Qhi1aW8GoY9uQKCAEhUAEIYEMwC2zwxb5+2cWhqYZxu+ef9xx08EFVZGX2nBJ93tyi1jYkNJuuHrmxiANOetZ0QHmIFIYLphgKkBC7x0JcrLNF1+fOO+9sYi6jQKERSPaXFrpIDVP5n2dVrdTC19unTx9rLfHpckTQ4GPGkwSPgYSxhAzsKm1qcSThQp5ia+wI87GB7d99/x3rCmI3jTOFBigUJgwvHDx48BVXXBGJ16kQEAIViYBbMMaJM/8GK5Hoifeyw65Y0YppNLArzAuWEIZlhsVl0gIYqLRL1cb/Yt4WyIHWIwb2vvvu++1vf8uIC9RwY+vGEIOMGD2e2D3WScZF12hxVcrV4l0YAXmwCvOoSlGUL5lmEJJ8wNgm7IsFLC1fOA5q2NUJJ5zAAHMuWWvJCJnJuEWzTCxyIX/DPMOsUACLg8WkxYkBZbl5lhX1pdhDSQtbWegFGDlypC/3EMkcmXhCxQgBIVBEBDBZZp1YS4+hV3T5UYrIJx+Wi9UZmJS3wQYbGA+zPR5CgUUdDnXDptGaNYWPO+64e+65BxZFcUIZrqIqHMuYFhzrjtvvgBRm88hFXQrlXy4ERLDKhWT958NOOLiCrN3GNwzV4Ag/Zr5hPNV86gMGDAhbdYglap8WnyicHelqhHkSyWEx/GIN35n4DuNSWdOZ+LDBZ5kjQzxhlj9lYxxb6ga+SLOVSM8nWxNdFQJCoCgIGENijh4rLNCswiaYBQj1h4sYa2FF9SFDhrA+O4bOBJyfhfL1EqYgvY7tddttt6EtrCteCrSySHbRoSeUsBm0etFWNy0XAvJGlgvJes6Hcd/4pTAoNojSPs7IZ0z7accdd2Tt43rWNbi9GxFU/eHHH9gR7IYbbuA6FtOXV3ZxNzpjxozBVBFPiYxmhTKRUvslBYSAECgWAvhyUJhetjR2haEwZw+ObdqNOLbdpJCQqzkpL+PAWBm1S5cu3ksYV4wiQA3PPPNMtjWLX1VMERHIy/tXROxypTPbNUydOpW2kS30kqgbbTs2z8Lfg0c6UWDRRWL17Ei7BawI+8LVvfba67TTToM5cQpfjMg7x7r++utxdHlTFTHjVdl3ieSmUyEgBPKMAK0sxolfdNFFib4rNLd4OuOQ6dGjBzH5HMOEyWVFLvYfZHnCDBuFGGbcGpl5fi7SrUQERLBKBCqPYiH/uPbaaxlHiZYR8hTKsGs9MqxBFfKS/BTMevrwpbNGc/fu3en7S2yAGsfCDDEFElPF7BsmCuWnFNJECAiBciHA0sQ333wzH7s1nxKzpUl50EEHsbYnwgiUOGcwMatFF4nJxZqxmB8jsczQcS8KZYfd15Y/pW1Ja3nRaaKc6xIBEay6RLvM93JiASNhTVFb3SBOSuBYHKyEvummm1YtFTN3txlrRWW0pcqsa1J2oQ6ETcTUu+OOO9q0aYPz3+MjGXCJ9VG/+OILbJb1I0QEdCoEhEDREfj+h+/p+MsuBcvj/fWvf0Umn9Qqony7du1wUGGQoVZ+yWgWQ/gxdxhwjPkFF1zgVxUoLgIiWMV9dos1alz1+Bh9RYuHZhxfaZxdWfE6dOhwwAEH5LmoESLFeFX20qExF4m3IlhJmduMDEUOTVWeyyjdhIAQqBECV111Fbt+pZk1y4pNBhmI+c0339Qo53oU3n///Tt37pytACQMmpUto6v5R0AEK//PKFVDxkvCLR544AGbdpdohmwEKO4r/NII+5GaaT4uMG+IAaF4/lEnkWMx2oyDTk/z25nWiZL5KJC0EAJCoGYI0PuPJ9usXFrKPffck31m8OUvt9xyaTJ5i6crEIOcqJXbZxbEeuihh5CxlnOisCLzj4AIVv6fUaqGrIGODaKRx2cZYVe4oC0ZLIRNGDbaaCNkUjPK3wWjg0yoYY1jaFOcOdlkHLavHzp0qKtfrDK62goIASFgCDAEk4D9sqwoq+Ix2SXju2ZbMJpYdA5myOQNW0pHRyFTebIVY1gt7UwMeLaYruYZARGsPD+danTDrEyePJkdr5xOWQKmqxBgWCXxq6++OiO0OKW7rZrs5l42NmO/pcgvOhnaeUx7xIll4xXiHItbU8ZLL72URh5XoZgZU6AXnZ7KWQgIgXIhYOMpbV8KPm1mERpzSvz8+/bt26lTp3BhmnKpUQf5nH766a1bt7aZSXY7Kym/HPQ8sEssi1NElqGpA8V0izIiIIJVRjDrIat5ozvnLnBgt4eOfPbZZ4SNdbE0MEaKqYW2n3w9qLhwt2TnHzOgGJ14TkSOHz+eUWjM04Zd8RuXUYwQEAJFQQBigeFipjNDr1i93fw3tJ3iBAvmwTZ/RSlXqCebxnJKnybrSli7N146TBml/uc//xkOgQgzUbgQCIhgFeIxJSsJsbCNccL+QcJwKVw7Rqp69uxJmPRVzaIkjpKcdW5i1113XZanp5sgboPQkUgKxeoy2GWORJncFEWKCAEhUD0CcAt8848//rixK/+oCdhBFti0ffbZp0WLFtVnl0sJM8UYZ2bzoCBt4IiaWDOIJssWQjSLaLcjxWmwpyJYhXz09smxoHmVMWrcONI1RqPH2FW3bt3atmlLlz/2iGWlilhUTCodAYlNWCsOAozVsDlEQFHEMkpnISAEHAG4BQbtrrvushh4BubOLJ7L0IY86aST2NfZYwoXYGAD6+ZsvfXWGDfrbQiLYF2HWPI33niDeBuUFgooXAgERLAK8ZiiSsIqiMKBHP8yiTc6wsf5xz/+kbagjQBlvSjiPSNrC8Z/XSA/AQaErrPOOpTUSu2KcQq/xE6xL6FRTEb9+1UFhIAQKBwCECm+az72F154gV+OueSqaniABYxprb322kzcgYoVsYCYKUoBhaJ0Rx99NKWIj2Snd4Ki0U4eNGgQdtt6FQtXWCk8v8YVFvlHgHYMn5yZGLR9/fXX55qgKPPgi+WbZKg7I0ARQz5CTfJf0lBDLNGBBx7Ib7wgBgU0a9y4cSSBSoYJFRYCQqBYCJilevXVV93Kmf6RU1ZnKCK7srLY+oUWppPBFna3gRyRhwUaY8eOJZKrIFDiRKVIJjqtRwREsOoR/BrfGgLha2+yUArjuyPDFCxHPkXi2ZKdU8IhuyJsR43vXX8JUPiII46IWFgiXSMweeaZZ/xUASEgBAqNAAOwaDVlFIHRSxlXC3QJO9a1a1cUjtg3Ymgkc9B0/PTTTznFSR+XKVBJG6aqIlgFe+709KExfqwPPvjA/OfxAnCVyN12242JNiERiUsWJaZly5YMaMXcRPii6Q8OmCF+i1Ic6SkEhEAGAnEPVii8/vrr2/D2ChiZhH225ZQj42gprxk0BNiKkVM6Fgs6Ezx8dg0tLIJVyCfOV4fPxr/AeBlwKe+6664V0+LBkm6zzTaUmoPC2m9YamZ0h6cKCwEhUFwEJk2aFFF+7qc/74eB4dbOLOKQALdgVhhM9JZbbmndnV5GLzsdEbjnX3rpJY9RoFgIiGAV63lVaQuv4oN8//33M/gTLh9fo694JUzSmN27MnxULHk8Y8aMpHSKEwJCoEgI8CEzcyVD4w033JCrGdYvI20OL2GoMddGvFw9p1/EmAdLW9o7OAUKiGAV6GFVqYpZYeMtAoxwJxj5LL0wG2+8cdW4yLmSHlncAMNCaedl6M8yDfFWb4a8LgkBIZBDBLBpfMi26op7dCJWbtttt0Xz7EFaOSxaokqUF4K18UYbh2UMw6R68803+UWSIzETReYWARGs3D6aZMVsfBXX8GDxa19d/MOjScSIpcpr9FBSrE+kvCx/hS+dhm+GiysZTcUKASGQJwSgTR/P+Ng+81Av++Ttl/nR9qVXwBgsDBfdES1btaSwlM6PsOzTpk3jFLtXGZwyLFrFh0WwCvaI+QJtli/bPBN27f3LJADh6NihI5fCyFDYUxUosPnmmzdv3hyF46uJEoORsg2CClQiqSoEhEAEAZjT9BnTWZOFLxpK4YeLrbrqqq1atcI3z1e/eKOqtlbhLJsXigDlWqLJEh06dIiUYm6x5v188skniFHeRourvvYXoRgBPbBiPCfXEr8UnyVjFKw149+hCxBAZtnlqiYbVtjCm7YpYdxNRSsQNGCcFDzEQWEhIASKhQCfMB9yoqvGKMgKK6xAiaBWdhSrdHFt4UwM1WdfQitdXIAY0GAfDpAp4qD+xBI1nEhVSAV71jTs+BRp0yTaICsMhGOVVVYhzAc5zw7N/VOwogbqoj5nFAorQ+lozDmzJADl4vfzzz8PUigoBIRA8RBgQBIfsjWZ4trz4Ztli18qaIxxpuxCYd8w+PGGZUGL3KDUFsEq2OM2qvHVV19lECw+RWvnFaxs1amLBwt+iRRWOJSFXXFKwzeMVFgICIHCIYB9sw85kU/w4ePsKVyhqlXYfPMZYl9++WXGVV3KLQILVFS51VKKJSJgZCvx0vfff58YX+hIiJR1AiZuGaFV+Ar9cKW8EDAE2DoGTxVOLGs4hbBg8Zo2bWoxXOWUIxQoaBg2iWWLl9eLYw1LP1WgKAjIg1WUJyU9q9avT7NBlWFn9YyFgBAAgYiL2jHh8/dp1HPJVYWwq4wic8lalQ6CAgVCQASrQA+roav6008/0a5t6Cio/EKg4SHAvEIKzbgIjECllt4oYxpxrJhFDSv18SWWS12EibDkOrJBeWtY6sbnztB4tRHuNOkiW3epkZfrV1bKCYHSEDAXtZm40F1NpyEZ0JVmwwPSWEhpN8mXlNmuxC7RfCkqbWqOgDxYNccsBynatWsXWp+4RrYMaQUsxDfz55leuunTpxPGHsUHwNKnsMYaa1RAeb2wCgiBhonAmmuuGW9D8snbBGo2uQcWBDCAX3/9dWVA9N577xnBolDxg0utW7f2dmZlFLmBlEIEq5APmrXpsucJ2uK/rOQefq5FLKqb2k8//ZQNNDjF1HJEykIMKxBW3sr1kWLqVAhUPAKrrbYalCJSTDzWfPs0rphAbQtvYtnShmpF0ub/1HYbTNOTRRyspHG7l5ZE8TlBQAQrJw+iVDX4xrA1tGZo52WkeeONNxCrgJV/bewFJcUGffvtt1hYo4yRslNYGnkVUN5IuXQqBBoUArAoFmr3kexedigXl+goxGs1b5ew2XOaLjVvRqGLFTGAQcNcxzWnvHZg6n0IWlxMMXlGQAQrz08nQTfzJHMhe206PFhIVoZXGQNEefFg8Qu/tNM4NHiwbBOh+CXFCAEhUBQE+JATVaURxedPE8tMATKVYd8ol1HGxFITiamne5Syc6TJKD6fCIhg5fO5pGoFvbA1Udq0aZPRSzhy5EhbiRT5xCP1Bvm7YPoPGTIE1Swc1xEo2rZtS4MvfkkxQkAIFAgBPuSVVloprjD0gs+f36effpqr7JYTlyliDC3hESNGRDQ3U2YerE022YSrMEst9RdBKf+nIlj5f0YLaEhnvH17W2211QIXFjz54YcfJk6cGPe0LyhVgDNMKgYIRc2Lzmlc6SWXXPI3v/kN1keD3OPgKEYIFAsB+5zhE3G17fMfP348lzALFfC9wxffeecdzHW8sB6zxRZbeFiBYiGQ8BIXqwANTVu3OzvttFNa2Y2BPf744xXgUqYsWFVm2bz99tsEOOKlJrJTp07Eq4swDo5ihEDhEOjYsWOi7bLPn6bjlClTKFQFfO+wRAx14gMy9xW/oGECiZgkplVkThAQwcrJg6ixGs2aNfM0EdrBKZtbDR06lMmGyNgKdcVdpw6n3ahRo2jkRYrpxWcQQ4cOHdjCzJilxysgBIRA4RBgLotTikTl2Qds9OjR7stPlClKJOM9MNTZexH6FMKM/WeLUt6GpqcIVlGf+LLLLrvddtvBORJZBWwDR/r0GdMj2/Z5q6hAxcZp99hjj2V0d2KeunXrxq9aeAV6rFJVCCQisMwyy+y6664rr7xy4lUif/zxx3vuuSftarHiP/zwQwy17W8dao5hx5rh3+revXvz1ZtziRZyoqkPUymcNwREsPL2RGqgz84774w07RvvNwwTY4buu+8+5vcyGpQPFXd6Qb9Plr158MEHKVqaB4sBWC1atMAeZZCwEBmFhYAQyCcCfMU4pFmYgNWwMjR88cUXWXY4zSBkJMzbpQceeCB7ANbBBx/MZEkwwYzb9Ka8FUH6ZCAggpUBTt4v7b777rhtsDKRD8+IFPF33HEHbSPoFwSroOzqu+++u/POO5s2zVrwhvYuPDKRZeb9EUo/ISAEFkSAQe587xi3BaPnn/GlsxoWTizakPNjCxiiQXjbbbcl+t0x6VhscNh8881hVywAJvtWwCe8mAhWEZ/aPJ1btmy58cYb8/mFn2hIpJifQlOPuTahQP4LHE4Owtref//9iTu8ekn3228/6wm1MWf5L6A0FAJCIBEBoxE4dfioEwWIxJrBPyBYbgGKZd+8XIx8YO6On4YBrDqNRhZoWHfddWFXXtJQRuH8IyCClf9nlKohVuaAAw7gMl+jC0Xc5ueffz4e5qWXXtoF8h+YNXuWDUqgLE8++eTYsWMxMRwRzW3s59prr00jz1Y6roBZRZEy6lQINBAE+Ng5rLAsudK5c2c+bU75tGllwTD8IJLh3gxdsrXxsH546IuI0oABA9LUpsi0Knv27IkABec3xCctleLzhoAIVt6eSM306dGjR/PmVUMg045x48bZunzZPf1pyes+HjsCcVxuueW49exZsyGIBLCh4axJ04rGLmYIimkLrpLQLFHd66w7CgEhUBYEQhpx0EEHwbT4xiNjK2kuIsbtLrzwQvNmYTHKcve6ycR6NjHLr7zyStodKTIdFAceeGCagOILgYAIViEeU7KSNHFgVyyIFRmiZNbH0/zpT39ih9SiOLHCduqAGwZAEK107PTsJfIALVdKx6nYlWOigBCoDAT69OnjBQnbTtZWhHjhxPLphOG4Ak+VzwCskTFkp59+eoQ4htrit9txxx3ZJCfsnQgFFC4EAiJYhXhMyUqa0enVq5cPUQrbf56GNdBvueUWPy1KgP25rr76aoyRrf5CF2FoZCkF4672339/dtUQuyrKM5WeQqB0BFiJBhcOdCpsHGIEbLQAzAOOddppp7377ruRJmXpt6gXScw104/SRl+ZShi3o48+mnB8aES96Kyb1g6BqmWya5dSqeodAWvcNFq80e5ddx8zZgxuKlMpJCLYIOtfwxW0zjrrIEBTL/+bpKIzfX+MsTB2RW9gZBwr7y2eLdYbpFCQsHp/FlJACAiBhUcgrI8gGa+//jqDscgWC2CX3LhxSpiRA3vuuSd8BUPHKcfC67BIc4BdTZo0acstt4yP2cCOYfdsPBlrHA4bNsw0CQsVhhepnsq8LAjIg1UWGOsnE6gVgw9+nvUz3mZ8zizQhxkiJvwICdMGYnFkRmvR988HPPPnmXCs0JDVj/bpd0U9PP9PPPGEt94i7IqkXGIZsA033BDDmp6TrggBIVBUBLBdbIG19957JxbArByW7dFHH6UlBhvDpuXZrFEKlMSU/fGPfzR25fbNCshVH0yGZw5TjT0PjXkiDorMMwIiWHl+OtXoNnvObCT4COmt79Kli0nzQYZWhgYTAiyXxXgFGxPKd4sHK8/f7cR3J1500UVMEuSwQsV/GaPQr18/4ild/KpihIAQKDoCNjWY1iOunQx7RbuRYRIfffRRnucSGv+jROecc87LL79MgBJFFMZuI8YlOGXXrl3t8WUUvOjPtyHor8qpqE/ZnDo4e/BjwZkgT/wSGR84yUdrDaZLLrnkkYGP0EjyMVsUnhzyBgGzh9jdGbU5Qt1CvrXPPvtsvfXWKP/ZZ5+FMgoLASFQGQhU+aPmzGERFlutILFQOIGgX1988QUGAaZlSRIl6yXSXe8EoEqMhb322mvRBMuGqhGVbNVoJK+55pr//Oc/CFhycawIUAU6FcEq0MNaQFW+OggH+yew+BOcaautturdu7dJxD9duBeXGDT6+yN+P2LECEjY/C9/rhtsgazr48Q0ZBgZKzhPmDABvxQHLTyK6UeVR6tJE0rHIg7nnnsum3PRPcpEm/rQV/cUAkKg/Aj4x07AcodCnXzyySzFwnArs2z8hgfWDGEWVWZEPE1HwoyXKL9mtcoRC2YtXgL//ve/KUjEaxXmau1J9sZp3bo1WzGybDImzo5QTOECIbBAd1KB9JaqEQQgTEy7g2Z9+eWX9kmbheL7dElMFUYKSUbEs3mf8RV4DAIu5nbNU9VZAHfUIT0Peeihh9LuiMKMeUf/K6+88sS+J8KubGRrmrzihYAQKDQCZpf4vfnmmxm6hLFyS2XlitgrZsbce++9kch6RABtUYb9vjDLG2ywAacRr3yoGw3gFVdcEeOMWSMcXvJwformKimQgYA8WBngFOwS7Z5bb73V2FWi6lATVpPia2d4OA0+PuMIu0pMVTeR+K5gV2x9ipJpdzR2tf3227P2ldhVGkqKFwIVg4DxCX6PPfZYWo8YhwjBCktKA3LgwIF4gOIT9EKxugyb/iwkQUcn3rUMdoVWmO7LLr0M35WxK9LaUZcK617lRUAEq7x41ltu1sW2yy67HHXUUaZE3BIRwwhKSNWHH37I3GZ2oUEyHI9VB9rHtbKbYhYTfVeYVOymyRCgp+Cqq67iVL6rOnhYuoUQqHcEIBnogH1jX2RGKUX0Ce2JST744IPMmI6I1cuptXXvu/c+xocxSqxaHRhqtl+Pqh0YbW2aauUlkH8ERLDy/4xK0rBJ4yZwEUzMTTfetNpqq5GGgVmh9bFcaEKZi4hhCmynytB4hohiCPik66C1ZLcOy0O3IM27tm3bPvXUU34Vtf0wYXTjKqpef/31LM1ApBnTMCuFhYAQqEgE+NixZm3atKFxhRHAOFBMNxEegIRhxzjFmGAl6GvDaGBh+E/ADhOuG5QaN2rMcPUjjzqSEetpd7Q+BK6utdZaLM1Au5EwhQ3tG2E/0vJRfD4REMHK53OpsVasvMC3WvVlNlr82WefxcmMQcnIBUPDR3veeef12K8H3XOc2g5ZGUkW/hIaclPsHfdiARtuOnjIYCYD0l+ZkTlG00aG4pw77LDDsLAZwrokBIRApSKAj4eRWGHTEXuSWNjJkyezcs0jjzzCHCCzjUgyZhzhtCSJ+dQ0kt5JzBqpMKqHHnYoo9oZOZptihGGV2G011tvvZreTvI5R0AEK+cPqMbqQWLatWs3ePBgSEmGKeGb5yp7UAx8ZCAUZ+jQoSSE+tT4fjVMgAHC3rEI+3//+9/DDz8ci/n5559ncCa04g7I77XXXjQH0ZB2qpmwGt5Z4kJACBQVATNNjGdggsu+++7LQCVKkmHfsBIMNmUrrb59+37yySdW7Fmzs0xiWaDBoqIVoy/wt7ECKnnSaYApNjsWvwVkkUjM9brrrhu/qpiiI6BZhEV/gsn6Y48eHvhw9mbsfPPQLPslF7jOWWedhV1IzjGINX6TYd0C2WjQhnnefffdLLhHmHYeOtCAs/EKlqerZIm5yvh9dp5nABYxSJojPZq1zoWAEGgACDC8gcVcxo4dC4tyK4TRwC6ZabJf62hj4Gbz5s3PPvtslu78zW9+s6jhee2119hBlXFg6AavwlJV2yC88847GTQW7re4qJVU/nWGgAhWnUFddzfik8a4wF3YouvMM8+0YexOYhL1wE5hldg4+dBDDz3++OPjzSkYG/8Q48BmWSAxq7RIGpRo9a9//ev8889nY0Q29iEmIuzZ4lfHPHGw5NWqq646atQoxrdyNSKvUyEgBBogAvi/N9poo+nTp1sTEcNio6+AoopkzZkD33JYLIZdd2hAduvWDUnMC8bEm2oIVGtbkCHDiJjd3W40ZcqU22+/ncWc7dTk7dc1iQRQ8oYbbqBly4gOzCuu/YiATouOgAhW0Z9gsv7WbPr+++8HDBjAN8+Yp2yCZblgPrAIOIpwwp9wwgl4s+ibs0sRSxExNK4EFseabtYgcwPEME8aanfddRc79iBMtpCnjLadTVTGxdWyZUv87bRBbf6j30gBISAEGiYC5u2m42+bbbZhQjSmBqZCay00SpEw1g9bRCRNx5NOOolmJDEheti3MEl4qdrwM888c//99zMJGteaEzszmBGzaVmhMCQPBdCE/b5oas6eNVvsqlqciyggglXEp1a9znAXhGjY8XvppZeeccYZiZ96WkaYCdKus846v/3tb3//+9/DctIkPR77hdXASNlNGcOO4fj000/ffPNNOgTZvBm/F4QpVAPh8NSz8kCHDh2efvppqNWSSywpA+SwKCAEhAA0i3Yjq+JZmw1AQoYUhvFXwWkQxv5g2bBUbP9AjyHGrXPnzgznwtlPkw8DZbarFGxxOE2dNhVSxdJ9+ONJSypydjXMsiXaN4SJv+yyy0455RTkyWrmzzOxcqHOpeggmfwjUE0Nl/8CSMM4ArArsxQEcGLRVGI2DYM9S1mLxXMz9mPDz9dYY42ddtppyy23xB4hwCB6FwsD3I42HC1Lli1m1Pzo0aMxPYSt7YgkWmEWMSVYujBhJIwBwr+F+fvLX/6CKcQYYRb5lQGKAKVTIdBgETArBzc68sgjBw0aFDEOZr4MHKwHB1YIq+JwMRyCVZcZeEBXI/MNsWw0I1u1apVBs9j2dOLEiex4w8oyrAQxY8YM7BjMDJtm+ScSrFATuzstz+uuu+6QQw7BulrPIMaNTk8bY+oaKlABCIhgVcBDzCoCny6WCBMAu2JkKAsiYAswIkRmJVvwGvJEYD7IjQDb7GCYoD78krPLslcPd8Hk2XgIE/arpQcwSaeeeio9m+QQsZulZyJJISAEKhUBty3YB3gS6/kxu9BYDkWmIQeXcplSQECYVGbTWJLKkzAGlPwZ4QABmjp1qsdXGzDbZW1LBjyQiSVhvg4efdqo0ClGx2ZMoK72FhLIPwIiWPl/RmXQkK8dRsVHzuAD2l7k6Mao1rlj2vC9w72cA2HUoFbWjKt1tgy3uurKq3rs3wN7Rz+jDcaqdW5KKASEQOUh4OQJ44Nlw/LQVUePG0wIy0Z5QyvkBioNhzA3klsOCJOQMFfJLfR+peUTxpsCJA812XvvvdlUkS4Fc1aJYIWIVWRYBKsiH2tqoRiIcMUVV+AcwiqZ4UgVTb8QsRpuv9xOpSet5sp22213yy230MiDXVUjqstCQAg0VATM1JjloZft+x++J/zRRx/16tVr+PDhEVTcQEXi/RSDRluR00j70A0azUgzeh7jabMDsCsS4qbil6Ui+vTpE7qswlJk56OrBUVABKugD642ajNiwJznjCQ45phjWPuALzxsYNUoU8wWBzlw1ChhojDbyGOAjj766Ko5NXOtEp2P5C+mlQiXIoVAQ0bAbQ4mwnDAG0QYE4eL6PLLLw93p3GZNMQ8NwTgUka2CBMfoVzxrGBOYfLwFpgyOg0YX88KEfRgtm/fnuGntloNSfBjkTaUV7jyEBDBqrxnmlUiPmymBCPBjjoMIWdrP8aks7o6QzWxTVgWBHCG15p1Zd37l2sML4U8cVPsC440DA0LorIeDAEMkEmhAKaNXS40efAX2PRXCAiBLARwZbFWOweuLOZNM7MHewLxcmvGmFEfCxVmFGFIIYvyMDKhmMeTD2YTO0YM3ikzXFArxmxxiSmK7D9x8EEHs2OP3RExy4dfEazwKVRkWASrIh9rNYXi24biYH1gOXAsmBYzYvAVmZmwxKE1qSa7mly2u8ClrI+SQQnnnnvuZpttBr3D3GCqzABx99CEheGa3E2yQkAINCAE4DdsOAjNwsIw3e/iiy9mFT1si0OQZklKMXdh2rg85suZHO1VOFbv3r3ZO5Up2AjDvTx5mNYjXUMFKgkBEaxKepo1KAsfuX3bBNgNkDWI2eGBCYDwnhrkUltR5uawt+Cxxx7LNoieB5rgteIXxxUOttD0hGGXV0AICAEhEEcAogOpguVwiYEQLLZ83333YVtov/EblycGs5MYX20kLUZ6FWmvclPMFPkwQxBehXFbdpllzQFPZMSC+e0i8dXeTgLFQkAEq1jPq2za2jfPL5bIxl3izXrs0cfuvOvOt956iwUXynanBTNq27YtO7BigFZfffVmzZrB57B6zBbEe48gdgqVaAuGkxOJlxlaEEWdCQEhUA0CWBIGPNkuNDM+nnHTTTex+/KECRMSkyGcGF9KJEyOyUPciMW02ABjxx13xH1FQkwrvQTm1or0BvrtZNlKQbi4MiJYxX12VVORGXBAE+q9995j7gwf7dprr013G2SFb5vTcMZKvJz+kXsAGRzsn3/x+cMPP8wixSzCzggG2I+ntdk0kUFaZiPCTEwem0IkB6lYxI/eQMZadezYkauhWQnDjKKouhq4r8KrroYCQkAICIFsBLA8cQGWPoZp2WKhtheqd+1hauzwVBhYy8SafMSbi90F4E/YWFZg7t69O+1Gdk1NvCmREYLlORAw1xe3ZtgW6rGnIeFNN92UXX20SE0IVBHDIlhFfGrzdMbfAwFiDNOtt96K/4kPlQ+edaTYhOGAAw6otmCJtoBv2xKSGwOz3njjjRdeeAGmxS7xLAoP2YJdJeZMQoyIX2WhF/auZ/oMx2677cbafVgi7mg39buQlYUtPp5zKBm/qhghIASEQCICiSbF7AmWk9XYR4wYQQciB0u0s6kXmWCjEOCq2zHLmSYijnZarZzir2Ji4FZbbcWsQJaA53e11VYz/lRl3eb2BpIJgVCrNDtmK7kjyfKEjNnC5GLSaTMjf9BBB9G5ScD8YWFuChcFgeh7UBS9pachwEimwYMHE577ac/7pKFZ7B3Buu3ZKEVMgAnzeWNfrMMuFOA7Z+bzpEmTMAEffPABjS1OmZJDN5/fBTcVpIrtJrA4NL/Mf4ak5eZiYbZEmumJRLqwXfVTBYSAEBACpSCQaFJsRAQjE+jU4/fXv/41FgZXFnwLjjVt2jR+P/74Y8+fYamYL1vhnVENHOuvvz6/jBM1GZu3SCZLNFnCR1x5cg+k2THUwE4+8cQTPXv2xPbaEFhG6GOEScIGZSygyhI2no8CxUJABKtYz6uKSPm3yi7O7BHBJ0oZiKfdQ0OKAN8nfix2xcHnlNH6STRAfOH4rmixkVscGpLYKFHrKzQBIquOquk7VR511LOrFvZMaKsh0Ag/1y8zlu2SFQdhlwwDXtgwUmEhIASEQDYCJZoUN1NmoDjl8JxprHoYAWyXWyTspF3C7IWjGlw+DHiqMJIw94Le0SHIsFesNwfZYoRhXfAtrDeLQh9//PGRVDotCgIiWEV5UgvoCamaPn36BhtsYLFzbcJ8o2CRbLe8yy67LJCsuhPySTME1SWtwfW6uUsNFJKoEBACDQCBfFoexmDgqaJTMmJ7OeWActFUbt26Nc+H0wbwlCqqiFpJtpCPk3EAxx13XLbqNqogWyZyVR9wBBCdCgEhUDEI5NO+YagjQ74McOgg3iwunXjiiawOnU/lK+bdWEQFEcFaRMAuwmwZ1cS4q2effTb7HowbyBaor6uyFPWFvO4rBIRA3hBgtXfGVKRpBc1i/PuQJ4fYEPs0McXnEwF1EebzuaRqxWdGD/0mm2zCbF68xybHR8hB2Lrw+aULn6HoKyy/graaSYVSF4SAEBAC9YoAdpsxWC1atPAR7nF1kNloo41efPFFZhQlDo2NJ1FMThCQBysnDyJLDZZg8MsMumSbLdgVI9mrWNXcg6ssi8CvtYRwLJ900knMPYkMJ/dMFBACQkAICIE8IMBiVyeffDKTh7zBHNGKASEs/nzeeecRDw/zwfURMZ3mEAF5sHL4UKIq4bKyTfpgWkwhZilRW/zT+9oIhF8dqyS8/vrrdBESmfbRRu+hcyEgBISAEKhbBMxEf/311/iosO3eYA61wPgzEgv31auvvspOGFxCjFFZ4ZTGUF7h/CAgD1Z+nkWqJriFbS0GFrj7wx/+QC9hZHwV3xuJmdNrdIp1R2n0wMbErlIx1QUhIASEQH0jgIm2pbBuu+02OiW8zRzqRQN7pZVWYmWso48+2kdisf5WonCYUOF6R0AEq94fQUkKQK2Qe/DBB1l9mC+N7Zk5NV7l6W3nB3Zs2GGHHegrtCR+VQEhIASEgBDIGwI0hqFK22+/fYcOHdCNMIcrSRgS9uWXX0KtMP4svkOASNiYyyiQWwTURZjbRzNfMXxROLHgT+utt94XX3zhF8LvkFHttITYDIs9bVhO3WTkwXKsFBACQkAI5BABbyd/+OGHbCzGJHGjUKGqLsOeY2PGjMGhhVtLA95DiPIZlgcrn89lAa3wRfEtXXTRRWxNs8CF4ITBj4ideuqpcCyLhn7xWdoRCCooBISAEBACuUAA++x6sAPPKaecwoirMJKr4elHH3105ZVXYu3Frhy3PAfkwcrz05mvG9u/d+zY0fZPsNjQfUUMHyH7LbBxKR+eDXgPBcLw/EwVEgJCQAgIgfpDICRPWGl6ITp37jxx4kTbkcz0CmUIM+tw5MiR7dq1qz+tdedSEZAHq1Sk6l6Ora/8pqeffjoLMUQW/OWD9G+P5Rv+9re/4Tf2JAoIASEgBIRAURBgbjj2/Oabbw6HdriFt1LYJXYnlKkvxGMVwcrvY2JrZJTjA3vyySefe+45dm4OPyrizVNFgC75Hj160H/P5wctg3hxWMHCcH6LKs2EgBAQAg0PAbPP9otrimEeHTt07N27N7bdzHsEEiIZjDts2DCWd+cSo7USxSKpdFpfCMx3gdSXBrpvBgKQJ0hV+/bt33vvPfr+7DQuv+aaa44bNw6aBbti6XbEXMaZlscoIASEgBAQAjlEALY0Z/ac6TOmd+3alY5CuiyYDx5SKFsTi18WxHr++edZHAtrz2no9MphuRqsSvJg5frRQ48GDBgwadIkPiRWZwg9WKHeffr0gV3RmoFdpcmE8goLASEgBIRAfhCAJ3Fg8P83839MFTzmmGNsIQYbzO7tZALQKVjX+PHj7733XhgYp+GArfyUSJqAgDxY+X0NIEzvv//+dtttx3brfGYwJwZa8Rs2aNCe1VNY4ZcWDN8nV/ksCXip/Mv0GAWEgBAQAkIgbwjMI1j/+x8WHnvOhrPvvPMOnYZhPyAyVhegPBPGX3755XXWWSdvBZE+joA8WA5FHgOPPfaYrSlKGwWqxJcWkic+Qo7LLrvMvFYIWKOHgB95LJV0EgJCQAgIgSQE8EgxW5wrN9xwA7/Ydow89pywGX+f6kTD+/7772ebHVtiOikzxdUzAvJg1fMDyLg9a4q2atUq++NhbPtDDz1kQ68ystIlISAEhIAQKAoCtKVpLe+7776PPvooLitIFezKCBZkywKUhT6NadOmsbI0JKwoRWtQeuqp5Pdx9+vXjzXcs/W75JJL8Ccz9CpbTFeFgBAQAkKgKAjAnJg2fumll8aZk7MryoJ/i8WlkakiX8HIkKIUs+L1FMHK1yP28VUTJkx4+OGH/TRRy759+zIckq8rWywxrSKFgBAQAkIgnwgwpanpUk3pwWBt9wwNIVWDBg2isnAZ1QUORR4C852NedBGOvg6C9tuu+0rr7yS+LXgOmZI1oorrogAuxMKNCEgBISAEKgwBCBPs2dVLduwwQYbTJ06NV466yukA3HLLbd84YUX8Hjh92KCoQ3Ajcsrpu4RkAer7jHPumOjxo1ou7COXBq7IjH98RCv/v37i11lQalrQkAICIHCIgBPYuwHY95ZssEKAX8iQHxYJnoJ2TmHKoOGNzvt0KEREQiFFa5jBOTBqmPAs24HtbKPZO+993766aczRNmIij3VbbJJhpguCQEhIASEQKER+OabbzbffPPJkyc3bdqUbZ4jZbGhV3vuuSfLYi3ddGmNx43gU7+n8mDVL/4L3J2OP74WfFcvvvjiAheCEzzAzBlhYKN9V8EVBYWAEBACQqDSEIBXnXnmmWykg4MqXjbzV/3rX/+i1oBdJY4qiadSTN0gIA9W3eBc6l2gTdtss82IESMyEliPOx2FfHgZYrokBISAEBACRUeAueR0VlAvjBo1Ko0/IYCX65lnnlG3Rq4etzxYOXocsCsaIq+//nqGTniwmFdCT6I+pAyUdEkICAEhUBkIYOoZWXXaaadh9tNKRL1AxUH1Ee9DTEui+DpAQB6sOgC5BrfYcccd2f2AwVhpaXbYYQf2UWfmSJqA4oWAEBACQqDyENh9992HDh2aWC4a5wyB32KLLV566SUNck+EqF4i5cGqF9iTbzp8+HDrHIx/IR7D6CumjVS7AGnyDRQrBISAEBAChUIA8mTbEZ5xxhmmOFMLIyWw1RBHjx4NwfJL9CeS1k8VqHsE5MGqe8yT7whtopf9tddes10RIn3tOIdpoOyy8y4PD3w4Ob1ihYAQEAJCoOIQgCR5A5vNc3BiUUdAucKCIsBBRyFbRDPancoCykWdor6OEKW6D8uDVfeYJ9wROsX4RGNXtsxVRIgv59tvv+3Xv18kXqdCQAgIASFQwQjAnLx0F110Ed0X8TEkkDAO6o7x48fDwGBXyIhdOW71FRDBqi/k59/XnFWXXXYZnwfH/AtBiBUcWOmE+YNBnIJCQAgIASHQgBDYcMMNqQhgTjS5I8V2jnXFFVdwqXGjqEBEXqd1gIC6COsA5Gpu8cUXX7CI3Pbbb582AcT611lZlPVFNXmwGjR1WQgIASFQuQi88847bdu2TSsf7i6YFospdurUiYojTUzxdYOAHkDd4Jx6F7rSV1pppcsvvzwy6CpM0KxZM9Z2Z5kTsasQFoWFgBAQAg0NgTZt2nTp0sW2zYmXHXZF5AUXXCB2FQen7mPkwap7zBe4I7yKvdA7duzIgMQMjkWLZLPNNkv7qBbIUSdCQAgIASFQiQgwsgoKxUCrzp07Z5QPdsWyWPQnZsjoUh0gIA9WHYCcdQsGXTFuET/WMssskya33Xbb4e+FXaX1IaYlVLwQEAJCQAhUDAI2nZypgvvss09aoZChrf7/2bsTOMuK6n7gOoMaFZTFBRcUBFGRxQ0w4DKKCrgHhKjRuCQmAbOYxCxq8o9RYxJjoolZ3BFBwIUlKlFZBAnignsUERAUURGN4gIYmBn/3/t+M8XlvmVed7/ufq+navrzpm7dU6dO/epUnXOr6tZ95Stf2XnTcBh9TV88BKqDtXjYjsX5O9/5joNDkXpJsJOhzPH6EFVu1SXCDkT1siJQEagIbG4IeNh2IGJq3b/b3SwXS/HRj370oosu2tyQmbb6VgdrGVokr3so2BOG3Vd553bg8p+3RR7+8IfX7YrL0Ei1yIpARaAiMK0IeKPcVz1I1+9geTK31vH973//TW9607q167Ira1rrscLlqg7WMjRwcyRc710PJ5qceuqpcbD6D2gwzaurvOQlL9l6662XQcpaZEWgIlARqAhMKwJMA9FiPtoyZi8vx+uUU0753lXfW79u/c9+9rM2QY0vGQLVwVoyqG8siF+VBcG3ve1t3/ve9+Ja2eR+I8XNbpb1wf3333+//fZrp9d4RaAiUBGoCFQErGxY3xh4mqhtWBys7373u0cdddTqLVa7rPNYy6Iw1cFaBthvc5vbmMFS8Bve8IZh+9bTH4444ojb3/72yyBiLbIiUBGoCFQEphgBpuHII47sCMiycK1MawniTMxPfvKTZtv7uvUdynq5BAhUB2sJQB5QhB1X73rXu6666qoB93pJHCwv2T72sY81s1UfPoahVNMrAhWBisDmiQAX6pBDD9l5553bk1h5dM8CCMPBxBx33HHBx6WweWK1XLWuDtYyIG/joYcMk7ej1T3TV+k8Tc/ohWUQtxZZEagIVAQqAlOGgHkp4cgjj2wfoFjMRHysTGJ5m8pC4QYT0vpvyiq0AsWpB40uQ6Ned91155577oEHHqhs2j5Qgrve9a5f/vKXt9lmmw5NHlAGZqmJFYGKQEWgIrBZIWA77+6773755Zen1gxE20Z4kvcdW+dUO/99q622QlPulshmBdcSV7bOYC0p4OVR4+ijj/aE0fauqHueOSLQM5/5zLw8WA+LW9IWqoVVBCoCFYEZQcAWXm7TYYcdVuRtGxGJdpjc+ta3fu1rX1vOUKx+VcFqCSJ1BmsJQG6K+PGPf2xPInW35HfFFVfc5z738S6heHl5kN4L8cB0BtNXO+20kxcMOWH9S+xLJHQtpiJQEagIVASmEoGs9bEapq/sxMrb6IxF+8QfBsU7VVYSv/CFL2y//fYDT1ucysqtEKHqDNYSNWSmZ+MqvfnNb+ZXedQo3hUh9BadwYyu+KGHHhrvatXNV7W9qyWStRZTEagIVAQqAtONANcqyyD3uMc98uUcjhSbIj2CsynilgivueaaE044oXpXS9+edQZrqTH30uyee+5pEkvB7UeNthyf//znvULIu7IzUbp+Uu6WzlNSaqQiUBGoCFQENlsEPJl/+tOfXrNmjf0kxeuK1eByedlQfJdddvnMZz5jFaV5xapnVjZbuJay4nUGaynRvhnlPu+88771rW9tscUWw7yrRz7ykRYQeVerVtfWWdLWqYVVBCoCFYGZQ8A81t4P2duR1JY7eFTlgTwRv/acXHLJJeecc474+l/UA7GWroWrCV86rFPSG9/4Rt5V6QPt4jM79bznPc+2RA8ZZbJKpIQ2fY1XBCoCFYGKQEWAvfiN3/gNU1ksi5AIWKwP+s1x1m9961tdsj4VriVDoC4RLhHU5mk9W3zzm9/0uqy5K4quG3TK9iByxzveEU1dLO8gUy8rAhWBikBFYBgCtl7xnHbccUfLI2j6jYtE81sXXnjhve51r2FMavrEEagzWBOHdDBDGq8PHH/88byr8njRIfW6x3Oe8xyTVZ30elkRqAhUBCoCFYFhCNhSwnA861nP8nDO1gw0It6gcjxQtmShEYZxq+mTQqDOYE0KyU3wyfbD3Xbb7etf/zrtH6jcHCw7tPbaa69N8Kq3KwIVgYpARaAisBEBi4A2Wn31q199wAMewIUaaGKskNzhDndwpkOcMFkH+mEbWdb/J4BAncGaAIjjsDBx9b73vY93hbjjXUXLLSA++tGPtoA4DrdKUxGoCFQEKgIVgTYC97vf/Q4++OCc3SDdE3v7rpUTnyY87bTTfEokRqdjidrENT4RBKqDNREYN83E48XJJ59skrb/oSFa7rHDLkWM6tHtm0azUlQEKgIVgYrARgTYF3bEW+qHH344R0qyaSpnWW+8f+P/nvO9RHXjdY0tJgKD16oWs8TNlLe9h7vuuqvK54WOggKXK+c13Pve9/7a175mn5buYTbLU0ihqZGKQEWgIlARqAgMQ4DVyO5eEauEF110ES/KTFU//e1udzuGxqnuebDvf+Dvz1JT5o1AteLzhm6sjHmYQGp7O9eq323yZkdObz/ooINovOBZZCzWlagiUBGoCFQEKgK9T7ExJVus3oJf5VR3NiW7fvuxcar7SSed1J9eUxYDgTqDtRiobuCZpwo+kxkpE1SXXXZZJqs6RXqGQPOVr3zFYbtetc0Ken2w6KBULysCFYGKQEVgIAIsSEm/9NJLmZJy2R+xlnLBVy7w3mH/A38/cU1ZCAJ1Bmsh6G0i709/+lM6zLv67Gc/O8y7woIvtf/++3vBcLWz2+vK4CZArbcrAhWBikBFYCgCPvz88Ic/PAsjA4ksIH7hi1+IrbH3dyBNTZwIAtXBmgiMg5n48FNuHHPMMQPnrtw1o2ui6+lPf7p4+fJgnb4aDGhNrQhUBCoCFYFNIfCMZzyDgzViM/txxx1nR7xdK57/N8Ws3p8/AnWJcP7YbTKnVXCvcvi68wMf+EDTtgPpdYOtt9764osv3mabbQYS1MSKQEWgIlARqAiMQKC9ROj53PuDTvzJqe4Dc/lkiK3uW265pZ1bAwlq4kQQqDNYE4FxMBPelUcEn9j87ne/S+mFfjoOluOvqnfVj0xNqQhUBCoCFYFxEIh9ya+XB81drVmzZkTG73//+5/85CerdzUCooncqg7WRGAczCQfJfjABz4w8HXZ5EFz2GGHOZ1hMIuaWhGoCFQEKgIVgbkgwKwccsgho3MwTOa9ynvuo4nr3fkhUJcI54fbuLmuvPJK64N+SwYPGdQ6vxLvete7Xv7Ny9etX2eHe/ZgFcoaqQhUBCoCFYGKwJwQyAENNlf5rrOXq4blvdvd7ubTOltttdUwgpq+cATqDNbCMRzK4eqrrzYN+8Mf/rD9bmB7sVxOzxnxq7w0O5RRvVERqAhUBCoCFYExELA1JVvXn/KUpyD3MD8wk83BzNOPf/zjgXdr4kQQqA7WRGAczMRbhO9973st/3WcqkKtJ7zoRS8ySev4q2HdoBDXSEWgIlARqAhUBMZE4IgjjihmRaTEk90pQkcffTQbNMw8jVlKJRuBQHWwRoCz0FseEc4///x+Dc7jhTc4dthhh5122kkxprg62r/Qsmv+ikBFoCJQEdhcEfDc7kDR3XffPf7TbW97244jxQx96lOf+tnPfra5IrQU9a4O1iKifN555zl/oaPWyrMDkXflZKynPe1pLtsLiIsoTWVdEagIVAQqAisaAeaGa+U3ZiVb3b2r3u9IrV279pJLLrFK2G+hVjRCS1q56mBNHu6iryeccALNtuWwU4bJKt6VVwt/9Vd/tXpXHXDqZUWgIlARqAjMDwHW5xeNf7XhyzlMjJmqgcdc5/3BY489dn4F1VzjIFAdrHFQmjMN/TZNddpppw3UbOxszPJ1Qp89nzPrmqEiUBGoCFQEKgKDEGh2WjX7TTZsbL/nPe/J0Nim0qEtBGeddZbXsNwtPlmHsl4uBIHqYC0EvQF5zcTSXcpq6rV9OkOHlIPlFY+q0x1Y6mVFoCJQEagIzBsB1qe9o/c2t7mNz+ZYRelfKgnZVVdd5VO5ipPRtvd5l1szDkSgOlgDYZl/os1VMlNo7w8O48Kv8kjxzGc+szxGDKOs6RWBikBFoCJQEZgfAr6Zc/jhh9upMjB7fKycOIqgnok1EKWFJFYHayHoDcibhRgWR8kAAEAASURBVG2PAh/60IcG3N6YdOc739kBpBuv6v8VgYpARaAiUBGYMAJmsCwR3uc+94lh6ufOx2KqzAhYVBH6CWrKQhCoDtZC0BuQl776Srl51xEf2qT0T3ziEwdkrkkVgYpARaAiUBGYKAJPfepTO58dzOKJtRTh0ksvdV4Dgg7NREXYTJlVB2vCDe8jmk5mN+k6Yvkv07Y0e8JlV3YVgYpARaAiUBG4KQKPe9zjRs9OfexjH8sk1k3z1auFIlC/RbhQBDv5uU1cqz322OPLX/5y28dqu1O+P3jFFVe4G+IOh3pZEagIVAQqAhWBCSLgy4Pf+c53CkMrLSVu9XC33Xaz1f2XfumXSmKNTASBG1GeCLvKxOkMF110kUnXDhTtbYYPf/jDPS7UJ4YORPWyIlARqAhUBCaOgF0rBx988Ai2F1xwweWXX854jaCpt+aBQHWw5gHaqCzmpc4880zOU4fI1waTsvXWW/tElLkrLxIO23jYyVsvKwIVgYpARaAiMD8Err3u2qc//ekj8jqM1Cphe8llBHG9NT4C1cEaH6uxKGnqOeec43zRW9/61u0MXK4yibXPPvvkbj5T2F49bGep8YpARaAiUBGoCCwEAY/xdq/vu+++d7rTncKncxyD5UJzV2effXbd5L4QnAfmrQ7WQFjmn+iAhg9/+MPy989OJaV4V2jqE8P8ga45KwIVgYpARWBTCPCfPPZzqvbbbz8RXlTnQNE8+X/wgx/09bZNMav354ZAdbDmhtcI6vhPvjxw9dVX2y3YWSWk1maq6LoDGvq/uzmCbb1VEagIVAQqAhWBeSOQLe2HHnoow+R1wlwWbnnB8Cc/+cnHP/5xiTZslVs1skAEqoO1QACb7Bx/zpNlQU8GJlqp789//nPpEkuITtNv5+o67V16CPzWeSwg1FARqAhUBCoCi4fAmjVr8iW3/tUVhTJDxx9/PFt2w9rmuNE6mzWRhqgO1gRgtKHKGrY5KtOwn/70p8teqzZrTwk02Im6znCXHqfKbyJtyhqvCFQEKgIVgYrAZBG4+93vvueee3amr0oRLNEXv/hFtoz9MonV2UNcyGpkTghUB2tOcA0lzoyU09s/8YlP0OB+tylvET7iEY8YfeDb0ALqjYpARaAiUBGoCMwXAUbqMY95jJWW9mb2MpvFr/rSl7505ZVXrrr5qvW/WD/fQmq+myBQHaybwDHvC5sHef3nnXcefeVdueyw4lfd9ra3Peiggzrp9bIiUBGoCFQEKgKLjQDDdOCBBypl7dq1/WXFcp177rnX39CsxvQT1JR5IFAdrHmANiBL5l1PPfVUqklT+zUYgUQzWB4gysaszHsNYFeTKgIVgYpARaAiMFEEDjjgAF/CbRugstgi0SzA+973voFbXCYqxWbErDpYE2hsc1e08+arbp7P41BTXlQ/37333ps232KL+nDQj01NqQhUBCoCFYHFRYCdeshDHjKwDLekM2G5W5YOBxLXxDERqA7WmECNIvN1Z7cvueSSiy++mHcVTe1k4HL5WAEHK8Sdu/WyIlARqAhUBCoCi4oAM/T4xz++s8+dVRJSLhP29a9/XbxDs6hSrWDm1cGaTONS0M999nPXXHPNQO8qZXh0qFo7Gbgrl4pARaAiUBGYCwJsk/DgBz+4uFP9ub0O76vP/ek1ZX4IVAdrfrh1c1klPOPMM8oHB7u3b3aze97znt7goNmmXqPooWnH+3PVlIpARaAiUBGoCCwcAdbH21ePWvOo293udsN8LFMAzafe1q7rHJS98NI3Tw7VwZpMu1v4++///m/b2Icp7u677+6QN+7UZMqrXCoCFYGKQEWgIjBHBK77+XUPeMADhmXy/O9FQubMv2E0NX18BKqDNT5WoyidgGUPVrwrvwntDDZgecHQFFddJWzDUuMVgYpARaAisGQImMR6ylOeMqI4how5G0FQb42PQHWwxsdqKKV5KdNXXn/lV/UTxaOy8u07OeL17Yx+iCaYUuGdIJiV1bwRWDFz1SumIvNuyhWT0QtY6sLB2meffUQYI43bsVkSGTLmbN36AS/Crxgolqwi1cGaANSWq30hxwog7dwwedX7L6xNXN3qVre6//3vP4GSKotNIfCL9b+wT3NTVGPdN/okjEU9xUTz2E5hE4bhWIDAFNdswqLxznPkCr4bG3/c/5OX7sngt2O3JizoUrFL61OD9CmRhTzAyD4PVVyquq78chzRnkrutddevKiBO4a1OEPmq88rQ4GXvVGrgzWBJuBXRSNFBrLbd999faaQ7i5keBrIuSZ2EPCRh/5j9Ds0Ay81DQOQW1pKGEg2i4n8+7mKbQuGBwNhsxpn9V8VT5X9zikkL92Ta34aONc2WgL6IKAvqJHeQR+GDXHjCMO7mocqjsO50oyDAN3uDWy/4F1ZURmYRYtrYp8kqceNDsRnrol1I9tcERtA//3vf99XnOjuQP9J4pOf/OQYbOorf+IDGNWkCSHggftjH/uYM13mxM/WhO3vvL1hyMsKAx/v5sRt2oiZt2OOOWYcqX7+858zhL72yqwefvjh42RZMTTvf//7v/e971177bU+bDXXSundtgEcdthhK8bBCgKqAxCwnH322XRjrrAU+oc97GF77LFHuayRpUeAisbHchpWs5ndd53XrYtVijCslUvmjFG7853vvPQSrrASq4M1gQb9xje+UabQO094lJUGW/Om1m09nkCplcUgBOK8MgnHHnvsO9/5zkEkQ9Pue9/73ulOd1p9s+Y5byjRDN5gFH0/wAzEC17wgvHF9y63J93NwcGyLOgzDHou6/LiF7/YQYsi83iC19O32WYbboQzWcbHeSYoOY7vec97Xvayl6njvAV+0Yte9LrXvQ62nUFy3gxrxnkgwAwZ33xWxK/HyP4GTcpll11WHax5wNvJMnhJq0NUL0cjcP755yOguP0DhxSPwve73/3at1AK4dmOjy6l3h0HgQDL353HLEKzi663TSFLY2kav0aiEsaRYdpoWEcrp6rAYRpftp/+9KfzmMUZn//0UNrPG6NCbUzV8ADI1iTNMejjP/rRj44++uiVt9NILzjppJPgsZBWo1ELyV7zTgoBrWlPsN6dIa7N1tDn0kBh00s7vcbnh0B1sOaH201ymcFybVUl2tm+5zn4Lne5y3bbbddOrPHFQ2AeEw9tYcxkuDTutBNrfGUjsHpV86krwVQfJzvxefxmWfm0007jy84j+9Rm4S9eeOGFCz/g+yc/+Yk61s41DQ19hzvc4W53u5tHgs5eCCkayGNGPalhIs1UHawJwLjDDjvg4vG37JIuTD3zPeEJT8iY4jeh3K2RikBFYNkRsOsuZoaDlVkW/XQeUmWW2qP/1772tXlkn+Ysr371q4k3j1nhdqV+8IMfuIRt5gjbt2p8iRGgq45m1BCdWUlWLMq/8pa5lxjhFFcdrAnA/rjHPc5LgpRV6LCjvk960pPq3HgHlnpZEZhCBPKAxPbMbwqq2KoTTzxxCms3D5EyoPE7vTKidvPzO0u5mcFyab26JNbIsiCgLRgmCt+xWTRfitWYgw46aFkEW2GFVgdrAg3q1Rjbh711dfvb3z766lfgdXlKeOhDH9p5Odk4VcIEiq8sKgIVgYUh4L1RDCyL6Jjz5lQcLNuwzATwS+bnqM1bgMlmJHxqdNZZZ33729/GPCjNuxRLjQEkC/Hz5lMzLhwBtsnbGAceeKBZSTqvXQSPFl5tYche+MIX2je88FIqh+pgTUAHPAe86lWvevazn21UzeOvX/uxLA6+5S1vEV/g1PoERKwsKgIVgSEIMC2547G+Z2jmOb/imYqt0t8vv/xyO5a8uelydje8G82yqfSUU05RNRAVD3IIkJtIvu6664IGiDZBWm8vMgLXXHONxvVmqCOERAQFal+2jCH7m7/5m8zmLrIUK599PaZhAm0cBX3DG95w5JFHfvCDH/zOd77jBdf99tvPI4IXuCZQQGVREagILBoC5diz//3f/1VI8bfmUWDyciDe+973PuQhD3HkR2f2eh48lytL6uLQikmtePJf+Vh1SFyuBm2Xu+WWW7r0S1HPOeccb2ZcccUVO+2001Of+tTd77+7XYlt4hqfNwLVwZo3dDdm9OYRTTVNZa1QaJ78trhFdNSYYtLV00AeEW7MU2MVgYrA1CCQlcHMYC1QqPglnJKXv/zls9vrTTU1p1CuXffRj37U+NbEF3ZGA1R5V8bGBcJbs08EgZgkrSw84hGP+OVf/mW6mjnL9IUYtYmUtTkzqVO1E2h9B4oYVQWqKXhmXbW62SdrXp3jJdJ5FXYCRVYWFYGKwIQQ0D29l46Zh3i9deFcMXEQtu+TXn311QvntiwcmkHs5qtuWHvD29/+dmOaGvmNJM0YN6/AZtfNEsvSmv2Fcqe0qVb2/O9ungSyH8ulW5vJGXj9yEw2pTpYk8VzKDcqKwy9XW9UBCoCy4SAjpldQWawJiWC2Zp3vOMdW2+99aQYLjEfMxwOp7WZ7JOf/KSiy9jFs1qIJBNEeCFi1LwVgaVBoDpYS4NzLaUiUBGYUgTswcr5tDmoaSJSOgvbvparrrqquCYTYbtkTDLp7nXI9un/C/SuZIcwQGYUkyUDvxa0YhCoDtaKacpakYpARWA+CLD3/AkL+hM8r84MlmMaHHAgMh+ZljvP+nXrLRv5mucCj2Zo14ODlRms6mC1YanxFYxAdbAm0LgGjhEhBYRgAoVVFhWBisCkEdA9rRLagzUmY6/CZTvRsI7Ph+Cuvetd73Kq0Jg8p4ps7bq1H/nIRwBi47O6lNARMunZ0DOMpmSBla1pdSQsgCxvREMME6C20TBk5ppe3yKcK2KVviJQEVhRCJRjmbLVfZy6mZ1CNsJEuWsH8RlnnJG3sUZTjlPiEtMQ/n3vex9kcgLWwNK5mJwqt8Y8M8k6bNmDlYxhO3PgDESjJlYE+hGoM1j9mCxWyiaf8Bar4Mq3IlARGI5ANmB5X72Y/+G0zZ04BDYnlR6dSCcXtwNnW9076TNxaarp5JNPbrtB/WJDzAKiMOa7gdDIHixZYFhCP+eaUhFYGQhUB6vbjgPHyi5Rva4IVARWCgIsvapYCxtzBssQ8chHPtLUTnsDeAcMq2YInJfNTencmolL53iZexvtYMFNHQ8//PARs1ztyuIWF3ZM+nbeGq8IzCIC1cHqtppRwAbPkmosMPI2Ly2vX+83cefvISuhECcSMpQe1NAksURcloztxA6TelkRqAgsDQJxsKz6ZeFvk4VaPjviiCMMCB36dr8uPsTnP//5vEtYUjbJf9kJVOT444/P2UgdYdp1FDd39eIXv1jVynRUwOzkyqWjSh0MhgCAAwlq4lIioPk0HFvGYMWipXSJjJfpyRi73JWYIBcy9P6kJLKUYs9WWdXB6raXbQeOCY1WuefKG0bGGhGJUsSd0m4Hawke9Qy1yULh0Bt3hOSikTytttPWLbJeVwQqAsuHADuhcJMr+vg4UrA9d7nLXXwOSx8fRs+ZwI0z8eMf//i4444zCCz8JPRhZU0qPTionY9ef/GLXxxH4Ec/+tGqGaO7STHwB/KYxJvkVgnmjUCjjb05Am3HlsWisVB5YJAYy0UBGDXh/67/P4mUmcvF2CnXGWleg5Aiuz8tiyz6M2+pVmTGusm926y05Bfrf0HDRLxibbjxvOXzgl/+8pcdzexh9Jvf/KYNCu0jc1A6D3e77bbze/e7333HHXf0wRzfdRLBJ4FOCymMXnZLrdcVgYrAMiEQZ0iPzmascaTYdtttH/rQh5566qkjiA0LMUv/+q//+sIXvpA3ZgSY5r5PWsPdFqu3sL1dhPwA8VsGrv7K+jBw6jiCpuTy5AlkT5uGxJJYI0uPQBwjLauVOUb8aUaNgbvssssuvvhiTrCPcvptTzRutdVWd7rTne55z3ve8Y533HfffXffffe73vWuaByl68R/JnPpazETJVYHq9tMzShzw/+tW7/u/PPP9+VmBxn73OmVV16JzkBsHClDScbKRllXr/7e97534YUXonGJgyCyzTbb7L333o9//OP9PuhBD+qWVK8rAhWB6UDAAz1rMaaDhcxQ4FvOp5xyymjx42NdeumlF1xwwf3udz+5nNqQcWN0xmW5a2RrRrMtVh9zzDHmKjKUkYTYRR4jW28I3PCseMABB3z3u99VzUIwIoIhkHGrDtYIlJbm1mc+8xkG7r/+67/89h+HG/tFkhi7/NJhLSikuflbO++8s49D77PPPlyuGT2OZLHR3twdLP674ZI+BWie+7nnnvue97zH77e//e32yNJpCXqWFMrnmUw8KX6lJKPHtQ/1grsmtA455JCnP/3pe+6x56otblyJMOLka1Ad/vWyIlARWBoEzKzotjakW/Qfs0QP9z6Rm44/OgtrxPa8973v/Zu/+RsTBqOJl/cuEEyzffzjH+cRGsQS2iIVB9Qt6RC4/e1vz8HKZaHMSFguSwQUP/rRjxwhJlKG3HK3RiaIgIVpc05AZuC0jmb1Agc9/9znPkcVP/CBD5ipGlFcXKhOO+YSt0Qs4wgY0urtt9+eMvz6r//6QQceZG4iS+d89ERGFLTib91o6Vd8Vfsr6LHVsxQtpHymSf/4j/94l1124ZLbM+EjXOg7GtbPYXQKXSzBmPWa17zmwQ9+8G73301EB6B/svOu8rYOytHc6t2KQEVg8RDwqDMmc49PfKb73ve+HuLHycIPc+Io/tyy6e/mDHCBIsNXqSO7206xSGrwHH86St4ZPde+IDATEU4VxzfGi+7xcqwAvulNb9pvv/0sp/zTP/3TJZdcMpGK8NgoAK3+4Q9/aLXnaU972s677PzXf/3XlhrxX71q9URKmWkmm7WDde1112o8i4C/93u/d//73//1r3+9l1zSnJTGaBIFWngDZ1SiiyIXXXTRn/3Zn9373vf2RGtrl4fmLbfcUmdwa+EFVQ4VgYrAXBHICyhmr/XQcfJyKWw9EX75l395HHpsWbgvfOELYx4DMQ7PRaIxHJ1wwgnDmBuj4mMZr8xmeRZlRM1IqaCUEoZll+5hUhhBUG8tHAH6qaU0B1Y2t/z5n/+5PSqmD+x1MYMocVLLeTw5HnPKErFHnp4zo549rNVcfMnFEoWF12h2OYw1oMxu9UZLbgnvuc99rrlNew6MLNwpg0UeyESiN35HMxnnLiYJIab6ivYkQRH5+4Zds1njLDeMU1alqQhUBOaEgEUN3bNM22wyr6cvMwTMSRysWLIRubIy6Lt+t7rlVB9PYCA6++yzbScdUZfc4lGZF1H9vIO2SQQKQ+YWbt4iKik1shgIMChak2u11157/f3f/721PI/xZfpgUo6+dsdWWTRcD1IRWiHCkjr+zabD3/qt37I0tBgVnBWem4WDVZybMoZy5H//93//Xve6l8/F82wEusIfL46OJTxN6DJ6s8DmxFworCKPJzle3T/+4z8+4AEPMH+LoJSymXv9BYcaqQgsAQLZKZKNR72euokfAwUT5RnMY3q72w4T1TObYEf81T/eMEE+jHJ5052baiAiw4j6R0KLpM961rMyoJVhrQg/LHtmv1jf5j3tVigZa2SBCNDMcHj729++66672otiZyFvWFikicOwLS0eG8rfoiHmON/97nd73/ClL32p6WGC8a3RU4MI2VKBFetwbxYOVprfjitjoqb98Ic//KhHPeotb3lLmnl5f2khH/8v//IvzeLmPcT+AWt5JaylVwRWPAI6XXn62mRlM4wgs9TiIS0ddsSyC/PmEY6pc7jUJpkvIwGv8fTTT+dumqIbJkacUXef/OQnhyYv9Ayjb6ezrAKcvdjfTq/xhSPAusGWH++0Ba92HnnkkV7SWhZTotAS6Ibwt3/7tzYf+y6njsO9Zo7VdzOZRNhcFF1zNmejrV1L82z0M9JRx4Wr9QI5RNV4/SbMiMTHevWrX23abMRgvcASa/aKQEWgHwF90EO20b//Vn9KNk1KF7FxWIRhG2EwPNDj7PF9yr9LaBHTiAQKovbXOil5kdAhqz4W1KbJQ2x+2+ntOLuLud0RFhbHoW/nrfHRCNyw9gZqZjXQoQlnnXVWeQaYBjNHcnuzHvvYx1oxZN00PVFveYuhh/SOruls3V3JDlZbt/Rtu8spnzlwR6UZJjRzaSrx3jTqTY54KXcXL0Kq+PiKIAC14+wfeuihmVBdvHIr54pARaAgoBsaK8afwfL8k9GDGYufoRcXbgMj8Usc4Dnw7pQk/ud//mc2RbTHxo5s/EjzW1YAnAJQyIxdMOyETsZczgnngRxq4kAEvMd32GGHveQlL9EoGiIusjXfXMqijQZmXOxEwqR0XcCqkROznOxAhXiEKbpo0WJLsiz8x3piWxbJFlhoPOVolenT0047zX52E0Wa044/zEOQUiRqfqqQgdIAaq7Lw5aIAQUTd/1Si3vc4x7eN3SgrQMdioTu4slJ9/u1r33tiiuusJ0QcXkQRJCpdS5U2+0rHESkRwCz9Hvuuad3Gx0u4slY4spWwTYINV4RWBYE9HRLeHp97EFkGNbvTFxlYPH6oU8dmxSXUVc1YgwUHh8Di18DgvMafvVXf7UstA2kX8rEMrx4/vzUpz6V6ncq3r5EoO4HH3xwhDRqQUO8P2N/SrKM78guJQ6zWxab4lAhZ1A5MhTm7Q3s4mm7tIXnAcTiG7R34xoObWQNvRW7ww47OK/R4SM77rij33a7s2veeXe+g1+vQWh3IWxL64u0sxRIJaIURGyDsYJpmkPHKRmVzlwW+pUUWbEOVpRGoxr73vzmN//hH/7hbW9724HNn2ZGSWNCoL2pYKb9KZwjmw0o1u922223hrjZonmjbslS1pXdlddg6tBbHhKv7rzzzjMljhtHzTMfniPGl0YHe7Po3q1ds2aNjYoWIMZctlhJSlnrUhFYYgS4PoLeN2a5ZSTx7OSh3OGcRo8ReY1CueuMPdvDR1Au8S0VSa1PPPHEvMMf6ztCDFkOOuggcDHYBsI2ZRvAAlGbQHzEANihrJfjIPDZz37WokdmDTIj0M6VFtEW9FOTucUyslD0lqmymLP//vtbvPNCKOvmK0k3X9Us7MTGla1yEqMVHiHkdcyVg+CdAu+3c6SW4jrt7rKtFZjrC9xBzzOmPEK8Ur2rpiFUfkUG+iTQIecgmCltquros97KoEZNkFIiiXOANLZnMh9a8mDKPQo4WFGsHssN778kRWIbPYmU2HODcqWL03vPrE95ylN4V3N9bCU2Fw03bEspkSG/JbFGCgJpEQ9qv/mbv9k0+VyCJZJOg4btCsCcQjJspSOMg4qu4VMYBdiVHdFPPcF3YNkwTPT957XftTc0c11+9fF/+Id/6GTsXLYZmPw21S2vjNMAaSpCGE+SxC6iMqgDA5rHPe5xJM9ciK4BuoEGMqzaTALL6173ummo+AqQwWBlyCqdmnfF5QV7R/1KsyYdAWPkDLPjjzvewmJMFVZ0QJvSB206DBy30DBJ5gtE5GWhXvCCF/gOb9u6tRtdvChVZJPCwjK1f/qnfzqsoBWTvmIdrLSQJtSQUSzKN9rBQmakoHz/9m//5vsPsbV+qRHli1ZFHcM8dpdGSgxx0mle+xIZAqPqH/3RH5l3JUbkGf1LC0kueFDIINguNEUnpf62EQjymqA6WG1YaGB1sNqAtON0xpu8+n7HOLUNQzvedrD0zY997GOj+3I7L8q3ve1tSm936rYwSxy3a8IUuydJ1W/bQvGBgfz/8i//YvrBEJRa2BHRwS1opNZtJkn3xLvEdVypxTkEQasxan5hC3BoB+TOb9pC4t3udjfHXDuRpG2hgk9bId01hMblEmnf6oDprhRzn29961sdfFXKbbe7eATwi4ArRuZQMtBRpA7bFXO5Yh0sFuXFL35xae8SSRuXSxEeVbYROF393//9322f4p6PUKnx2z5uUH7D0GBEpXwex9NGW4ZhcarJx9KRWEccMq612Zb4+FKtbMrqYA1s3+pgDYQliYzEl770JR2tMzgUq9CJWCDrjA/s1jDbpmu3syM78MADlatFdN4RUi3ZLXXxeleGoLaoJU7mEoyWX/nKV4psqgA9O1PbI1jJKFIyisSsHnHEESV7jcwPAa6PVz7hmRCQSwtKTDwP85lbMkFrTYYd0WT93tX8xOjkIpX3ZJlRAmh6MmyzzTaZVCtqIFFHawvsiPkp6Qid6kzkcrDDm+aZ3V8NZt7+n//5n1Uh3n2pC9RKXERL0zaDndf3LGbr/M5obua6tmj2vHeI2xnnFKdtGMpiIPYmrQ2DjooYh4OKWPa2Vv35z38ehzIbPE7eSlMRqAiMiQDDE6szDj2LtWp1895ciHXSfffZd8y9kog/8pGPmM9mZsYpawlovnvld527PWZBXvHxfo9aqH5z9tK6ZnpeGCe7wRYZqMchrjTDEAD+f//3f3thsEMQv7Zpl947rS55PGhcOrTMu3tMD2toC1QaopN9IpfPeMYzbMxyrCMbatrCjAAZSk9RBKkinjhn3a8lY4cT0aWJCDBtTFagg+WMA69Dv+xlL6NMNIk+adRhuBsW99hjD58J81WBzGMVyuhruVxIJBpG1QR8vB7oi6rvf//7RdpL18OKMKNmyZyPhQCrEiLhBOUcJkBNrwisYAQMAjYSsVtj1jEP5QYWPbFxNdb/4olPemKZNhiHiS/j5lsR4xAvKo2Ttb2OY5Uwg2QZW4YV6iwAQ1axkYUs2cvlwAjEpNczaAaCM2ai522u0rOf/WzniA7MwnGPfmpKBPb8sYbCjjvuqOGoOgKTjgPzLjCRwW2ePVat+n//7/851tGH4OJ5D/Pn3CUqN+sv/uIvTjr5pLxjsUAZpi37SnOw6N9ll11mykej5lR+KhVVGwi95wDji8287o4gG5h3TokGYiIJzYjc2+L6+IMf78Va5+i0fayBwzQCyuftbm8XptBxhrM5iVeJKwKbMwJzmlZJh9WR81KVaZyHPvShc+qSRx11lH0Cywg44QUC3PqXbm1PGKM7YvRrD0pPetKTmOesAZlT9yevME71U8ScoF5GiKaz6KuuuupXfuVXGAKAw7O0Y/CXEi9WxHzBox/9aI/lHs6RIYj3o16dVZ3J1jTzFBy7T37ikz6S09kM09YTWkSXPGkQ7Dd+4zcuvvji9jyWKgiTlW3pua0oB0vzmJN8/vOfD8cMHyIGwTasGlgwIlgKdA5C9mlxwtDwftqUC4+nLL9Y+VVKCnLJc7fKYMXQayA2v9PCKH2GqvaIhlgVyOaRxfsajY/W2zPod+ESVg4VgYoAm8Ri6ZL6YOmz6bYDwdFbfUU0HZYNQGl64D73uU+xJfE/kpfxENL3S/e35cvDlfnsYkJKZGCJE080BWVUMYXwne9+5xOf+IRI2+Hr1J3YhlO/Dmq2w0bF24OPd/vvcIc7dIasgQIn15RM3Q2UcJoT45g+73nPcxIVOYGpUahNNMdltMtl1knsuDr11FNtvZISXV2y2tEfhXK+/+RP/uRf//VfGTWiCtErtxKszIhIjCr6sucP/vcHhAxxpA3lkkk+8YJWlJFOi3oBUMsVpLRWiYsY7ByIxcv2RULT3XG3OwNKm36x4wZlr9XQwow+PHoq1ZGZDBJ1m49+9KP2NrZrt9jiVf4Vgc0BAdaLz9Hf7wbWnS8Sf4JJM3SI++6HqZ3SMbOCZmzxSRnbAOxbsg8h4UEPepDP32677bbeDvaSvAfCFLHEQ1AMG8tn8cj70WToPIj2V5wT1r9ztOHTOzlpHPkDWj4P3M+/poxGgNaZ+DzzzDNpKSTbupp44I1Fs93qr/7qrzKbNZrtIt2lWjhz7w455BCf7nGOgwcYKRSmXWJRG4ZPd+CQuZtElB3idsZZia8oB8tZeV4WtcYfVRvYBhwaKuhgQMcDRhdLiw6kX4JE3eNpT3taPj7N+eNpeeDgCNKzhMhA2/hYv//7v08R21OpSyBhLaIisIIRYAzswWKNxjRIZcJGVzXUNL9brNaFY0IApfM6FPsud7kL78qLVDp4MRUi+vjd7353+z5NYHPszEyXu0sGMteQkMp1Sl9cKxYupRtzOmJwrTIijTgitT9Xh4lLOCDLa9r9d2vKMAQ47qBzXLsVN5GB1k0jsg5uaSwP4VZmqGUxcMM4L1660sOcj+VLzz4S4KEic2wDCyWqWeFjjjmGxz+OLg1kMoWJK8rB8g4giDVP/x7MAr3nAGejObHD+y/C0g9tRRJyCi6Ny6T6tV/7NYNd9o3pKgMfKElrgl01bftYRslLFWqkIrACENANs/4yZp/SW0utY0g88Dia2EJh0m1A4YTZvcuiJLB8iSjLjJG4V4l9nQbN9nfenmnJWESAhMJ/kSI5gf3cc88lRkYhAgwry3DKbDv9a6feYaRtMnnDitjt9IFxWKFX2czTD6Spif0IUB4gWxz0jZom3gv9ZN4xd/ef/umf+MGgZlYYkXHapZ/VpFIoFc3R6DTHlC1naxjnGD53f+d3fscUSXRSrUUSH5ZxytNn3sEqCuQol6zuDxsp6Bw32Z4nc/VaZe26UW8XTrbZoiI9VblRXfr7yTOf+czXvva1mVwt9eqX5IwzzvAS4phP2/3Za0pFoCLQQSDfs9I50yv7+2abfttttu10T4OJqXHf1OJmWQGMa4XGk5LAeJh1dgbeN77xjUyVsTrMoY6M0uyXySQ+h0e+Um6Hf7v0icS9+oiPPTpscEanwrbIUFJEzGD5HMWwodX5yeWZtsOtzcQIjAMCmCx2BdvlznqcerzzmHd++tOf5pcPawJ1hCrz8cIXvlA8jYh+eeuuxQnPVInstdde9M2ieWTrKACCBK9zOeWB2C51jeWVf+Glz7yDFSfdEVZOlzFsjUCEavoQmOew0Nib2WnjEXmX5pa6/PZv/7YeQimVOEw8Y7HTeKOmSyNYLaUisLIRMINlQB+zjre45eAjrDwgmdziM/EhsrHJ4o5pKrNEzs62N9krYNwsa4IiHtM97CkXzS22aD4UfcPaGzyyN39jzAaNKeoIMgWedNJJRkVhBFm55XusAyGyB8sz4ZhMcFM7tVbNwrlGRiNgUfXlL385N12TBcCBGuJlqXJgbGE4wt8tNIsaoRh2KKYIa4VvfOMbc5qjl8yGlXvsscfyJofdna30cceUqa0VX4QO2dBniXqYkCZODQ1OZLARNTQUlHe87MrXEdgDhzk2R54WL7BDkEsqa4z2BWuPvAMJamJFoCIwJwTMYLFeA+1WPx+LL4YU3bDsWwrNox71KKuERqTw8R1cfpXHd5eGGl6IjIKZBv3Xco9v7NgMauorY9FSzkn7eq+3fEg4ZqH25j/wgQ/sQBGnytCqUqny6BFVWQjkao7d6m2N7zCslwMRyKfbBt4qiY95zGO8LAXeMXW4ZFzsCPVon8prHtS3TPSRES+T6omMID3JU8piS7io/GfewdIYxinvKYyAyfT1wx72MKeZoTEm2jCRgSC/IzIu8a3IY7SyVT8Ovt7S32FM16N81atedcW3r+i/u8Qy1+IqAisAgezBGrMixYXKjELJpVdysMyjG3C+/vWvxzzooba62/NuG4oz0D072eGuC2eZzLZLe5LQxEe5/obrba/ERyhsFyPCv3nHUe8gRhlARpTolq8D9YtRnDOA9N/tT2EyU8qc0O7ns7mlvOENb+hoWj8CPvLm+VxDlEbpp1mulDQ6s0vndQrHkO69994RJurnN5EkIvvABz5gq/QK+HLJzDtYGsNXcYa5uo37vKo5bupNb3qTJ0itSAUNLmnO8ttu3UXSQko2MAwszi6xN/7HG601GHY7BJhkJdQqgw8/uUSwIs/A7VS8XlYEFgkBi3S8HMzTm0ophoUSSqLIHe94Ry4UYvPNzAa/wSIOY8Bf4Yi45chEGVFaMXRwlNcJ7XkX9/6gBzxbfb1kw9/Ske1KsT1LdqOTwDougYFkrYlx+hmnlxm4TsXblRU3x/bEJz6xk+hy9apmiwwEEIiMZpLsYEFWHaygMfoXsAhe8YpX2LcXQwa6dnA3WmdNjY5lh5a5yX62UeP+9KVMYXZ1EEquCkcffbS+kz6S37YkDJ8+5fxbHbOdPovxAY0xW9X41re+ZZAaKDPli85ZwN55553L85MGRt/frgOZLFeiM7qsWBusR4jqZIdMtK4AT3+5cK7lVgTYe4PDiI7WgajMYCWdn1SmcPbff3/eEsfFgx+3g1+lb8ao6MvFoWEvHd/gwU9e201Sup1YBqVNzlV0hJnHpfVNL8PzKdvPbyPGQ897jlHtL6jsQW6/VtlPVlIUkbG3OlgFkxER8HpyNjVQaIJeuRShZk5/ZSyKCbAe1yaYnniE1xeIxBw7qUtER+BpuZW7kValXFJRS9jTI//8JJnSxhi/Mq9//evTZv1ZjGjGL0OezafDaPpzTUmK3uX0UaNtW/M6stnK4IOGEkfQdLLUy4pARaCDgP3mc5o38iDe7MHqfedYP/WczVOJk8SjskqY5yLv1rlUltNEPQiZcnYGsj4b+yHdG1VYvfvd7+afGanir+AzwtfpSD6/S65VzDbzhsMmRw9f8C32u79EYqvmJpkkoydetQN4iu7nVlOCQHTA0QY5t30gLDCkLRYQi38/ZisM5LaUicR2bpx5XP1I1+tYZ1Yv1X/Na16zlFItRlmz6mCVMcjwlM7PEW4DpM3yvPiHf/iHmtB0K+XTrrOiguqy6667/u7v/m5b4HYcgep4KaNd6xqvCFQE5oqACRXjSadzdZjwDKSEjD3zDnI5i87w0uygcvLB+vXGGU90KHlO5qisCYrzJ3hX2djOx7K93cxE3CwnZnn9+Zvf/Ka8KIulFJ9siGzhacnJ5nrxsrOiDKcDC/XxO6+wDbwlUd4xZ7AQx6+qM1jDwCzp0UbP2CWlRKIqLkWcGuWbymm+0Qpcsi97hLQ6i8ePV7/61aqgI0T+IhivS6Aq73nPe0rijEZm1cHy+Ggssxnc6OaBjG51hoBom4+wHnroofq/xywpSUyk8zuF7adqjmwgvME64kURGwXtBZ7+V3th8cblKYSlilQRmCwCHI6MBiPYlodsfY3nZCFGliQmrxTBk5zvyfC3bLQyj2XuyvyW6auyxwsxf4uzxclIt7Wjy3kN2W5ilVBkMY4waPy/3tlX+NvdwoCVyhpLSrxE7IOR7ql1v/32U9/O42shQ2OYGt/BYk1xNo1XONTIMATs5BMoTG+w3/AT78ovo2Di8A/+4A/MIwjIBvKJcuZ3IMHSJBYxUlwma32Fes8996SKqtOuo3gccarlbHdZsh1taUSdbCmz6mA5M0YjOddKG2iPflBMuUs0A1T2NNj9N0wL+7Mvewr57eGwVv2EJzxB/1FHwkcL27J5BrVWndG5nV7jFYGKwJgIZEKl7XP0Z4wNMO4zbBwjPTFzWoVSij7L5fL+rx1LfpFJ4V0lL0q+Rabb9Wh9lgeGIT7nnHNOSjesDXNlSkHziJDNaEk2/g35jRiKFuE5DeMGE5KQ3/ogsYeRZUQqBx0NI2unK7rOYLUBGRhntpwmzUGHcCFox+mPk8kYCN4tdSo00x8pVlgVvNpPH8rTSxFeYuL274t4bim3Zisyqw6WZ0RnzJx33nkcrGGIe0/H6FDGwand/TdQ/jzd0jw+YvSvVKRNr2vxMuN7tdNrvCJQERgTARMqjQvSmtTpz8g1kYjGyNM4WL2PeOThzRDkCVucI8UwmFfwgdt+DjKarBJ4Nu6yLjqvrq1fn3766Y51kJhen6mmfg7zTikmjYT21CtLitJHv31sTYCPZQPrsHJxUHfy3/JWYx3TED4gMoc3jGdNLwiYvInWlZTSjlJoke/S0h+KN+LQzpJ3CiOeLvQUq+SdarZFZeItoKfLtNNnJT6TDlbGpvPPP18Pj1Pfdu0L9LYOaMKilCVSCKY/YkB0xF9ODRkmv+HS8dD10NFFbc2BCraoJVbmS4bA+BMq+iMfyK+nNb958vHLJZLO/eJwCEYeE1emfyQyfqE0D2TGyNaT7bbbTl8OJb3KIMaQqK/xanxh5ooPL5CTd+KJJyplnLyEt59sxPfjmPYMSijHYVho1FHFhZJSIx0EvB1vBoFGdYb9nIjB4WAXBBjGx+pkn4nLqM3zn//8Ec82OpEPRfvl7s+iwozV06attSgZrTrzzDMJ1nTTQR2VXvrmpYbhjYUmv9NWl9HyGApp4bOf/WwrC0bkgcS005eCJv7UO7CszTOR8wp8Pdwb+B6+YxEze7F5ArLCan3llVeyWHGehlUtNsDsi2NCC41BhtdiOKIS4uZydFiXpql4UdZ35LKCo/O6i8aMkeFIeohTaDYwZT9vJo1G2JtS9FwjameV0MSbs13EZSeDUCK5LL/SiecL9CMKMr+lynj6AuMIss4tENmR1h6TZ3Fk7lRq4pdf+tKX8KRvLF1pFBFaRMHYNUYh6ciaVhhkBCcu1WQZGlcFn1eh8OoykDltsUOREaSNAwmmPHEmHaxgyqsYAe5uu+3mq6s0jzqOIJuJW7/+67/OwOtsA6XV2SwxZNAcSFATF4KAkesnP/2JcU0nNxuRjSnMJNVaCNuad3oQMKGS7jPsGYaoxYBRA8bApV9OttXBW93yVskoxV2BkqxZs8bKYx67HdzguFE7FjheUjLxg4btxEcKK3LZZZddcMEFLk0yDTM2C0FMEZgff8LxptbafEaUxaQdfvjho6fGk12V2zxHx4nRzGBt/Oqiy3YYnXfzuWtIH6iNFNVYBAe7X0rbAXAWkeHxU0tvQXpffpj8Vg//53/+x28mSoaRTW36rDpYFsW+8pWvjIDVy4P8Yu03uy8glNp5ArZttnSnki6ijrqco1ZntI+16zITcbYE5pxdfu1MCFyFHIFAeo1ZScbMWDHiKSW3ND0HKAz1RzqAQzMz5MXzjdNC3CZKYusSz+nCCy/kTKCUC38zoAIDyXex9CZdLtNa7prH+uhHPyoiZWBPH1GLcW6ZNCKt/ZpjzgSo6eMe9ziDp9oN46/WIRiTZ/joO3mnsrBV38WocuE/i5EPfehD0YR+NwtWe+21V96WULWQzS6AZkC8eDuijXQih4FloncE2XTemkkHyyOg0wmMU8ayYbA+/OEPp5p68ogBYljeaUs3kHkgHjGKjd6sOm3VmSF5DF6kvd1WtzNfxT55+qdURgQWlPmcoYpUUQcioGdJ5wP55QANpOkkZraGPTMKxdvGxCV9iM8tblwyfe4NLzQ203zjG99w/JVfpgJZ1n3MYIWzFPT8rZNPPtmBEcVwdspd4CWpWCk+nGGTwCW02aJxmVuEZPbiO7Zp2nG1c1qOlGCSvGHSJkscW7dyF3OJ3uoWGRP2foYrNQVQqsYR99vv9Ec9fNo5GK4AEOj8AQccoCJ0o6hliQQEk7szOt6ONaZMWysaj0wbcjhYu/TYtoTu6vA+76CRctBf++4sxtXRttmBr1rEAzBojp7Pm8VaL7vM9IcJydM2TQM1T0sriBv4ilFZdjmrAPNDQPuyUgZum6I0aDl1EzeXhhG/Hc50wNSO/ig49oXb7dIiWh5+KEbmy921pZ2DwouiMIwl5yZPQbxzr03d4x73wFywkRmxfV3Ivva1r1ko1Jc7hU7kkmH+4Ac/2M+8bcnES1k24xtzXKpUSexE8i1CiTnuIdkLPg1GrY014qkyDC33/O8Pm8Pc28x75IM34nTKXdmXMPnEJz5BJwdWk5bC2dk95Xm7DfLALFOeuO0229rPw1KXihSdLBrFwdKVLCtPeV36xeuOIP0U05ni1c1252wLqZ2MX54IM0SmkdoEMxf3ZGxQNh4ZvDrCl9oBpHOrXi4QgdLP8Ykju0CGNfu0IZDuY4lQ5yIb78chC9yFMo1UBn13Ey9LFWZ3ktK8QniLDZtwr/v5dZxyxBh6PYrntP322/skTgk6shTul9HJ5BZ7iRIfex54YOMv4c0VScaJg6XQYRmLtpMHmS+ZFBByqz9jEOBTetiY66NsZg37edYUCFx++eWsG60w7ETHCiz8KlaAFmW6tKTPboQW3WX7uzDZqUKnvhI9BQEkXXXmqjmrDpYJm2HTy1ri/ve//4rxrqJSPpYujFCvMoOVZ+gRlPXW+AjQpWakayxgL6yqT9jjgzcDlBm1fceGJeNPmLaxIV1gwAROQ7wfNTGeIDZlZaO6yzjcdMMoJJGP5eM5ef4xS8THQmyJcJdddrG3nUeV4OvO+MhirdnKCMcOpfDDH/7QLBdnywtTnf1JkwLxqxd+9bTTThv2UNouRXVsBSvvD5qoa9/txFXZKiGrz++Uy90xH0XUvdm/tbrZvpa+1eG8GV6CDhoAN5iLgwUI+W2jQZdG24I28UzEdR1L6upO2s7KgOrrIADJ3ZmoTlvIUZ2nTTdtcS4tkfo7swHRIJIZ+Bltkn6oDXnqpVKG5v67SQkgqjy7h94Oq9qSpXcG+uZFp94q4ZIJ0C5oxWhvu1JTFS8Ic4nEOVimvfk9Fg11N2+Mbrvttua0yEwxpET4HOro0uDDFvqTN64VsjzXMQnRJfvEfXkwcb+yWPrhTkn0tZzkQmwBMcJwO0a/HL1JAPFJCKV4Iu9617tEyuUIPqrGyPkQr1VLso2gdEulLBRiCyi5XBag+jMig0BCZrDQjyNSP6sVmQJty82OWLMcMQyZYt18VWklgeB5hmKodTpFqVpwyJReSZyhyEy+au5Rz0gEZZ1TA7Th1jzUtLjD7VuzG2fpDV7mUUdUIQ6W7tcBZESWemsEAnp77nbwpHKCWyUykCwEuVXibVbteCHrRDpFlLvtvO14IViWSGBJ0e14UtpyJt5P06Zs323nHb9qbQ7teDjEDzD1Ym0uD82mpnQfu9H9an2z4GZlLNvJG3eKGMYW81I3clh1oxqY5lx9s2YFH5nsMnK2MPF0VJbDPCAZu/hYfJeiYDdy68WOOuqoNWvWJNFv28UxuGEuSG/XqB3P3ZLdLWXJ2P5uLpqSpUPPxST5i170ItNRgUi9mvOKet8xxLYtQ0pBIGIN1InHsggALAIU/imxlAuHJuO6cd8tKAxXdgTOq2++WhOkmgW9dq2dOgbhW9x6RTlYO+20kzrqLBSjXVlxIJjxzVQx/RmISSfL9FzOpIM1Ar4MWzYjj6CZxVu0aqvbDf0imBplIPY8vfoW3X1as1jfZZGZ8rAl5qtTusGOtSibSecqUnsgKPFiYDbJLVlKxg79+Hw6GRfvsi1qO15K7Mg8kKYQLzzS5t+OF85JHP0KYZGZalCG/ilkTMIHQVwNbpZJnVve/pZMhSVCHMyKpVDZ9dN01SJGuSWC4Oyzz7a9Bofmc6urmw8IhiCS+BVSonQRlwQLTeeXa8VPsj/s3I+fazd96JNXrg6xS4nQUOgRRxzhlwwb+sIqnuONowqyprIbn2wT4aQSQ7rQzzkp7UI3wD5y/XEYn5WanuVjtRu9v4rfD+qC/8pAo2xt7K8OTZTY3/X6KacwZXDPnEJBxxRJM9C87e6w3Zj0M0GWYc722xHSGkybPQ0bnYMRlPXWMASMa9ffcD0YM8A13urq1Vn4oFQJw/IOS2dU2mEY2cD0dsZOfCD9NCR25GxfDhSvTRDznN+BxHNKHMY5/LWyBkWTDxGKzIl5iK0tFlvI5sXscbP8idMcy/oPe9jDbKtK4HIN9K5IknS/vDG70XVkiSYqyJm/VCflFmmTOOx3w6aoX6zPF3MxJFU4iCf013q//fazy4d35R/OBa5EUnThU7J7DjH94HJgBQtZiYDdWK2aalcSN/MIVGEIYYM5KDRQPyBAYwhW2Pqgapo/Vl8KP7DW/TjMSsqKmsGioEYBvyPc4VlpmH45R1fKQG+3aftBs59DTRmNANsg6OG0yEDWzF2tW+iTU/t16zHftGqsWm8irZ23LTk+RqLYs3b66LhKjSbov6uU/sTRKXOVOfRtg50RFvgLHGqTvay2dMSGoc4C6rJ+VwgyhpTL/ogFC8ypiuxaAUrmHkQkJjQtuHGOx2cY3vnOd0rBJ7/tSJgnXV4RRxi8973vddDRbW9z2+vXX3/NtTe+rq8IQEFGZxfh/TdZ1v/i/25o9pD1t2+O2lLBU045BWUb5P5KlZSnP/3pUS31Si0KRJjwGlU2Br5xJXtB6dJTi8JndCQ8Zcm032jizecuOGE+ut8xBCvvQVqlUndabexdMS0+8w5Wu1cn7jcDxIpppFSE/nVq1E5p49Ahq5f9CDA2zIQZCIbB/lyvzfvNcT6sV26xZFB1CedAnUg73s9ZCtNrjIh9chl6kZyVh7lCS2KHgxJllP1n1/wMTb9RNP4yTpGNnqPvp+nwdKlQUjHexi+7uVNfYhRKJbprosVvYIkY0auB0uYWDnEHAeVVuPJuf+EsghLnFJe+CQolwjxMxNVLUBAJBaVnEiXZC7eBkpS7iUR+Ul173bXoE9xKJHAp1ySKbezFI4wkaEJpFgHIO+ywQ3iCxSUJ7f4OB9WRRYqKk99dIJfsckmE+YMf/GBbQl1CgGB+cY5zFs7lV97IcMIJJ7zyla/EzctiKAtBA9D69bLDUEAMIncjRiETiYTejsTzrLPO4mVGsNCklDZ94koUcUCDmTZxZWkFBXFGk0UKAr8mekWU4t3JuFk2byEOn3ZZSfGbxFK0Pf44y5JCC9lmHoEPoOj/QAxXMDiqXHRjJVVz5h2sdmOUUaA8crXvznpcpfS6YVpouM9oO+vVXAL5GYaYCjtzOQRCPjIoYtqAAB4QWU22LWTji4TejAL7ZLxgP/y282b0ZFQ0JYPUviWevD/92U9l1Jp8oA5B+xITErK1KJn2cYZjpasme2ZiQ0RlcSg8GVFOj0UlDgdnQhXIM6bxA1ccJpUakYXMIMWZ2CiJ4VK5kSE+gbi7qR1WW9xsCwtVRcgxIwAJOHhutWUDY6ZJoFSAUjTo+EDcrDZbhcoLK23U/oZx2s5dX3EuMmtra3hYEZjY+OBZuEkU146+y/umN73JMzp47QRvw16IRRSBP27Uxrd+nVOKG2UoNKQNjVpoHfzX3bw5JEKQYlmyU83oufcHCVz8yMJtYMT6IN1Qd2URRiCMX8TRz0a/e26lSzR+lcLNkisMC8ID+ZfEjGblskaCAGzhKQwDxC3QDbs7u+kqpe7kp1SzW4t+yW/svf33pjZlk324M2hObUXGF8xA5sVJI2lG7f6Mxm52jo5uEpz+vJtPiuEJkjEYTEKzm+EWt2B7LrnkEobf0s/VP26+UCGRbWMIEbdN5migEMvCQLbJsC2XWGVbTL+1S17Z2803bCQti8XJpVIEbmcsJSaCbdTGOU9m6ZROl5xyKb1Qyh7Hy6yJMU4P8j7dCJ4lowg+srDEKgjD9q0SLzJLMW9EYLnMrHCGCk1seSAy2ZOhdh4+Fm8PMviQJ0NBKgIokcS1PhqlwCEC5FZkIJvZOEDJkrsh5qlolFJHd9Hrlaqj3du2ATd35ZJ9//33f8UrXiHi3FEqR7zw7PzGuNqMoo3OPffcQw45JJ5uyBQEKzvW43Ei1qYJsUwpK/H88u1wuOiii4gXJtJzq1N0LlXhOc95jlJUM2j4BREmCMRLrsRVEDe5FE1sOIj7beNQsiRSmDirwu4rxPIWkDvE9bIfAU258qybam6yUjOqJCvNwcqgNswy9evrrKQYs1QqY+hAmTOGGu+MuYatQlNGtJKyOUeCBpth7oqpA5SOzX5YuGFTTepwMmBoi4kndXMSYJcyJmKe7RkYzBlvGTWES+1ShgaGmfWS4lcp7aZJXjJwPmQUwQcZs9opHWeGXzrvQcAHJcWIX1KI23YLgYDSvJFTCfh8bDzZbiJAbxVPumU7MtjmHCEHMpQY/niK80VwJgyTCcOSpUSKzMTGX+1AIa4VxEOGFZ6kCuxsvNaR6GW6W64auqJaimhH8DETyRHBPM2XmvoVzPOEWENo+vKKXxKHxu30AABAAElEQVQBlfZK86FPukS1IBupSh2JFzJ1V51UoTS3jInf61734n+Yu1I7EZ5rXJZwbv+ipzwg8tFAhyFpiMiPc4IJs+uva7xwlEoUVJZgiUgknl8E5rPptv3yXFuFnnfeeSkIn1KpIiEOEvl/T3ziE3m9PDzQCdgS1cdMMnGVvEpMBEHE8EvsNtt2pQbGjWbNntEtmg8N3WzofM3ArCs50TiwSTRA12nEFYBITDZFol2d6lDOTsoMXc6kamsGz+JQ1v/bWBeT4EuF7fSVETdcjlA1yxlUEzJG/JVR34nXggGAD4vlQO0dd9wRf3rC2rEoTIVLhi0A/t/18/kenFz4bLP1Niy3VtBYIlQUTwaYcjLPMUJxd0oFGxu5vnHI+HyIMWGJY7OZSZEE3ASOlJkJWbhZKcJoK6/fwlCkGal7q04cCGQ4Y6uyV155JecG/xCTJyHEHE3uF1eAWQWUXmauK5zDMLka4o38EWy37XYkxN8H5iKkLOoo3tj7m6/isGZShNg5shwst/6l5gxPGZOlqWPvgzOAElWj+ApE7RRdZGhHcHbJQVRf2VludVGLhm2vCMtYpMLNtnEthV7FYahbbcSg+R9BWHXwhKG7ROItFXqNpVCiKkKNpCMrUoXMpbtPetKTEMQ0qm+hKRGs0GOucZF98Ytf/MR5nxBHLDtMKGccOylkI6SyRIToGEdKkxUHi0vEr7K/HiuV2nPPPTEpxZVI8rrE56CDDuJL8a44yjqFRNwwydS4Bk3t8BFIS4aUTiRFi0tv2qsVSkEiASS/6qhe7bs1DgGt5jeb9oYB4lhafQ3GwwhmMd2aOLFVqvOgGDWzLl+UZ7Zqd+NUxwzJDWsHv5r67sgcM2Oo8vDXuTXTl+lO3/jGN1RtWL8CSGOHVjWjWGhE1Lodn2kQJiI8TBgDNoNltc02pjScYWvkYv6N+0LbwHf6/AhJZHSXmQd7zww13yMXWHq/WSZTqJDGCit2y4oJw1byMqWys3Pmb+zKQsAQCqFnd1k+cTK7pUbi2WkeAr+Mol+FouTckIcW2fUcG9kQ9EKUhDzJKI2DhYbbxGQa12THRL06e6FyGf7KUmW5zGOpqYjA0IrLDj2/69c2Dg0xIq2C+JTrnInR80SV7i4y6dysUGISOceZxAqegZ20fFmVgqGIIlI7v4pwtym994kbdQRLuSsC0tCLIC63VEdGyGcSq6RjhT4Cl8ROBI1X8974xjfy+Tq3yiVpTSApghOcmc4Pf+TDhz7tUBhijkzVAlHRq4KPdNm5LH6JLYQtpTJxhd5npLluFEwKhqVQlISXK/I3XuAWqzlSaPQR/N2KPiSLlDRrRFIvgWDSzWDhhr4wHx3RAVNuR69G51rZdwGid/illsNqCnDWDY2GS1caRjlb6Q7KjhJGq4vwUXvWraTMVuTGEWSG5DbwOSLZLDr022KnbbRT+TBf7mY4aFPOXNzEgxAVHCg8QBhtb54bowcS1EQIsAHMDBitlPGlggnE4tAwEkIAZOR4BgYyBmYc6JglZIxZ7+Si3jtlWzTzWMxejLoizOUw5wKyNk/2TFmGS7cYMJRkULQJIRG3iE23cZOLzrPTOCBDLJ1HIp2/crO1G/yqMHdXQImVLIbmCFnqa1qriIGAqH7TiThYpDLPJzupkAWWQg/Dpia9uviVC380Zj5IKy5jxOaRIODkSZQSr4VIsgilC4uQ1m+yi0Ta0POfbr668TNGBDwFsABKocEtoMlFYKwEYriM34BYlV0qFIFbCIghDhz+ZSlOimDuk5esOknPayXoletXouwlS4moCCT5T3Fu8Cm3SoQAfBoEkEeg+h/5yEc4xFy6QlMiCGhLKYtvLZS7JXLyySfjo4LoOTQ0P21RiEUijNJ32223Rz3qUfKSIS3llrjKpjg0uKWyMipdc0vRiGiaia7VzashISsyDIuQShOYxcyTwDCyzSq9PCHvtedeIyrOBRfK+60jKGfo1gUXXEDNomAdsak660a7oqudu1N+OWA4mHKJiQdoJ/jp4WWk68ic78aEUpt17s7cpYHM9JVBzVjWUbIopRoBJJtLDHBlAJ25mi62wJBkZqwixbvSdbPywmryAFyyx0wRVEXYNr/ApELRokTa8TSHFEY0ThLLwbcQ5OWy2EbTrP/1bODa9WsZFaVw48xOlcpKtOeJ6WLPmHx5FcrQZh0cJddZIv7Jwu7e5ta30dACk+kWMa796bWqUHiKEIDCuMvpIZ6I6mOiiNQXQaG3t106AsQkEbiYBFNEHB23CnEieh8OqgPMsgfLpaAsNDLqpG4Rryw5xS0IT+JlVg9xMESJrV/CqBoClQILt/UWq5qJOrdSev8vmTFROnmIraY44JPu4K5bJVeI0WjuNGhuRTzZtVHiSZcXGZVojzmaFSxEwk0oDSQLYsInQgDmwfEH73jHO8Kt/5daomm2fq9r9rGZEQS+JWxfM0yV84utgqBHkgJF82S1enVBsjDnoiF2KZdl33322Sc6GUBC5pbKKvTQQw9VX9qrghSP1vknxd3CUFx/UVbj7zYeabMFHk9ZwIVMCqDaEJW8nYjakS3LxJ1bm+0lXxPofu+9672BkKbxKxRMqLRLBs6UZElcAZHMYPVXRGXpG+vWf2smUmbSwaJkO+20k/6ZoaEDtOFDtz/11FMPPPBAvb0MQx2y2bo88cQTM1a2xaZ8EPCrjve9733rZHsbnP64iXejEuVJZ475ZBiYcCaBBfJcyFowIVSIW4BDEO5nlZQgH7LGiK5qpoi0iBGBQ8VGZgrEph/8+RwKiudRLBwOvIE4RhJd0tg4f8krI57JnoUDbBnXPPdHJZR13c+bhaQ8ARdpuXcoVVNgfWUMn0w2cNk5LoUYJbNq1zl8SCLAASZEkpfdzdBf6BXNKkMJE1XmZ4hIROxXWX5VVkZuB8k5EL5wLIW0bLO70qGNsvAkp+JIAgF1canu6sXh4G7i3Jj2lrFpd208f35N407hHMFQQkApaq1SqsN9KWWZoGLj3eKtqmzS2wylaJcvfOELuCFI0eluMqJMwJmcIUjTh5XSw1Z9pfOzHeluR1RyFTFKuZBUUMCHCTXQTOecc443ENHIRXgNBEBxd7m/AHFLHVVNBFahVCPFYeIFSWyBCVJ3PVe4JAwOBUYRKTg4SwJzZJiroKZRL3GJ4mRLFilxwoCTFlQoMM2vI3DXZWEu3g7KLZcKojC0oqTUCASosd/73Oc+9I0mixflDD6wBeMHPvCBNWvWJGXWf+n8aaedpl6dmqZe1I+emF71S7vaKjQTFb/x6WQmxI2QOvYee+wBbt2+X+x0bwuI6e39BLOY4rVt46DQLzydg4ahU2SYmvbn2txSQBfjpKOqO6CkMFHNZNK6dcwVQ0VhmrDFjYsvyGJZRQaE3kbvhtv6hpvBkSkSEcvTvyzYIuBhMHLDMGeruC+sGv8gho1tE2H+Y7lJTgxxwS1kiENPXluUcJbe4R8DiY902VWTGGaqpDCH7K4RvATW194O0lp6iBlGjwOCpkY266xr9tGXUMqSkqJRNsL01ssUR2Y0kTy5OGERBudUBJm8JVBgt+RSnKMscWtSWlN9jQc5JKAsd7AVZ8Iz66bQXg1Wef+g/CHAn69AH4iXvG0mhVsimLjLccmZTzRny9tu6V1Ff7e6ZfOVGD6KUgoHoiaYXooDvddee+VBvNCUIqQEOuiJ46OlQHf++eeb+ZPdJSfGZFscoNSL6+YPkxQUbrx8QqrU+973PjhkYkk10cgLXspTyk1E0Q996EM9eyg9FYkMfuVScY0lEmJaJx7vSrpE0soYkVyKh3KTv5StsN0k8WZCAEw11dzD9rkjoBg875UBnVqw5meccQbNHFgj7hf9dLpvv97OhEoMMNgzIffOO++8yy67jBCVU6xtxu/tI1gt+y2nNH3+85839vVLYowzjD7iEY9wi4IO1NH+XJthCpRiAg3rGcWkZJaI+RFgYuQSTA4VazEaqDxuhgZPBklziJhK5Bthwv4lYhBBhuDG0HtULXm5L3TVUBJ6eUVYxLSvlRQbraQIHdnUIo0u0paHX4IyDN0Swd8EFeeJzTbJ0VOWG39IYs7DLUnmTiibov0q0a3IE2nzm0LFkQGtJ9r1hIzMMJBXyFImzNlpIOiSwJE3OCRvD/XmRymNE9CTHEMyN+X2Dg1vFz0wjmEnXVlaXK1TEdy0bPlDLEV94zEQWEo/k8ITE3cBiEPTxBq5xU1Ngew3HBDzqzaQ9faOqL73fA844AAMpXfKklH11T3t65KTBK5PfepTtpNmEGNgBD5Wg2GPgyL8hZVylRmpkKn46173OlVjqlMFd3ldfilAUvLL75d42GGHKZqRC+a4ieAmRel+ETcK1vOANUrTLhtPEonkfhHEG2vzHxZHbFYSfVGkYZSbZ/ojH/lIaPeDo10kfuYzn7m09/XuWQeHzht2Tj/9dEo4rC42YNm/qFMMI5jm9Jl0sAwxMDVto5cOA/eyyy7z7ky/gg6jn+Z0h9kQz4jWETKdTT8EhZqujMp26jipSyixCn5ZnfCkPOYhzF0JTIg4iyLMtcTA7hdzwUjhF0NTHewfwxPvagRbWTSlwJgJhhJBhPmRC7fYcpcCCVWhZ22beawUJ2+Hv2mt9A6SiGBCQisy2Jq7kqszo8Yk40DHjHemPZSCUkYlSse/o344pEQRxH4VxHnyK4u6RySSK5ppbwDZeExusJJdRN52wIevaRJR6QhKlpQ1zi+eBAjnNEQRletW/sIqjjVi4iETRNxKPL+5JRHbLGmBQiBhCTzpzuxaM5/ZCzKqPnprfDYtpFy/qlbiCFNTZSVOZ6TIdfzxx0ck7aKNBDZJufISWyhMkGUXpkpdccUVnsqUqxUoNhp3cUNPc0oWEay4XM94xjMiD3UNejKSRFxIA7l0VzrZ5OKbYqhEKZjHwYqobf4j4tzuOdGPYLXybvEqAE4DjVqd2lEAKZySTvosXlLIiy++mLFua3KnIj42pXNRtk76TFzO2ZxMT60MCvonLRwoEtvznve8R+cfeHdWEnUwov7bv/2bagouKWIJsaAGu0f1Xv+ZlUoti5xAY0gAmOd4imHNhSTsFn+dIon4ZYDnKh7OZlm0joxpIy3S2KTVjY+SJnNLpGnCVpCYRwURg6bWtL5T7JmIdGz8conYM7MRgsknhIYbQS3Crymud35mdEMW2ZWYCDK1FmdEHU4ho3icMzSCXAQwlBOYH+C3vBcdhkqBjVwlyCXRZSLIxJOiaH6VyySKEBiZ0oXGF+k5oyEI//yWFM5JipMrkVSwPUWHuBPUK9ZILqUkEAnzDUzMPW38S97AIt7k2OhjuZQlKUl0GQTirKiFmSQKo16wReMoDWdrIUtexI3D1QtBW7plNRsl7aNKxrSsdAGfBpleewEfQxxEIGmrg1to4hhJF9BLSQVFkugysPN1/uu//ku67ByyELsUUBaVS4qy9t57b12DPEqUKBfBXbolLgt/V0rSMUemUuThiNN8E1ESvaVBo8Iz8uQ3Kf2/YchXQ9Z/t6Y89rGPjT508Glaudf6r33ta3nSLjsEswUd/fSua1zGYZI7/JZi07FZrOmsOlg6+QMe8ICMd8Ma5i1veYvOP+zulKcbgAyFqmmbrb3GpJXSkdkIKGXfffe1f6L/boe4XkJgNErwbA476JmuecPVNpyjmQwUpiSKGFAKt0w+eeg30LTZomnIet6VSG6FSWEVJuVum6bEjdRqb+wuPodbkaHQJJLf6J64SMjwF1FWDAMXp02fxOZuz/OISOjbAT0mQiJ+3c1lm9XouCxtAgXh0EksBCYvx+QfL8e0H1ZcDZeCCLh4CQYiPkeBIvxTqIpDVZCorMc85jHiGrE4XtJzN7kwCVb6PuE5xJ/97GfdKogpt8Tb9UqueDknnXRSfE0EhUYpqWxJwVYpT33qU/1KDAeJiUQSuZg3BATWpn45l2jwV3fp2Y8lxbKm3zHxREaZ0dcwEAFPOA984AO57209QRk3V5swCuZ+2Aih09cGMpzORM+Nb37zm0foDA/MGbnRz+mswmipZtLBMr4YDuwYXbNmzbDqGcLs2/3Yxz6WVYBhZFObrl8ZuNXi7//+7wnZHhOLzIZa8ac85Sl6XUmskfkhMBDh0axGjAujM7o7j7zsGcvHlsubgA/XKqcxjZ7d6Zenv74MqmDs7ifuTynZS6SfhpASi6iFQCmJq05nZS30hbKfeT+3QrzJSPLm11Ql5o5xTydqvIiN+6jwMcIkJYlxaKTzIXRMD9w6piAiqAWCLJxFYEXI6BeTLOoV2X7lV36FR8INKlULmd+UIiK4KyT+/ve/X/bMrSpLcOlur7lu3BqcQUC5KvXJT36yY5iLAJ0Ix935ovIy0orr3C2XylKi1qKEKmVrnVVgteBmCWQjla17qsAnaETfGAqHTiRy9mpzE0e8Q7bZXsKPqoA9ihRNSAMFWq3w7//+77ROZK59f0pQNZV71llneblYHxkmkr1opg+MciOUc1jeaUifSQcL1no1+JzdMgxEQ4be/nd/93edvSbD6Kcwndvu+fVDH/qQHjVQPHXUwTyA6oQDCWpiQaCYpaTkstxNxFC1wVm5qaUpfbtESkZN059Y7o4ZaXMQL7JhXuLZlm5Rpk08gn8RTERAmd9Y8XLZ4WBAj53upC/9ZalmiYwpw5zozWBBWBaw+BUCeKxaow49T6ukb7Xlhhks4w9VAZcIJmYR9MTGC+ktDBZRZSxxEZd3vtOdd955Z5HSEEnvkOUSmVY75ZRT/Gb5r002ME6e4447ztCRuzIKAymTbvTgKaqvrW+RtsgWAiAke+OE9V5o4F1JsTiYuStV/sH//sCv9WsEY+oP5pnBSqEDJdycE8GiaRiv0pRtNKAnUAwGgu61dalNNp3xsg2DwrzmNa+hsW2dKeoX4XmZHhXGVP4prO9MOlj6PPWCpo9n2dOghYQOuHTOwPG5z33uwx/+sBYSCkFPOZufkjKFEcKT8B//8R8N38PEo5fm8JoTsDaaB9pZQnLlchiHzSq9sX+9N8zpj7iVDuNXXteCg1vS8ywItBja7LZ2WcBEpmnczaDmMnlLxC3xhBJvaPqOGCgtlYi5kGw1oKuyG32kG14xUaItL1kvkFLk2bAyyDdovZMYUdu/snhGlEs3EenvLG1ixbUvFxKPnP1Pn2qXUvyaFEkRIXZLpGDrMndDWTBEI7iFIKGM2mMKDGocbAaPVjSC9IJLHAiQSDAXz+XW22yNCjEaHgky7dI0XG9EyiBT1mtQKkInxaQRtyewctkMt+LD4ZP0tthSerI02XG+7LLLnNcw0NC2cyVuVsD5opTHJfHCJ7dwS0jpEkVe8IIXRELEoU/G3CWkmSpxnqWAgCqqQlqNbG7RveZktY3v3gacJr0XREo8wuRXoY6dwxBVaOpvB4Hd7rfbgx70oIDcueUSjDbAvOIVr9AuLmcIxigPPfHylvdk6UA6V6mjumS8osZPeMITRo9XJdd0RmbSwdIk0KRhvCujFRXsVy80WVJ58YtfbOBLI6VvT2dLdKSif3Zf/fM//3M2t3bu5lJ1fONMXGQgQU1sI8D20Ip4rtI9+ZkW0oeNUBnFwJiuDnyUVkCuve5an79lvBtLs8UWItLdZR5cYsLk9+teu9Bx4srFVkBsIgRz1pRIlFY89psaKJEmj7lzpZG25yuIEBhn/G1gN+ugvguXeZx6LYSmSFgiA7m5uyG0XMwGymbuqQlgTGRg9vL0AqKEkIFO4wM/ilHyGvc1DYdJShlV8G9A7u0563i6ZCt5RVBqvoMPPtim8vYt6W2ycktEiWTgM8WZbpMNjOPvzDyqnrsq1T84mAeNu+bZzEYf/NUlXiBihZJHil+3+JHi6qXjoIGMcRU4DdnNb/LRiM70KlYlBNtcFrEL+CWlRgoCRic+63Of+9z04pLejhgf3vrWtzIT7cTpj9MimkCp/vRP/5S0auqyiB0liRI6PcTHqcqtWYzcpGPPUAU0AGk1xgtf+EI2gxHqCJ8UOwzsBDz22GNzd8ynwA6rZbk0uv3FX/yFgclYNkyAXXfd9ZBDDhl2t6a3EYCnDZX6Nk8Fqm6xE5b/XXI44n/r8zTEXRG+lMBwGua8IOYwSX8iOLC7udXmP048Y0d+2/QYYisolCQIpLBnSpdIHpNtDCeV5n6ZcmP22LZY3I5FL2xlRy+IJBGrnKVuF1dJLPSLESkSAr/NvyBQIu27ySVl4N02ZTuuprkEF3wyQFvFU7QgpU0sjgx/25XcdandYS5AKZcwR0M3aEjJ7s1TlNpIS1GSwCiL4nLca8allIV/Iu1fDr2jXHfeeWfZQ+y3BJSJp+7iRFI1q370MInlt5TSTkHJYsnYLrQTL56NF7FpFDWL1w6KzBE2qt87eUEFgUAABA6n9QmEDEcOWTW5i22ZUxQHTtDrFDfwUqH2yJJ84N2aGGQM7/ca/kkcKgSoP/mTP5lFuJzTdtFFF3nSIDwda1eB9lIz/e6P/uiP2umzGL/JwDdbFcggcr/73s85GSQvg2BqkbsZSqigaXbpo8edqar+29/+dm9oq5TnwmGCPf/5z2cAZqtew+qy2Oma3mM9PItvoVdzuViOMonFmDGfCT/80Q/ZHvMHRjqUzBtXBgEObE8iZC4rXAuRH0PiMW95hzFWzejJP2DLiRGxWS+y8QuV3ilOimASxV/MLW6IGyY9b0NciuMevPOhUtMziTXMxJauWiKdKrs0CpfACYiX3ODQG6+bhmuabsAUjrzuoTQ+sPQukwVWQAZUmPsFFH80NCQRRyni20Syi7gMvUv0ndAR3iW/jR4efvjhyYU+EqbVXIqUWyK8Jepx4YUXOmc/zAnZKSVMkuildwQEjp4Xtp0sKeKZz3ymdAoGh6gKN5E8OLhsoOh9njw11U2sGEgMGiijrqWOmcEqwqdEk2QloAwxJiIK9UvCjmz1EgI6qSbQiEceeeQwQCg8/XQM+gnHn1BognC5nJ4IvYowuupXv/pVL29RFSNSv4RRXW/HM+79d2crZYYdLEBTJmOoRUBx7dfRrfRepsWI5ktb9HXYcDMlbaYKpCXMpZde+pu/+ZsuhTxctiWMdXQK+a/92q+102t8BAJan50wY+E5uzmPuxeMUN/61re4LN5I9f0vk0P6PG2hOawF8Jk3d1kUcU0jnW3Iwz0LXdTJ3diJDUn5byNBnvIpavsuUV0aShSkRHFPbNwF6bgRVcikCEnJ6dLARAYBmYOXNvzxmHwosPduP4Pnrymnt98LZ7lwxkEEWxWhTn5928vpR84uggbDiUC5ne4zAszJ3oq0c+IJAcu72rQEj8Lqq73UlBsEJWO3xnKpXvEJ2kVwl921DSi1hpJWQMCwyZ5W9oQNNCg5SJpvwVFw134jhWJLW9DbB6NcEcVBEje+uEsMBwYtjvmTn/xkv8hCiRtiZeUSkxJ6JDdTO5++0dDtdLoqyBXP0i0PDDa1yCIxFQ99mLTzEvUhD3lIZke0vlPm0eMGNxFwkVPV7GRXu9tt1QAiHbw4A+onP22O5qd1FhAbn76nb0EmeZWol5moM+/1nV4Q0cuMXW5FIfUscVJFvPrbQUCzAsokFt0LSpSkTaOx+Ota6nnPfx6XBY0UBKWhpwdbakNbyEZjCPw7v/M73OtI265R4qH827/923SlfoIZSpltBytAH3DAAb5U31G+dhvQs49//ONcZirbmJ+bqmmbcnnjBlCK6Jc7OEwSj5sIDIXWRo37IZvaGg2rxXKl69XMQ94nZybpA4fDZ4+N/i5ZVgaA5xpLqZ/zaYgKbaYFAeMhxSV7w0InhCBj2Yak/LeRIKt4JgPad9tNhm08A+OpiCYmieJi7aiEEr26ZV0mf9bES0iKb9RYsgl/5o5IcqmdjKlCYwt7VpzVdIIOtxIO9IfNYwV96osJj0hFSExKfFhkII1Cm3TV7e2LSl6JGyIbcUjeNg5SNhlgohFx4xqy/SXgw+uKzYYnw2N7gNFc0FhChzNhZAl9biU7t0m6UqIblrHYAyjZCwIuTjCeaRG5xMM5upT94NJHVEor4EzBuGtFJAxlGZELf5+foxWqVsiCJyYpXbrJjMJzdITaP+tZz8KhkImTzWWDzPrmC3F0DA5goVHWx+1zl0gA6XAQQdz0kev/j5slLjGyUTn9CG6eZ6RIzy26h4OvYcZRazhvnNUoYtRIGwF67kAsQ300BHrtu+Lg1fqCiS6/VCtN0CFb3kvCUy2DW8Sw9YU5ph7DpFJrTyDOss/YNYxsJtJn3sEywBkRtJlWGYY4tXPr5S9/+X/+538Oo5mGdNaC2r30pS/NY+gwkVTHE+ef//mfh2AKe9QwyZcxXfemIaYZmGcWAtQuDUnS/XqbjDEwKcKgMgNmAlgOt4xoyIwOLmNRmGQpmoDWCRu2GfXiatekbPQk2vHm1k38q16GjT/MD5OjCK3fRHpb6RXtvkRGzm/cpnEAjD6wkYRUBdkjSQRTFw66KVIveKumuOrLwnuIrzBi4Bun9LnSNBhsRGZ03kANCsNu2oUXVYJZEi6jluUpZp0UqiZg0Be/p8Nf3WUpiVhpXNXHBBQwEacVOqOjPrmkXhFAf/WPm4mxDCkmEdFoL76C4soDN8wL204kIFM/+59UvXN32CWtcKRfPBJtWsjCQR2jk0cffXS5NTpCADYsqtK0QE/J6YbqCHADsjoKIpCRopk48ShxThaSuGQ+1RcZj9at8BTHLU68HidQsIbP9de7hUbg5GkCkdGibuZ3IWyLiwEf2tRgIBowPPvss3/v935vCh3WxjVc37wzSx+0+OlnnP4P//APEinMwLpIRPyqV71KfaniMJpZSR/qlMxKBcipe/tS/XOe85xhMpe2/N3f/V17azqTWBpbmIZ+bqR2cJcP4xgx++tShjb65/iGjK3TIHa/qFOYortClarwn1hNG40t/cSgMo0E5ntBWIjZYFrYQkGKX5egZh7oUqxL8Gd15E2KCOImXlwGFxuNaIn0g4M5DcRZy4oz20ZSPoR5DkOMjMYmxvVndu/0/opXIZIUbzvaFURCdYxKNKPaLxofS8AWN8tb4ak6ZGDzTGWZveNcmsBTENekVCFMGumHyw+oUhdk6l6yi/SybnAgyt0msedOFeLCYfyIGiEmfzuLWcnttt3OrjVtZEJFZYGGQGWL39OmV0GtL5RETQBkXpRJLIsyVEUKeREgozaymEPSKGAkQ0YVIFxz7TVuFWMg3lRzI26FfyLkwVncG1KdW+3LZC/jAJ7q9elPf5qECorYEgUCqCxRvcHACWszEZfeSXEJfAvEpgADkRTF4ZP60hbpugMNitq4pSDOUDNZtXZt1I88tBSrVJwXy3PCRwp6Ee47VjJCTBBxqdXccqnQ8Cky9MtZU4KAVnj9619PGUA3AhPu9b/8y7+MphmRfZFuNfrQ+z46bfGUYsWT5mTIHVYiGl/XTTenNiUMo5/m9Jl3sKCv34LYxI9VfxEDRwdxbSxI9JhrZLno4otclqcB44hOXnYHY9jJvqiXBrUiybHvOvYlL3kJ2WICS7mMh7hhyy9RfW3DAWB5i6fQ1MhoBOJ5aFwmSj+HeVbHpMRnAq9ub32Qn8GOagWK4RZKzVFmQTLLWMrKcMbGyBvm+PB1YtjES1OOHvi2vv3WiJkcfATlsmdKMcqwRhZcbhIk9P7IKbCviianjqBcoefiraLSHA6yuav6+GNidFM1bF3iz9gryK9C031i1NGkdL8QE0Q8APgVMCzVQZksasrwS1diI0MvhF5xYYiSnC5F0CQjmsIt9G5FZtpOTuIlu5FaPBYdjUgJSrf/jAcQURWBAJ6l4cK5/CoaTzRCEpXIi3IJCstY0EAQwRTqLngjuXSloDTXJUWNtFG7oRNvsvQOkSqFSteyqcs9drjHox/96PCPOxj+6ptE/NvOh1Le/e53YyViZijCqwV67SLR6QwSFVoCIcVTHJ6JSMH5uc99LuioB4ZuKdoiYINhL4hIMVdHN+JNIhMJB7UWxPFBJjSl9L68KUJmPNIuwQ1ElqG9gSgdAXgDiEtMpOSy/o5AYE0vaAKNBdtg3qEHJvPxzne+s8zLaqAOzZJdeohVFgUoJfKt999//zwbpJOWW4nQOmOvYdk37mSk1f6oR9GQxPPbyTu1lzPvYFE4Aei77LKLY2EBrWkZkmGIexnHpyEuu+wyliY0hgYchtEvdjoxdBu/Rx11lK1/vEN1yUCWol1atypiGIttJsthym6V9BoZjUAG99BobjM3Njh75mZK9WqAIzAwCYYAvyZ1fnT1j/Rzw1nT1dc3j4/i8C8FBf/8xreIB8PmGSyQRcfGaSauQ9rUcz8TpRQcmDeSsJ34SCTMhiCav3whrrdJixlTC0Oq4tr6zIhKMbrJy1O31pDeob4R0q96kT8uHTLyS8FQHCtsBZGyTImhIR4HdUSMTLn4DKxpEv0KEZKTEVMRDm08cTP/pDiJGHJcOjQNQW/DvghkEiK8X7cUIaMRHGhqytcs/NsRs4wwQd/hb5nY3nZrGXwCPlbDYePgoMo8NsKjUQrXlgxAExlYd/SaCf7cERAJyHCTLqLFbR51mbwSeR6Nsq1bFxckjV5KJ7wtVnBTorPZFA1PxH6xEs4880xit+sYLcJZYohFYGuQ8Rpj0xarN4z/SsEEc+2ogm41Txq3b7blcTqBCSjpRFKiiCAFZ5ciEdKzR5GW3qoXhhDzWKuvmTDGDY1bQuQUiXhtsWu8gwDF1mT/8R//AV4N5Bew4G2TUYAo/G//9m87qkMWd9uGo028BHECKyXL+iIW2X30Ro8bVjT5dRDzpo5+bNM0E/HNkNaEdvqsxJu+twICndMAtm1aij7xxBM1ZOnq/bXT230o2ni0++6701SUGeP6KZcghQBKedvb3mYFnRhGnIxxElMFAyLlc0n/jL+vfvWrsz3WYBpLuQRCrrwiDECWxtSLz2EsAHWn87MEhv6MYhpFEwA/hj9odDp8DA8azYcsGiUu4whVbAMbHyvvZ5lOULoiYthSbimxRJLd3SKqlAzBbc6kUl/649dWGNaRyWSnpYi7y8WUYnXs/7N3J/C+T+X+wA2nQepGhoyZhwghc0plLFwZolSm0KBo9E9z3UrzQJOkW3JVhEiSUFeZM2Tolg4hEhVFt25x/N/7PCzL9zfs397nt/f+/fZ+vme/fmd913rWWs/6rLWe9axnDV8jK08OqqeVMiAY7KOJSrZOE6Wxk+rJIVmhikzd6TReIhjJ67GPo6rChOQVS1zgFHyY3PgYJ7AkU2teSoqTh4o5VxuQvnQwKTvgRJAUqKehLnBjQ3ZRCwFdzXm4oW34UWuNcuHKg0bBHbKTF360DXqGZWWMeehMouOBNoyN6IalFJG+sghCg56Sx80fTdSdYnp1lkV31pEhKSnpaIoKSGPDGE+8ieKJNH8z96EiKyn2JO5B44EV0Rdk5VcKcWIjdCB6HkqN2eokfqDECq4g6CMLWIGdvyKPnJlYYOTq/wgqPBQ8OXjCR3RlVF5dSbI85RIrrfRjYCoyHQt6GNDSbP4rHMa6fHlNR1sEQK1GaPxHHXWUzewgpTprJ6X9Q1iDETe68KGHHup1//3313/bJjgJnlqmPh7d5Fe/+pUP5pqyKoi20TZ3DGs5RnAfCCJVCk2nCVIhGHDH0FuwCr6qx6MJmndyFP+QaPHKn3A3lhAiFGpbFjgK5UQ72rYtveXNb34z7UoLw0zIr5GSPFwE/M8VpCOSescddzzggAOi/ZHCE83wdE3fqABngDNnGrMMTpA3tBgPPISX35BfRlYGUfiP6ARzzSqBiUqJp0BkaKGy8BQ9qs9v2xovUVod5BF9Aif2VBkI1bhBl5TEDwVi4Sc4vjXyZ3CNR14caDgQF8GEjUbiYaVjuL322mspFgZOw6HRNx7jOgTwj2dxqZ5ktyBjufQFeehGZT4qcWigsfeZAzjA9ACtkW95FWqQUEDaCW6t5RlclQtBaeosZFJAyVOQjmwvlHKVRDiCAI18AVUeKRvj8anKQKeAOFdxddyGm2YTeTX8oyqvvvpqe9TQYEAVrLbaamuttZZkPfjkL3HsKYvooWfU6aCho8QQiBKZB7YWDeEQRQavO/ykTyJRO7QWmDuuSBEJuOoEuVESWapb7hKBgDLyVHEuyjKAoZFFeVjaZK1FrbjiipRFGrNX7TkOKeMBaI0spKmipUDRp59xyM6zkC18jx9pbMBB4A8O3Hj2aADS0cY4JOtREdx4g4BX+VqXV6EcZSYjKBaSGjzkawMBMHqgreIsK3MbNeomB2FVE7EEqURjyjve8Y6ol0Zqk/OKW61LdftU3ZZbbsmogSueXXLXv973vvdpTl1ohi6oo0AcupJgmNBRhT6BqRWGuIlSEBOaYJE7QYnYOZrDDz/cGQ0SBMGEFlnuBAq5Sc7KiAAyNpgW201lzNP4QtYTtTjxoK/5Qaz9xefTiz+y4k7HmBAo3dgw76FpiW5AMjYTCkZxBCrFKKK+NKq6Ooq7xh8lnUBSBJ8B0hAoEUOOZAt9jxyGGNJaNAY8RKw6r0aCGA4a8lSm3FQNv43Jn9CQy0Y4KpSUPTz9WjCVnXz9jkScf/7rr79ep5CRwZsPMit3wVgQ+DVgh5QPuIKM/iRfj7jBs1+tVzpaON1OduglRcMbmeM+5pExnmfocPh08YQEPSxeChiqmFfrBdQdPsDB1VySkR9z90jZL85Hknp4/3WhaTjUER9kpTF4xW2AwA2lEoUyxJ+dyaPgodgJ5fBrzCuU4QjesBoYBoyCqFDhGWT289o7hVhxfvGLX5g1WUqj8UOAftNIU6ltZD7kdYfIjugooQp7/vnnl9fiUBZpgo4iiE9pYp6m6ApHRRarUNaOESV4zsiypvJiXo9QX1AaoZkzgs9DK8VzrQwS4SNELBlhLNQynoGeG0Cswkf67FiKGe5Qfwlhs4KyUikoUgua/G0gAO3jjz9+4403dgqYwIGeCgoalcuhWgEIZL9HH320U/MWajQqgohn1HgYlhopz/trcCLfqFCv+vt73vMe57HwGby1zUUUxDjUts0utDRdvi3lMHpOKwVLm9OMdGnruPGRPn2eKlMkZqOG1OsHPvABTZDi4p5JNU1A8ORoUPbllZzCoaRi8D7llFPe+MY3GtRxyD/amVAMNHggfwlliiNB2RdOMpG2CMTAD3ySyK+u7omRkiOi8A9Ho5F4NYYhjt/QTtrmMqqnpKI9hLiUIwdp5Tdy9xu5+41HmsEhBjxdspCI0PgVt6YsRZMXzckrqReDK8oRzanS+4UKEj3UOwzHa51mSZAnKe/VE51RavWwWtgwTj92vscyjDkdWTzDcBLRaW8LGs3nnosMwR1kI7DPTbNmoKTQ1kHRhEOP9CZsWgW1Q0YxR2qbZvGULIa9hkYY/sa28IxXbqt1RBAhwAczFPRi4OHT4A2BkfWPf/ojU1Do7pEOxs4555yo0zr9SIGG5NE8gAb8ww47LGIVDktGJW6MxPA01NUNr1BGCtKkB5d6JDw9hf9IjaYexI3f4LYQN0LztRMCFHRqk93iFNm6BtGX1hL+ujATLG2MimPLXZi46GHqqFPi8+JfcteFpcMA7K5sW6+iLXVJOZrlMcccw5ob89IuxEMXNH2WCAN6o4uO7QvQNrxzkCzqr9R9o3pibLjwwgtVLTEXs8xOxI24Y32VbFHkGQwIVk+crKm1q7bJKpROZcYfDLelSc95R4DoURfxq9lYzSmNp4w93XMhTYy+EkFWGlJxdI/bCJWUdPziR5qmCnQUerbH4BoOPvyJTk+s2gTDcqyfSLm1CHzqpzAQg5/mSkbLOgAhN6VZaMIhu1gwKvk2COJVLhyijwzJc1WxMipHUB1LRnKkoSpdPCGjo0RS8ERSdB2U8Ui2LYd1yg13bAFuZaBBFq/0DIYruRTtKqBrSxyeAReNEP/x4DCYjyBjJFXJTlCVqI+HZ3d+aCQXXXSR9B9OcuR/+pmRjGekULNUmKQaqk2lYLavCbq41ZHER+6wnXuoUBV7rHv6g4PHa1gr5ctuYQ1RXRT+edZPySg8cUKaWSKMWiuUhSwdnRDQYJwn1WBKm2mlDDzVhbbxmte8Zq899zLWeBVlpBlUm5xa447bh6VA4nS497///RtssMF1112nPajoTglGs0fwrne9y1XhyLQ0vxreSLuKv9IyWoRPp2QHyn/6KFhaj4FBjaoR9eTKK/ZJnmE7DdAFNdCfK65HlufsNjUtOPbYY+tpcYN4Hl+NB0z07kSlz51++unaugRJGY92GYnjpzWXk046iVU/iFtD06dfCITAGjGEzDVc6eG9p6ztebS3iBLaSe/R21KGbBEUbZtYjL9oM+G2GshGgmZM3LbNrngqCLdO1Mn0Wyg5RtAayzncgKgAVSdV3NEri2gt/q2Omkaa9dNK3PAZq/nEPVtSAH4jnS6vpQbb0kRn33PPPdndtT36SrTAtsQ8Q61xpbvWFW0gfs879zyhRF9b6SEILGwDQtkzXBnYKf22/ip3RLF6+KEPhZoYdVRytIKsBcYAKZ1SLwgiqiBu/pFLtLGxVkFbDmeUp16v9rfZeptvfOMbgXOX4kctMByccuop6667rgHRAGSG8NAib5eY4wrSAr/97W/LyDWh3AY1lR4VXadX2oxmr2U6O29MjF0NeBPKs6YfbnctkobaHcNbKYJWSG2yxUr10JT9Ek+jVhWazTbbzFWztnSUpDgkFbo5Jb1kxOHxxbjIq9DzLO5wiM62zzhvN3GogEUA1SwxS2AgZBCbRASdcMIJjdTytQsCoBaqshioa2x7cX//+98XV4V2Sb9tUGuNtyWbaM+R5tjuiXw16V5ACBqNkKRbaaWVJo5nnE5c4qOmLPf4lGd0t4JM6ZgNBwLLcGZrHm3ME0h3yWjUArJgSceyILGg4xcVpJF1eQ3j2SqrrGJkwoasSR4SycErNFIoQ1cpTnGY3XG7xFjcuew/xP+opehSwDoIG5J1OlsuhWGOwkDDQZX0MK7UiaS7RwRAreoNDSq9AFvD3nAXGhZTY6Itp90zkj4RKgvCsJaHWgtPD4JIgfbGwRLpFgnb+2Ko1Q4LA7Iubg7DX/AcDd5XgCjZ0QhLU6xfa3d3ngcztI29pFTGcDlUXs1wSCsXo2tPEdRF+pSImg4L/Nve9jZXIRx44IHO7ESQuBLUJjwlIw6P+VzkhVIdm1NKRLPwarZBejLn7rH7Hr6sRLppiBpuya52yIKQkmC0zpjUGvItd9Zk6Z44BKLWxjG9U2sTx1WmPBEI6Kqxyb33xK1XRt/sPcqolBI0lTLpx080vy5RjGpEja3izmRRmIgar9qeY/DSiTGvU3SyhRq32267ldMDnSjH5289HQ8BUaQQA16n1IQKGmsVdEptpvmDWtU7VH7GGWfUa9adcIhhxeBFp7d5xjbl3XbdzSZgI1RE4YgaiVfpI2Z6jNdGy9TSRpSsuWbUiy+++KCDDrKD2ZIRVUmQKDV9QzYa/ijWaPyKaCe+NlPT1GxE7kP9+xCCQ12G7sxb+7M3nHVU1arIUesPjYZlfwYb7De/+U07n3x2/kUvepF1PYvf8iopRLPwOvLMGbnLWKi25bniiiu0vPPPO/9nF/7MmaCwl45slHnc42wLa8uwWJqsli33EFXui3ve854XubSNkp6JQI1Ap6aieQrSwGriKXd34nZyGNPF4o4A4PSYIwXFqBZrGSVKRG9blraeJSJHDI3SdP3PBRdcIKlIraap3TQqafr94Q9/aGHFRhV1etlll7mjQSLWc7tEZx1nm2fAaNCMymTNQBe3eabQxRdbHEu9pBmtMaqgS7IZ1AUBqsm222571llnWWU2yqBUuZ3AFzRXKRoZYszez/rBWdYNaVHbbbed/U9OetLybe4UHaWHA2UoQ0a3//vXiF2Ap8dqzOWXX27y7/emm25CQ69SoQZN7TBeI4W2zKPEuX1XFKy2BLWn7OrXoXNPWwVLG4pVNo2Dcu2b5CxSVqBHrSEtgwhDZs5HAmpAHpeXajeahYv82aL8Wj0pSWmm9hLauq6FaXxufGG4okuF+VQTkaYZp4bFsC9Wp8bHH41mLUG3NpsW4EHEYW9kBah0JAKDg0Bb84k+iMO2PS6m2uZRQTPvBZFL9HdWatIpEmwkXnMiyGMUtIOTgkWnIU++973vkRjdzVdSJtN8rVV0Cfqdd+bbpvCkf+v4CY229G2roC1lerYiYHQwUrjQ0UF4F5DanIcmqriVuPhoctQgLcfIIgVxzz77bM3DYGf12WVA7BErrrgiywLKEstpUAuL9q3bLM8MJqi0Ii1Kgn6lRsuPFhu/JXrtMDK6WJsxtfacru5pq2CVPUzEkHPdqtO3dJxW9R2MaFi91KhWGA1FY9J06GceB1AjbmlhbZMyXeAf0TXfRrMr7Y9DOhpomK+sYW+11Vb22jtFZYZazL9ts0jPRCARGDcCrpIK03JrCtG1SydFYH7F01N78m+8tibV3Sei05le9rKXMZlLv0Hf6mPyduWVVzKEkxVEWRwqbCWr06GBkYdsFfPIbZ1mw40BEjIWlbozExFxgiw3uTdgHNOr2qfoGFws+bkIzRjHqhTjSCzVSU3VR3XUlSKKIPqQWog5f7zSn1zKyF0Te237lLYUPIjCh7v4l1iCoqNhhtXgxBNPZKTQWox6haY1Vgkaasf02YM1ajU4PuNz9KxZGtaoxG0JNJT6aUszqqeWVBoTqc0tTf3BXMSdy29/+9tPPvlkswedJ6zuoyaYBIlAIjBWBGwYMMwYD3qM6JoDPbRH4t7JiihghwgzQPHpkohLuW644QYEDOeULY6QS3UU6RAvHp6K6UZTRagJ+uvGgLwY+XpM1liLstN+iR4TSTIwhpqiMdvz7sorrdRoYmZOpfYbDaATUPVwppF4WhtSp7id/KXQGhSWLWuC5gNOQlDEa+2qlX7a+MwIBctyoQqj2tuI4Fs6Lu9XxxMhLsfaLPQED+3erz1eP/7xj+2v1/g09LEmlfSJQCLQOwIWp4gF/a7HKFQHwxWtZYL65ktf+lICilBqOz61MsligdLOLQVpG4Wnx/iKbbYu64NFdeMoT2vK4/Mx0ntsU+sxOt4Msaxx457u9pjRTCCDvEEEnr6lY4nmOc95DrsUnQbIfgcBAd8nsB/fSUPGWv1O8+t02GsQuO0jD9NfwYqePCJrFhgx8sOOqdzxQAdEe8ExovRC2YWmeyLWvL/85S+z7q6++up2jGl8OkyX1DIoEUgE5hEBIxART1vS3XpJipoSU7LedbJeki000vdB3PI6qoMlwNhpSiYi8dJWwigdGpsNDG/rrLPOJJiLerdgYZjyZ5eqWmjL/KgIJEEDAQrWExd+ot3GRjen8wwrk6DE6D6jVp/7iZzDcGCLMq3Go8cNgoGjAeBEvM6IgTyskXHKT2vwEDqsqZacd33xrkIJKeDq8G3NqhHF77xUAGEnBb+eMNvGXdX0PGzst+9+VHttLpcF5wXkjJsI9IhAnHhCHMKhxCL9y1M8OfRWFqbap79umtArX/nKBjNdsrAxmSSJq7k6iSbzNLYry4gMGywc3F0SnMegWCUgxKDXY1KGW+UN6dpjlCTrjkAMHxqGC8Z8oeTjH/+4oU2NRAuJcUcKvTezLtlJUwOLlOUY9WgAjWbmV7777befTV2G2hhYNUL9KEbb3ttJFx4GP2j6K1hdKnKN1df45re+aRPDTjvtpO61EmIiNglqOl0ijrVeJeUpaVovN72g11OtfD9cm0u9aqyQJn0iMC8IWFnT33XJHhNhm2ECR1xGqR4j9khmY8AOO+xALPRIzzjhsoY4nN8pigI68GU0Nc5NtMEgkIQSQdeJn9o/BmbmwJElzrmfIqhD0z1uBEYUHdrOnAd9ONkQc+ONN77lLW/xqXIJhvFVA+6Xqi1BuUmwtC4DaBy/MKQa3Xzk19mycZdlGkTsVb5Mg6K2FuH//jlyl78TDVbofHbe/ne7y5FRgLQbIiOkRmvEcfhogppjZOemeCZT+9m1ex/vtFohu3GkmVESgURgfAi4gYnRiFqjs8+d/jz00yk1kiFmQX2UCXVemDGztxHTXL/27+TGhoOHTuGZGXahQbbpppu6/qoTTb/8Q++0B4tW12OaeCMSVUQfv/LUY9bTmMxQEniOaD9zHvQBzY985CPuZfzkJz9J12Fi5G/rW18QiD4jwWLcXW655Yxr7nQ4/vjjuTVOA98EdZm+FGGiE5nRClacUKVxm3jZ/8SS6U5ke/H22msvWtdIA+2f3mNp3J3yl1xyydVXXW1KYbt9SEZZhBV3oms6008EEoGCQOwNJ/p77OOxu6hH4pJL7w4KCtXEB+BjrW3UiNbX0JMhXfbZBLcu2SoGhlGTHTdBrDoFSj0mEjqZTTk90ifZWBHwUQr14pZ2GrZFQydP3Zr2+te/3jdtxppUW/oYvASxlhk0LVj76LibvVkN9Cz1a/Yi99517ra5DLXntL0Hq1ErbQ3X2gGyYi/VFl2UwFAf96e7ppayZSWbldW3KVDWDQVxrZgLMgcNiVYmxOZzG2200Qtf+EK/roNvsBSvbRlrS5meiUAi0C8E3HQgKd22Rx2LBUvvLh28X2yUdEIOuJibjkL5K/6dHOhjfthFgAS3++67r2LWZLW7U/rj8JeLeWMdsUtGZpVUSeC7WbCOku55RADmUe+hv3LH1bh0cRXkNn+PLNzmaLbvxlpXFzFoIYsnchc3oscrW4O4CCTu4eZvOdvFpNtvv/3mm28el4wEMaXqcY8dySssCDwZ0oqRUiJ8JBLE0/53pihYvVekFhBWzS222ILF3kxRQ/H9L5v1fJXCjlEX2tohy1HSNIkkFqlTfplhGauc2VlxxRW5G3pYidJwzLRm1yh+viYCk4xAjOsmRT3mq2uPDC0PzJlvgQkZHiROCMjFd0uOO+64HrnqTma10efqiK8elcjuqY0aKpcypo5KHIM0sl60yVFTS4JeEKjVGhcVrb/++r4HIOIvf/lLg5pNMn5vuukmNeIO3ka9MD3QqHzChDFs4403tsLDamXgY55Q7+7EtkoofQ5/RZ0KrhqvvbA6bWhSwWpTlRR2TUezoWlR5L0uv/zyK6+8sjvWKUzUc3MCojlkROhGiO3nkBb93a+IpTUj8HgtPm2yTK9EIBGYRARsD9eXYwOW7lly7tRJTZ/Q3P/A/Y+b1XHPU0lkfA5sECNO/PVLwTI5PPjgg3vc1DU+nhux2KXoiPGJsEZQ45VQ5UOE2oOl1I3QfJ0XBEZGmgW7mYgajdxF8C5Yt26jBT5m1mPoQ0a3qKDChprlNizqMpQqC38PzHnA8awgoF2JYqyc9dhZkXjdp0oiM9CRClabStdQCN8I0PlDJdduyA7thsNTCBrxzeHQeEx2tdTyNMjyNREYZAQ0YE13kDls8DZWhm0PH9O4ru/LUS6NfPv+arSblzSjUEZH1WdZ8/nPf77UaDxlI8S8JD5qXBNLI7FdraMCVcbvhqVk1CySYN4RiNqpO7hmU1sfjW5xZrbkRaPiRrbQ4xeiFtvd5bV0OsYFz5g6VEl5ejty6tCmfhsNxemh4hMKU2scTa08QpGxckULDv/WKLVPp2RrmnRPNAJEDDlCnzYhK7XZcEw0DwOVfmn2A8VVgxlVFvXV8O/+6v6CtgR1ddcEZXJVe/bRLV+p+bUQw4g1bn3I5DBqTVJubw8Oi6Whjww3kooBeKxyDH0qWA0k5/G1UQXx2viVBZ86o9Lsw1PoyKinKT38N2IsWGDk40t+0RQbRETU5KLVlTQb6fOveShk096RFqxmFbe2jCZFvk9TBMj6OIo//5xHSZ9pWtxuxSIuiU7LAX670VVhNaVtrVXIhDjDPCxTk+lx9Fl1bR6umH574c+BSPcLpAAAQABJREFUGDbpWQtOoMAspXj5y1/+X//1X15rSHthUnFi60LE9ckUKZRke0lhXmjkZUymidqiOmo6BfZUsEbFqu8Ek9Yk+s750CU4gfJi6LBIhmc4AhY4nGwifYxST1io/XVEMYGbKqBqyVi7+8tPLH/TrmLj6ngSn3jLOMXqgQdHzI3WJsYBhW28alncMtJ3L2bswTKh707Wl1B7PZ3P8lE5qdVFG1XfUpagp2mttdZaL3jBC4KfKGOdVF/4rBMxM2HE8gsoG6XLCmBN03CzgiBTEQ3/fJ13BCa0rntkbxB46JHViSNLBWvisM2UhwyBN7/5zb7aZneO0+Z+23I/CFLDvbjOt8ZwOxH8GPliSDb+uaayLQ6tnvXw36PW0ppI7z54kwtNwsIuzdj313qPi5LhpGa4bVwENbx064ZP21jz7qk4m2yyCQXL0t5YPyCIQ5gAZ7fdduMI/r3iijY577yNmgILVg3aqPRpwRoVoiQYXgQmo8sNLzoNzrsIji5BjUTydWARMKR5Bpa9wliMl+W17w6nzyJNJ7zckVPadug0nfSSQiZu7e47eyXBMIHIy5nz4tndERqSTd8elKx03emFRnkdU5/QQjUStw3LXdgNz8ZrW85xywBJRdtvv/1Cowpll6mvbcX1kmbbjBqeEo/l9cc//vHRPkdNGRmavAergeSUvLatrLaeDfZ6oWlEmVGvqWDNqOrOwk4TBMpgOaECTi69qCBDhGnAxWrSY7kgIAojGb1BMScU7RpGq3srrbSStbZx5CiKm41dWYR5Dz0mzkHX6U+cmwWrF/sl6xoyrHYyFU8ch5lyIjBpCEzGloJJK0xmlAgkAolAJwTipJvQP//5zzSPTmTFnx2Imx3IviI61jh0nZLUmBy2vtE/ttlmG1qdTMvTSyLMVy4r2nnnnRGLOHIzqtP1c080jymdXvKqaUbymntcAFaw9VqHtroLQSpYreCkz7RBIBWsPlTlqMJ6VII+MJFJJAIDg4AG3+MzVpbrZI3o5XVM6fS478cSpGSpAqwyY0p/HomdxaML7r333vHBQWUsCZbyhqP4FwfLnCsefBiuxIpSFIKJdowVq2LuKgxPNIeZfiBQkO8ESN3YOtGkf3cEUsHqjk9PoUU0cBBwZaIscmz1KAQ9JZdEicAQIjA+cUzKj+mZF2AYcqIn2lvWSzrxsT+UiyyyiEOLk9aL/3X/v+xn2mCDDXyNpOazlYERnir1CzGjl4+fOqsRJiLplK3uJSlB5Sme8+igC8qI9IOVxLukFlljO8gouz5Ehj6MbV0iZlAfEQB7bJXT+yJZDiOXAcu5iuLZxxxnZlK5B6sP9U5SON5vpnj99defd955Pu3kg03EnKNezgEROnHuvQ85ZRKJwDAg0Bj1+8hynTJ3vMbvqLkEmd7aowUrEkQfVplGLqEfjJrpOAh8rkQsi5K+S3j00UdzG/AauXdKlqLj/KBFxljfLGS47TGFEmVMDtoVejKwdwsWljxiqY4RjXDuDZZjyjSJx4cARYoiHmcgVNx///d/n3XWWT4eteaaa+6www7PeMYz1IsmVB87jZoaX3YzOVYqWH2o/Wh8b33rW4866ijJxXaND33oQ3vsscenP/1pEofcCQHUh8wyiUQgERgXAi6+onbQM3q0YOnXiHVe+4omc/iP43iGN2cJv/KVr5ih2VbVY4ldBL/LLru01aUmdIw0h6QFknKw6pHVQhZ3kkXVTCiTJccZ7tDAFpxvZPmbprX7HrufdtpplpVVHzPB4Ycf7vzpF7/4xcancmY4YuMufi4Rjhu6R0U87LDDPve5z/EiaMjxOOh+9tlnv/6Q12u7qV09Cqx8SQSmAoFY+LAU1aMFKwb7MVll+lgsYmTVVVelZvUiPWhUQbbrrrvSVLjb6lh9ZK+RFKxiyal3C1ZJocfqKPTpmHcEoi/stvtu3//+96Xmy1HaG9MA94knnvje977Xd83nPZdMIRWsPrQBa4IurYkmS8qEsCPjCI5TTj2F9dUctA/ZZBKJQCIwDwhYFtE3Td+thvSSTOgodqW4BCvow4cy4eklhfHRRC7uVqCs7LvvvkRKpz0GwclD9HMX6V7/+tePHEKce+sV/wgaHxvjizXqdw9rrsJtr1usRk0oquMrznSNBeoLL7yQCSBaiF/NhqFUHzFaHXPMMa4IKWXPeilQjNWRCtZYEWtDT4VistI0TXbr4GiX55xzjslBtOM6NN2JQCIwJQj0aDLRf+MpVpl4nQSeiYv4LM/rXvc60mPUGRrG6GHLL788o9cIk3P3M0mkPJPAM61OLr6CMNa84iTQWGMl/bwgQKk988wzDVthdyxJeWUasGh76qmnhqfWVELTMVYEUsEaK2Jt6G+55Ra+ZBkTa5FoHDEt+8EPfrDQQgu1iZZeiUAiMIkIsDHHaNHjHix2I73YeDOOfUX9KhadydZjqZEhI5rTo59GLvZsCTfNq6kaNBP3GlpdUUZ7z0h1xDAP7d5jJeW8IPC4xz7uu9/9bmsKVPloQj7hIJS7lSZ9ekcgFazesepISQg+4QlPYF+NVcJCR0ATdrfeeisJkrKjwDIJjmkvF2Ki2Zh9TgKwQ50FU1Dw36MFi2qFvuzBCq1lkhEgQ9waaltVzNba5o5D4sXs7tWvfnWYkdqSDayn6gjJmTc1TFod/e6231kE1K40nkamuolWFwp9Iyhfx4pAniIcK2Jt6LfccsvY1e63HtoXXnhh5zIYY23S2mKLLdrETK9+I2BQNNiE7SH2bLbmUCu7tbuVcjB98BxsF0fwWbe9mvPwhwl5WpSMRtyafljcRmXDAy3Tzexj4rnH798FVtCj3Pj1jCmXcRPXGXG7cZSN/B9//0csGrYmy2hkdgeK5ZZbTmi0jUJWp1Y8J8IRGWFGSxs1/Zor92BFt43jk6PGTYJ5R2D27NnGJjVFSDYWoHUrA9n2228/77lkCqlg9aEN+GqYZtpqwbrrrrukTvDZTrj5ZpvPl+bCPoA9ehKxVXP//fd/1rOe1Za6HoFqd1viAfRcZpllYnyqR6nufMJk4Scs/NGPfpTSH5ShYDVsrq2JhBWn1X9AfHQuw4MO2As/9EvlVaIjjjjCsam2URrltfPXOLTuuuu2JZ4ET6VzL9EJJ5ygBhu8Re6h/KnN3hvDBLEdDBiz4zx191xqbu0bE8ugbhtr91gZ2i8ELrroIs1J6/LUaRrI4gasHvtUHTfdrQhM7O1zrflNV59NN9308ssvJ75bB2ztWOh//+S/c342ObVvKOpku2ploLW+WmkGyscyin90heCq5r8etBo85+gVgBg8Arr6cws1VuW+q1h+DfUFwVRpMKERYkANtlWwVLplQZe/C3V3kX9dmkFd0olwzwtK2UQnokY6pWlIuvLKK3WHBkHsdVlvvfUuu+yyXhpSLzSNLGbUa1qw+lDdhODmm29+6aWX1qOddE2vBXlY+Oc8OMfdbvMigPrA6AxIwnceXDymoGBvOyANOwbU9LgkMApCwDVaXWsBKRMuB28AItbIM2eUbcVF4WhNdhB8VLHS9Th1qYfwUaNE4xGFsg5kz5SUl4EhZgujWneUCBSqdKpYhU9kraX13q6sw9JlKbIUX7sp8jzQhDazIgRswArtCuy1moXAYziLSplQZmZC4qlg9aGWiRVfxfHbkG5aani6d4d9a7PNNutDZplEVwRiCSyQ70r4UGAMCb1QDizNqEVoq0xErPkXHEVvGDXxKYelbenacjWqjtIaaxxRWhOZF58ebbEBQqdNWvPCwFjjhgzsvV2FQVGHpdGmdjVWtMdEr2pGFN8F5rvgggvKQdrGEiG9CtWzn/1sZtHB7/tjKv6UEOe2oD7AriFqkWREa1oaK8GhEVOwhGaTbYWo7z4wT5z7jmomOPgIaPZT3vLHx0DYCwcf4aHmcEQwzr0g7aqrrorRSmXxrAtlqFIXNh32Pm+po6e7gUAqWA1Axvm6wgoruKyhbeTQseKLBG0J0jMRSAQSgUQgEZhQBJivKE/WkV3gLqNW7Spyd+ZglVVWmVBOZk7iqWD1p64p/i5r6DQPo2OxYDWMsf3JOFNJBBKBRCARSARGQyDMVz4yaHt7J+3Kii3zld+2CzKj5ZDhTQRSwWoiMr53x4x32nGnLo3SVT1XXHEFHathkh1fdhmrEwIER3k60aR/IFCA6uLQXAfqybobfAS6NKcSNPilmH4cmv/bz26qf8cdd+jUbQuI4MUvfrEgxHXHb0ucnqMikArWqBCNThCHdzZ81sg+907UGuvFF1+cOwc74ZP+iUAikAgkAhOKgBHK/QudtCtZI3B9IIIuxoIJ5XCaJZ4KVh8q1KFkqVi3XmONNTolp8l+73vfG4RjPp04TP9EIBFIBBKBaYyAm4POOuusLgqWIWyVlVehZpVPPkxjNCahaKlg9QFkrTZsV+5cllwYV1vTveSSS4KsNSh9EoFEIBFIBBKBCUXAAPTzn/+8SxYxhCFwM1kXsgzqEYFUsHoEqhtZ7G33u8cee2iX9C3UtS4VMwbf3DjllFPcM94trQxLBAYJAc14oJ5BwiZ5SQSGCQFDz6mnnnrvvfdiunTqUoAYtnbfffe4oAFBCUrHuBFIBWvc0LWJuPbaa9vG7hFmDbthidWCGbF6vDmwTerplQgkAolAIpAIjAsBQ48BqBG1aFquGHWtbrFgNcjydXwIpII1Ptzax6JgaaD0Kq2WOhWWrSDlowWfccYZ7WOmbyKQCCQCiUAiMGEIGJgMQOb/BiPu8hinYqhaa621DGHyFzRhXMyshFPB6nN9b7vttq5s0EB9NbNO2tIhBevWW2+99tpr+Tt4mMc0anzSnQgkAolAItBfBGKUiUUVF7jffPPNxqbG/iqvxizmq6233rq/uWdqqWD1uQ3suOOO0ZqdwjBRiNQ5wi3Id6B4/uv+f436PdQ+c5bJJQKJQCKQCMwkBGKUoWb5bHlZH4ztVgWGCEWwzTbbFM909AWBVLD6AuMjiWyyySaLLbaYCYEvwz/iS6OauzHL77nnnhv++bGnGp90JwKJQCKQCPQXgRhl3MzOQGXoaXv5glEJwZOf/OSNN964v7lnaqlg9bkNWBnUTM0JNOhY2JZBrHZz8PdRwttuu02o19C6+sxBJpcIJAKJQCKQCMxFwOhj/cQZdp8gjBGncZL9iU98IsVr0003XWihhRKz/iKQClZ/8RxJ7WUvexkLVifliWXrF7/4xX333YeyYartPyuZYiKQCCQCicBMRcCnb2J3iu+IuKCBsmXa77fGw5BkG9ZLX/rS2jPdfUEgFay+wPioRLbaaivr2Roxe1U07kcFzzffaaedxiTLs7WtNyjzNRFIBBKBRCARGB8CRZc6/fTTI4XiUxJ0+oqCtdFGG7ELFM909AWBVLD6AuOjElluueXsxOrSWL/zne9EhNa2/qiE8iURSAQSgUQgERgvApQnUQ00J510EocJf9tB5+lPf/rTnva0Tqsu4808482XClb/GwHD1Xbbbdd2O2FkxlTLYMvdtq33n6FMMRFIBBKBRGDmIRC7UC688MJ77rmn7XJKQLLzzjvbiZVbVvreQFLB6jOk1rNNGrRXv530J+viPlkg47ILvs9MZHKJQCKQCCQCMx6B2IviE202uQOj05DEIiA0x6O+t5f2BsO+ZzNzEmS+YruiZm2wwQa//e1vFVybbm3WK6+88uzZs2cOLFnSRCARSAQSgSlBYPnll//d737XKetVVlnluuuu8yEdg1foWK0DVhfrV6dk0x8CacHqczPQQE0a2Fq333771mZaMrvjjjuuv/76XPMugKQjEUgEEoFEoL8I+GTIpZdeSrvqsid4iy22cCoLZd593V/wpZYKVt8hHUnQbVj77LNPp6SpXwy2J5xwghlDJ5r0TwQSgUQgEUgE5gWB+ReY/7zzzjPt7zKZN1QZsBZYcIE5D+Z4NC9gt4mbS4RtQJkXr7/+9a//9m//JgUNmtE1Tm00TFlh5WKYvfqqq/M+93lBO+MmAolAIpAIdELAHH7zzTd386KNv3GisJXShpa4+NoFpMYsBI0Bi08uEbbi1otPWrB6QWkMNE960pOidbpZ5MADD9S+2zZW/r/5zW9+cc0v4vI3GbSSjSHXJE0EEoFEIBFIBOYiYL3P/9ZJfODZJwipUGb1lKTyBE7WUvbff//QrvjY3JLDUCDTr99UsPqF5KPSiWYaHydffPHFHxU2V5cymbAX3oVYFDKNHkH8NijzNRFIBBKBRCARGBMCD8wZUbAs/JX7RRvmK/qWUJ5xfjAMAaF+jSmjJO6OQC4RdsdnzKH1DMC8waWjd999tw2G5VqsIIgbR4T+8pe/jC9AhX+qWWNGPCMkAolAIpAIVAiwYNl8Yuv6s571LCcEI6QeXCyw2MSy5JJL3nzzzQxXDdWqHsVa41b5pHMUBNKCNQpA8xJsimB+oPmaH7Smo4lr3Jdffjk9TOjf/va3Vpr0SQQSgUQgEUgEekeAekS78msXyi233GJbVawPtqpNO+64o/XB0K5aQ3vPMSk7IZAKVidkxukfjTV+TSD22GMPuwvDXtVIkdal3X/1q19lwULjIt0GQb4mAolAIpAIJAJjQsDog97vf/7nf5aVk/Ap6cSQtNdee9Grgr4EBWUMYeW3Dk137wjkEmHvWI2Zkp32n//65xprrHHrrbeWRlwckdxTnvIUdizNnaGLTyN0zFlmhEQgEUgEEoEZjIBxx50LhpIVV1zx9ttvr3Wsggq9yscHXYUdI05bNasQp2PcCKQFa9zQ9RSRdcqNoy5u0I7jaURj5TrnnHNYs4Q2gvI1EUgEEoFEIBEYEwKus5rzwJwf/OAHf/rTn9pqV1KzbugMlkHH1QxjSjyJx4RAKlhjgmtsxHHH1b777utyrIgZWpTpQnnuu+8+N462XUMcW2ZJnQgkAolAIjDjEYhL220+MbiUgSYcZRpPr3rFK14Rt48KKgPTjAevzwDkEmGfAa2Ts3udBUsrX3PNNW+77TZ73jXrxnFZ9BYHGXJZuWx7Lx2gTifdiUAikAgkAolALwhYD3G94uqrr37nnXc26I0vsRdlqaWWuuGGG6hiMUg1yPK1XwikBatfSLZJJ+xSCz1+od13312wa99atas4xHHaaaeZRrRJIr0SgUQgEUgEEoGeEXB2yg2L1gdbYxhlTPI9e+65Zxi6cvGkFaU++qSC1Ucwm0nFXMFCIWNsfIKgSeFjkHO/EvXlL3/Z3MLTSpA+iUAikAgkAolAjwjQopwfbJ3MlzHoyU9+so0rkVoMUj2mnGRjRSAVrLEiNmZ6ZzpWW201q4SLLrpoa2RmLXqVrxlcf/31raHpkwgkAolAIpAIdEegXgC54oorfCHHjhRPayza1VprrbXqqqvWUYKs1ac1evqMCYFUsMYE15iJo8n6Hs4BBxzgSnfxW81UphrstF/72tdK6rSu4k5HIpAIJAKJQCLQCYEYZWLHug1YJ554Ikrn0xvjiJVB/n/5y1923nlnZK3qVOvY1CnH9O8Rgdzk3iNQ4yGrW7CDhO4dKccJS3KLLLKInuBZeeWVr732Wluy9JO8d7Tgk45EIBFIBBKBXhAwdtCiGKjcvGiLlSNWrSOOG61vvPFG407swYpBKlWrXuAdB01asMYB2niiMMz6LkG06Tr+PffcQ7tiwbrppptOOeUUDd1ZQk9Nk+5EIBFIBBKBRKALAlQlA8dZZ51Fu0JG2WpoV/HBnB122GGxxRYre9vF8nRJNoPmBYFUsOYFvbHF3WeffXQAOlbrdEET1/qPPfZYh2Y5cuPh2JBN6kQgEUgEZjYCvmZrZPn617/ORsV2Vba0F1TsVEGw9957G2I8/EO1KuNRaloFq345comwX0iOkg5LlUnDBhts4AOcGnSjKfPR4hdeeOGf/vSn7i+hhEUHGCXRDE4EEoFEIBFIBOabz+T8V7/61eabb87RCY9lllnGAPTYxzw2LsFGZiQqClanWOk/bgTSgjVu6MYW0Zq3duy+hojWaNNauUfH+MpXvmLm4W7SsaWe1IlAIpAIJAIzFQFbr1itDB+xk70tDObtBx98sIGmaFfIGiNR24jpOW4EmqaUcSeUEUdFwMENq+PrrbeecxwMVF7rKBq6pr/44ovPnj3bre51ULoTgUQgEUgEEoEuCNjLu9xyy7W9XzRi2QfsHBWaLolkUH8RSAtWf/HsmJrbsKhQK6ywwpZbbkm7oks1pg58RNY93OqeFqyOOGZAIpAIJAIzHoEYL/yGw8Hzk08+2fDROEdVjzLPfOYzU7ua5IaTFqxJBdzJDrfA0bE4bMlqXLbLx/b2tdde206sWcy4sxacVOYys0QgEUgEEoFhQIBedf/99+M0zgMaSuy++p//+R+e9SohBSuWSiwg+n7Os5/9bFvdh6F804THVLAmtSLZseY8OMet7r/97W9taXfuo14oLCrXlVdeabYxqZxlZolAIpAIJALDg4CDUzbs0pywfPXVV8eQYYpu9l4KQQ/jY6zx6+vO6DlKaDomGoFcIpxohEfS18opUn4ZpWKnoVdL5o37rsKgpcN85CMfKYqX3lLck8Fr5pEIJAKJQCIw2AgYFHwJZ2ROfv8DRpYjjzzS7QxYtlbYYJyPC7Fsb2e7Su2qAc5Ev6YFa6IRHklfZ3hwzoPzLzByF4PX3/3ud+5ruOuuu3SP0L1qJhh19QSrhOussw7tir03ek5Nk+5EIBFIBBKBGY6A4cMyiE/iuNzHb9iu6n1XCEDkDPvPfvYzN7zPcLgmv/hpwZoMzLV42lVp90suuaRb3WXMZFU8vY5QzD8/x7333vutb32Lg7nLw5FPIpAIJAKJQCJQEIhPDVr++9jHPka1ii1ZMYIUmlhAfOELX0i7CmWrBKVjEhBIC9YkgNzMgs32+uuvZ8TS4ufqVA/tQ6z7hvsafv7zny+//PLNyPmeCCQCiUAiMOMRsDBiSeT2229/xjOewY4Vi4P1IBIIGWUuv/zyDTfcMBSsVoIZD+QEApAWrAkEt1PSDFfmE/YkWkQvOlaD2AKij6LX50EaBPmaCCQCiUAiMGMRoF3ZyOtsoIsVWxcHAxbbS6hWMZmfsUBNYcFTwZoC8H2pgOb0lre8Jb5pEDoWPmKGURj60pe+5EKs3OFeAElHIpAIJAKJQEHAOHLUUUfFXt7iWTvsNnn7298e6yS1f7onB4FUsCYH50fl4iyhbexbb721zVgCar2KOx7+N95448UXX/yomPmSCCQCiUAikAjMN589WKeffrrLFxrmq4fHkJH9J6uuuqoNWNByp0PxL45EcaIRSAVrohFuk772zXZlffDQQw8V7LXturh5idlJm/jplQgkAolAIjCzETBAWOWAgdutWpFwOsrqx7777mslkaHLQcJWmvSZaARSwZpohNukT52iVFkd33///Z/61Kei0FU8DTXLVq2zzz77vPPOa5NEeiUCiUAikAjMYAQuuOACly8AoDF20KhoV4aPRRdd9JWvfCX1y3Azg3GayqKngjU16DNfyXiJJZb493//dw5dwtPKyuMf//h3vetd4Z+dpBWf9EkEEoFEYEYhUHbl/sd//EfYruKChgICgridYc8994xz6MaRHD4KPpPpyGsaJhPtNnnNnj3biUInbClY+kDbbnDJJZf4us6//du/tYmfXolAIpAIJAIzBgH609133/2b3/xmhx12sLMq1j0aA4dXA8qvf/3rVVZZpQBT0zRWSwpNOvqLQBurSX8zyNS6I7DyyiuHEavLhaJve9vbUrvqDmOGJgKJQCIwExCgOS222GKHH354F+0KDva2r7TSSjMBkEEuYypYU1w7ZhKO0WKCgtWYVXiNhwXLg6aegkwx35l9IpAIJAKJwOQiYK3DxwedLjciGB1k3jooOKJu6fB973vf5LKWubVBIBWsNqBMppeb4tZbbz2L5fYkdspX0Dvf+U6h0aM6kaV/IpAIJAKJwDRGwNea3fJjY27cQV1rV9wxQFDCttlmG5eLGlymMRRDUbTcgzX11eQ6E1/FecELXhDXmWCooUixCTsngsZuLe6p5zg5SAQSgUQgEZgKBK6++mqXszuE7hLRVgWL+eqvf/3rj3/844033ji2uk8Fj5nnQwjkaD3FTcFsw4nCLec+NSu1IsWChew9735PFytXHTfdiUAikAgkAtMSgfe8Z2QgYJ0q2hWHx5Dhl3b1nOc857nPfS7tKqxc0xKEYSlUWrCmuKYcCdEx6E+W1bfbbrsw6vJhxNJbgrlyLvcnP/mJzhOeQhuGrikuSWafCCQCiUAiMJEI+GzzRhttFDkU+R+DRehYbmQ488wzt9hiC5t6Y3CZSHYy7VEQSAvWKABNdHBYqhZcYEGaUyhPfCwI6hs6jCcY4KnDHHnkkfFqn2OElt+J5jPTTwQSgUQgEZhaBAwBxgJP0a7wYxSwMshBu7IyuNVWWwWTyMKRv1OFQFbAVCH/SL66h32L3g877DD9ZNasWTZjFc0pzFdeef7gBz/40Y9+xPGv+//14JxHXc5b6DkeSTpdiUAikAgkAsOMgO+qWeK47777rrrqqp/+9KeKUmtXUbJYDfRrAdEQsMD8C5R1j2Eu+tDz/sg61NAXZVoUwOkPKlTbooQdmO1XH2PBmvPgHIauQll3udpdCNKRCCQCiUAiMHQI0K4cHqQ2OQhllwj+W2fRLkr8y1/+stlmm1144YWhWqX5ahAqOi1Yg1ALD/HgOOE73vEOL20vHY1OdcUVVzgh8sCcBxqfRxigYiQriUAikAgkAn1CwISZznTOOefElwdbtSv50K78fuxjH/NrcSO1qz5hP6/JpAVrXhHsY/ywSzkA4hK5TgZeU5l111330ksvlW/d02qrVe3uI3uZVCKQCCQCicDkI8CItfnmm7uppyHbDQGxYRdLTqKHfcvYkQrW5NdR2xzTgtUWlqnxtBPLBqwPf/jDekijIxWGGK6uvfbaU089VZfrRFOI05EIJAKJQCIw1AjYc/v1r3/9mmuuadxrFa+WOzw0Kle3261F5UrtanCqOy1Yg1MX87FgLbDgyPGQLjuxYt+VLxiazSy88MKF+1rZqt2FIB2JQCKQCCQCQ4eAubQrpn/3u9/Zw15ke1m+8FUc/jvuuONpp572z3/90xSdvjV0ZZyuDKcFa4BqlgVL/6Fmvfe977VpsfSlmkVXzHlmz5597LHHmtkUGo7y1PTpTgQSgUQgERheBOysIvCpWXURzLRdyhDaFZPVEUcc4Wg5m1ZqVzVKU+5OC9aUV8EjDFCt4r4GXrvtutspp57ySNjDLte+2wuvXy2xxBLnn38+U1aEpFn4YYTy/0QgEUgEpg8Cyy233G233UbCN7aO0KVoXfy33Xbb73//+ybY06fM06UkacEaoJqcf4FHesgH/uMDiy++eCtztCuebMIsxscdd5zeZVcWU1YrZfokAolAIpAIDCMCdlNh2zrgu9/97ttvvz2Up4YKVVYJP/WpTzWChrHI05LnVLAGqFprK9Sqq6668847j3w7vbrsqsHr0UcffeWVV7oFnkGrEZSviUAikAgkAkOKQGxgv+666+LmBaUo6lQpkb0iRofXvOY1T33qU4tnOgYKgVwiHKjqeBQzN9xww3rrrRdTmUcFVC+77LLLt771LXpY5ZfORCARSAQSgSFGwHYRCxr77bef84OdrFNULgrWjTfeuPTSS+fWq8Gs7LRgDWa9zHfvvfeuttpqr3vd67rwp+OddtppjhN2ocmgRCARSAQSgaFAoFx/6EMdrhU94YQT2rJdrFlveMMbll1mWR/GaUuWnlOOQFqwprwK2jOgC9Gf7rnnnpVWWsktvaVH1dSx7XHDDTe87LLLwn/OA74RPfIJnXq1sY6S7kQgEUgEEoHBRKDcEerLg26c9t2OVj6NC2G78uHaW265BUF86bmVMn2mHIHUfKe8CtozEGZha38f+MAHdCcKk0O5DVL+lupZsGzGQu9xUteTX9FpAJWviUAikAgMOAKm0+Q8qf6Pf/zjmGOOoV217v148pOfjEBBbMAyNNh9W9+GOOAFnIHspQVroCvdSvz//fP/fOD5f/7nf/S9OEJYc6wH0qic42VPXnbZZfU6c6C6W9K6avp0JwKJQCKQCAwgAqR9XDRNzq+xxhrOibdl0hWJNpBssMEG5513HndbmvQcEATSgjUgFdGejfv+dt/jHvs4MxU6U6t2xXxFu6JC6W9f+MIXENjqmCcK20OZvolAIpAIDDACcdE0Bt0a+te//jU4Jc8bk2RBjFg+jGNNg05mCCg7twa4cDOUtbRgDWjFhx04mHOQ0GlB8xUGqppdHa8mc+/oZpttpkNGf6u7Ze2uU0h3IpAIJAKJwCAgYGXQMsXll1++1VZbcbjsEFexaFjYI95dLvqc5zzn3HPPjSBDAEchSMdAIfCoEXqgOEtmivJEPbIeT3nStYqqJJS70IBr0003pWM9ZtZj4sLSQimodiewiUAikAgkAgOIAIvUppttSseiM5UN77WQ5xZkOHCDzwDynyw1EEjNtwHIIL7Sq9ZZZ51DDjnE8UCqUnkavF566aU+UFg+ttMIzddEIBFIBBKBgUWAyerTn/m0u6NtCAntiqinUXkKz7QrVzPQrgwKxTMdA4vAo0wgA8vlzGQs+pU+pi9x/+lPf9pyyy1/+9vfQoNnrAOWvhffKFxsscWuuuqqZZZZJmgCN8ThyN9EIBFIBBKBwUTArva1117bFitb1/3Gwl/IeQyHGF9++eVdyrPYUxZ7YM4D9WGmwSxRcpUWrMFtA3qUhwo1a9YsS++Up4985COO6epyfPh7CvfW7+1wd3vKPvvso2fa8B7R/RaadCQCiUAikAgMIAJm0QceeKAbdkjvol2R8AR4LFzw9/q5z31uySWXtExRFK8BLEuyVBBIBatAMaAOd4fGORE61k477bT66qs7PKjLNa7F0t/ijgb3NZxxxhkIlKfWwAa0eMlWIpAIJAIzG4G77777hz/84U9+8hMyPKbERHeR3jwZq/xusskm9r8HVGm+Goomk0uEg15Nuhkdyz9WK5MY2xuf/exns1eV7lcXAAHVyrc/fcdQDzQrauhhNXG6E4FEIBFIBKYQAfuuzJz9rrrqqrfffjvtigzHD3WqSPhwWLswebaGaCO8Y0xBNoWcZ9a9IJAWrF5QmkqaERPxLN++WTDsWKusssqrXvUqylZMdBqchR3LWv6hhx6qB6Z21cAnXxOBRCARGBwEZi04CzPvf//7Ce2Q3l7J9lq808B4HnzwwZYvOHwMjfrFkc/gI5AWrMGvoxEOw44VJwT/8Ic/MBS7210nLLOcuhhsV5YRZ8+e7RtVaUmukUl3IpAIJAKDgwDblR1XT3/6010WbQpNnpsYh2Avst2rDbi/+tWvfBUn5LmgWgMbnOIkJw0E0oLVAGRAX3Wncv/CIosscuSRR3Zh1MqgTe4Om6R21QWlDEoEEoFEYGoRYMFyvY7DSYQ2TkK1Ysoq2lV4fv7zn1900UWLPE/tamprrffcU8HqHatBodT9tt9++1e84hVd5jEmQ3/84x8HhePkIxFIBBKBRKAFAdNm9+8Q1y0hj3iQ9rvuuusj7+kaHgRSwRqeunqYU8t/VuV9oNB53Yf9mv+7ssFW96ZvD+/1zKkH8iRJBBKBRCARGCcCVCuCupim2qbCfOX6hrZB6TngCKSCNeAV9Ah7VJ/QfvwyYrlx7oMf/GCcJYnN7Nw6qlOENLAVVljBmV7nTeZGeujnkbQ6uIK+Q+CIt3xtGrD+6POIbNpeOxHLEmWZmSFmBi+W8E6x0j8RSAQSgYlGgFwioDrlIohk8wSNX/QObntiIS8i8i9Pp6RG9TcT9omzxRdfPFb9Qp5HsqS6h3a13HLLtV58OGrKSTAICLTfJT0InCUPDQT0uuITbr393//9312gwp9eFUdLdFGi4bvf/e7WW2+tf9ar9bW7JNXqCM1JOuhLpo4x3nb7bb/5zW9uu+22e+Y+LNv+JyBKCnS+pZZaasUVVzQni/u6BP3lL39xwJjqtsCCDyXozomyn6zETUcikAgkApOJgNunbGySoxnjtddee+edd/pOxh133HHXXXcVNuJe9SWWWMLOV/Jt6aWXJtlIOTI2aEhdD1FpctujgC2Jc1DaTDvdv/DSl77UrLUOIr191Pn0008PGRuJjyOLOs10TzICj4ygk5xxZjdWBIquI2K4Y7rzkpe8hDpVplbLLrvsf/7nfz5vq+f93z//jymrzmXUzjkyaZvzYNF+SBxyx/V3v/jFLy666CL9n7iRIFESYiUSLz2fg394OvZCzdpo7rPtttuahGEGk4TFyG3F8y9Qcqk5THcikAgkAhOHAF3KV8XM92bfOJtkcxLIQ9C5g0qmJBtbEZrCAJnGJx4H/RD4jg1R5muAz3jGM5773Of6XXqppYs0I5lHFbMlcQ5CNaT0SSed9Pa3v930lcpltmwTyF577fXJT34yPt2Bsk62dteppXvQEEgFa9BqpCM/rQoWTYVCozfqlueffz71yC1Zz3rWsyThgoZIqI7VY7dkczJtOv7446+55hr9n1gp0zV5kTXSLAqWNCNZnp7CPeWPMBKRUmUqRsHaeeed99hjDweSSajUsQpQ6UgEEoF5RyDkTxFHnRKkVH3/+98/5ZRTGOPR0GNIKpsZiohrG1Gy5B7pFwItaLwSs9S1DTfcMPahs2y1jd7FU4KEIVGJhinr8ssvd70OlqwbEpWULeWKe7BCzEZStbtL4hk05QikgjXlVTA2BmolplPMHrufvq0DExCRDilz1llnffSjH7355pvjTuEe04nowZjfOla4a57dRLz77ru/9rWvNTOTI92LTcsMkhG+jtipaOmfCCQCiUArAqSZWV9tGmeIIluoQfQVC3+f/exnTzvtNNcHRtxaKLWm1sWnVUxRs4gyAo0166CDDtpzzz1ZyP737/9bZrnmqE984hNLmq0plKC2jprVscZtm2B6ThoCqWBNGtT9yajubJ1S7L0TSg2x3VRWFT/96U+bQtlWJVlSySO0LPl1yqv4B2ORYPFs5YQcjJSpWUcccQRLO+JY34xpXImbjkQgEUgEekSA5LG5MzZ6ikLFsWxHsNje8IUvfOG//uu/6ECsUMxFkWDIqx4Tr8laZVqdFOG22mqrHXDAAeaQ3HS72EFV07SmUKff6p6XuK2ppc9kIpAK1mSi3Ye86s7WKbkeOzBd529/+5uJ3Re/+EUfarAVgPQJ7SdSjklhp1wa/sGY3zr32o0+aAgdbqobjWqbbbZ561vf+uwtnl1P+CLlRlKN7PI1EUgEEoFWBMgNmpYdqDfddNOb3vSmc889l6ghiEL4oA+hVF5bU+ju05BpQRyeMUUkNslSzyGHHELTqi8IrYm751KH1qy2zb0mTvdAIfBIsxsotpKZTgjUna0TTaMTxmSuQcx+blb3H//xH47S2Lpumd8MD435FgHRJRdBjfQj5YjSCG1LKX1RLA7GnJJK5yzkV7/6VY7aiNWW7UYp8jURSAQSgRoBcoN29cpXvtKGB/4EGjsWURN6j00RQdxFxNWptbobMs0rwYWMGidNy4IWBCNx7pVXXtkEcu+9966za6TQmkXDZ17iNpLK10lGIBWsSQZ8CrIL+RIbAqKvOo3sVLANlYRCg6Ho/EHGHa81TahH4cMWhTKI+RRiPsVd+3MHcWuoz2y94x3veNvb3hYp+3X3DJN+TVmC0pEIJAKJQEEgJmOUJzO0T33qUx/72Md8sLWEhqNVkhTBVShjOY9UDClHvlGeuIucbE1E3Lae/KUvBfc7rL/++h/+8IfXXXddl92U84Yl03RMYwRSwZrGlftQ0Yq6Y4uVvZaf+MQn3vve9zoeSGqQRyQId0GhFha1uxCEo6FmhWerwAr/Op1ONOHv2LNd9iRR2LdwWPbgNxjI10QgEUgEAgGqFTlmn8PrXvc6hivLc7VMC5paCoVPJ1nUiio9SXT0baO0plynIIroT3nKUw499FBzSPPGUONqmnRPVwRSwZquNTtSLn27dH4Sh4L1qle9igDS4dnMaVchifT5IjgKvei1u8CEMoiLYbwEdYpSpxNx6yjhZqyKmaItC5/5zGd8aTGXCFtRSp9EIBGoEShSwrUydlzZ8GC3Q32RVSGupVB4tsqiUKRKFCKOj1czPU8rfVC2plxSKI6YkboR8Gtf+xqblglkCUrHNEYgFazpWbn6c4iGKJ67iW+55RY7ym1jj+vyrBvSrkgNjhqCWljU7prGNxDJCBcruNEq1KwIdQTagURPI2L9GkLKL89wc2CVtocZ7NG0iEiKoEv26kzTnQgkAolAKwLmh+985zuPOuqosFqRSCRJK1kthSK0oTAROyHTnva0p5XoTP7uBfzjH//o16754l87WlOuQ8NNIJO33O7K+tKXvrTlllumjtWK0vTzSQVr+tXpSIlM7OZ3J8zc6ZfXM8444+Uvf7kzg2RKiJX4LVpOoICeeCKw4tUvoYCSxNl44419t+EFL3gBpYq5u6QclCU1Yuj3v/+9ux6+973v2eN1xRVX/PnPfw55F9vnuUkWJn1XvVPFInqRUOEI7fCFL3whU5aL6XlSvwpL6UgEEoGZjEBZZWOG595///1Jm9jG3gkWyhORFRoYQSQWkeKXKNtggw1czrzZZputtNJK9qSb4HnIHE+kVgQmNeuGG2649NJL/bqt1N1aMo1FAL+klteGYGzLj+2w7FhO9giNssRvW+L0HGoEUsEa6uprw7x+TokhRCgxejs5Ytfnm9/85po0REbtE24yhXDh1uH9UqpIARdW+QhXTL/qKI1EvPrMTrmHxsnEhZ+w8B/u/MN1111HmtDw+IRoi/1VkqpTCHEWvyNJPfggTY7Ic6f8ssssa2eo4uScr8Y/3YnATEbAHPKWW2/Zcccdf/nLX5JylJu2aJgxkmlM4zHNI2HIFmakF73oRb5F42pQX/Qy8yQqkRFQIYLqpNDHay2drEI6KnTyySd/+9vf/vWvfx2Jy6sQ1yk03DGBtNk0xHLqWA18ptNrKljTqTYfKosObOGPOqK3H3nkke5iIA5oSHSUUfs/QWNfOb3q4IMPZseOFEUvm82JgxHT2IIjWxPqJ6SPrEM5m7XgLN81DFFCbLkd/swzz/zc5z7nQxBEIUnU2CoR0f0KkmwkwsGCdckllyz11KXuve9e65J1julOBBKBmYkA7crkjUE9bmYntQiZokW1YiI07FIO0Oyzzz7uTWBGIiQJqNDAQv60RuQTMtPdWgRaiL5CHAsFF1xwwXHHHefzOxL0YKZtOsUTM2Sgxcf/9//+3xvf+MZw8ywE6Zg+CGg9+Uw/BHRasuM973mPfqvD066KUOjedt/1rneZEbYFxCwtJAjHiOr06Kc1CjIPf8z4tVbIwSIVX0tssIE9D1bJO/NRbHtF4wMUbkZmnI9EWnNJn0QgEZgJCJA3UUwTRfO0NddcM2RITMnKDJBniI6GhDFd/M53vkMi3f+v+/31jliRc61RQr6Fv02ubpkJ7cpveUKsxS/PYC+WLAk6H3iOnRtEa2v66TPsCIyo5/lMMwRsNVCio48+uvRqHbut0Kll0E477eQDqJMDBUkXH0YNiRNsFJFEYoZeGD5CWfKtMAZvRc5ODquZSyKQCAwCAlQQipGJljuuaFe0k1p81W6yTmiRLRYB2c4dMKz1oQkqke1ZsbmKChUshf6HpXh4FkHHgcz2fEWze3US2JugUmeynRBIBasTMsPt7y6GWFArnbl071oShV168cUXP/XUUydzCkVJMuFz23IwEL84LNwWh6DYevWyl73MSmXUSupYw906k/tEYIwIUK3MG2lXhMCuL9611l1qgdZwEykO9zhzMyaT1RhZa5LTk374wx8ut9xyIdaILw81KyRwQ8ph2FqhTfpSUbqUbE00h/x9lNXiRnvN16FA4JprrvFFd5KozKJa2WZRp8TY6vSSl7zk1ltv3WWXXVppJsJHf4n9VTbO2/x+wgknNO56aGSKySiFD/u8733vE2qBgJBqkOVrIpAITGMEHHMhOqgsH/zgB0897VQOQoBPlyIvs8wyNqGzXY3oN7Pmfs3m/jbXN3RJYXxBRJYLkwnhXXcdUQTt/SKyaE6dUrNEaE/Y9ddfH7pEJ7L0H0YERmmjw1ikmcmzDqxjR9k33XRT3VWvpsoUT72XSKr7Obljk9arX/1qKo4DgGRQXPU+OQCaj9oZZtLmtPOLX/ziq666KjhsVZ5IKEHKIujrX//6brvt1nqkcXJ4zlwSgURgchAIbUOX95QcbSR3qNkNLzZlFs+2jrXXXtvkbb311gs5U2hCyJTXvjtseydIiTUpE1nHHHOMneyEsPWByIsbDyVfAjl2RKyxxho//elPY/up0LrUhTgdQ4dAKlhDV2XtGdaZPfqqYylf/OIXC1HdUUO70of1djqK7yuHoaveH1oiTrQDM7S6OJjj46xWAL/73e9GpkUp9BrCKEohiu0UzuysssoqNc1Es5rpJwKJwCQjoLNba3NqL4xP5MBNN93kKj6X54X6EvzUyoqDgaaIfFzB4F4YBLX0m2T+S3aO9RxyyCG33XZbiF8iOhxBgMMoAoG23377ffazn+Vv6jsInJcipGPcCKSCNW7oBjEiHYWmYtJWmKs7anRs6pTHLoG11lqLslUTlFiT5ggxKjv7JF772tfa/M5eRVNsqz8F/4SsHWaKMGlMZkaJQCIwyQhQO9yMUO7VY4+nNp133nnYqEVWrWDxt5/JYR1XTFkfbFBOMv8lO5LN4aHnPe95lD+aU9sdDjhXEKLPRggmuhI3HcOOQCpYw16Dj/BPL3ETsS+e1gKodiOlo7j44LLLLlthhRXsYxCFjvVIElPkwhWNil3NHO5b3/rWyMx17nInoVPzH2R+P/7xjzPUtVXCpqgEmW0ikAhMCAKhaR39uaMPO+wwXV73r2VCrWDJ3vSSYZ5MC/+ackKY6y1R64azb5zt3maSzY6rTpHwzELv/lJ6WCea9B8uBHKT+3DVV0du9WFfa2/dmqDTFilDNol/2mmnOTZIBpkgDoJ2hSVy0y0MmLEj1XU1GA5WBRUByoEgyvLhD3/YekFHLDIgEUgEpgsCxJQtBB/72McUqIiFtoVj4mK7IiWc72lLMCWeeLbK6UyPVUuLm0WgFWb4xGP1kAB//etfb94rlGehSceQIpAWrCGtuIfYZnA23dEVfSHr+c9/PsnCLmWeFMH6No2E+kLooLHvysXuvqM8mLYfOiK2LQqsv/76LmgmbhSnaIcjQQssUIrmshmaIoHV5aTkQxjlf4lAIjCECMRqmg6+xx57uEcm+n4tEJQpxBrH6quv7qDMoJUSezXDX/nKV97ylrcoV2haRFwRaDgnn+3usMp5/vnnu/nvMbMeE/vPBq1QyU/vCKQFq3esBo4yFvWxZXHN6WVfiuCue6wOHEqJfqtXOzAY2pVuP3CFmW8+0sSfCetJJ5205JJLNqaheK6LZrfZxRdfnNrVANZjspQI9AUBU0fiSzf3ZeW22lXkQrg5V3j88cf3JdP+JlK0K+JXygcccMDhhx/OHYpXLdCExisx7uNmyn7/A/eT8P3lJ1ObZARSwZpkwPuZnbkO4cLwc84557A/x0ngsFpFNrox21W4t9hiC98W9b0ar6Xb95ObPqVFx/JtnA996EO0wy76k1A6pTwbelifuMhkEoFEYIoRINlIsPe///12f2OlrdRi9aGEuW7GvQxTzG7X7JmjhNsIYfOoYzrWGRStjqF0MUNm3DJ7dFYaDekdy4U1ZbqHCIFcIhyiymrPqh7oiMrPfvYzwTQSrzE9Cmo+lDA3XSF4+ppPp77Uoe1THAzfgw466Mtf/nKRqg15hEdBF154oUu/BoPf5CIRSAT6jADz1WabbSbRIgcaGRALr3jFK1yP1/Af2FfS2DZ2O03dN9Fg0qQxVgmZsrbeemt2OzqWaXOZJDfo83XwEUgL1uDX0SgcXnnllZQn0zgyqHW6oz+L/+53v9uivu1NrWrKKKlPRXCUwmdQmehK/m0l7LHHHtta5BIlHYlAIjC8CNx7771f+MIXqB0NDYMQi8fs0ebxT3ziE8oYE8uHQx5lHBoQBPCGEyqUa/zYsQi0hkxDEPZ4wvxHP/oRwY4+rHcDUoRkY6wIpII1VsQGi55YcXCGgQpbpbsWR/Bqxe2wQw+LTQA12WCVpOLG7YLeVlppJUUja6qQRzkV050Ot99++6N88yURSASmBQI+6qyDK0psfmiUKaz1RxxxxBJLLCGIsadBMGivtVi2HZZYbstz6GEuTSX9iPcuAnDQCpj8tCLQcfRqJU2fAUTAN9htwLK034U3F7u7MD0W+LuQDU6QdUzM2Ezmzr0111yzE2MISN7Pf/7znQjSPxFIBIYXAWfuMN/YCc7HLTO0Kw7CYf/99+cgB5jqh0XELbjAyFLgZz7zmYZ1qpjfOFjvGLGId6ULlYsjn6FDIBWsoauyRxh2xsT3tkiW+mI6vbHe577hhhvaoWWqVC+3PZLEALuIS3NTGyzazuHM8KwdkFAuaxjgQiRriUAiME4EzjzzTIuDun/D0hO3/dFR3vrWtyKwKzxUloa+Ms5cJz6aCaQPUbhVZ9111+2Um1KHeM+DhJ0gGgr/3OQ+FNXUnknzNgdSLrnkErKmrADGdIdIYpGmgrg/Bg2C9kkMg68tC66nb10mIIOokkrw85//fIMNNqBoDnUxh6EqksdEYMIRIMHILt/y2m677WTGHT4lY6/6/nLLLXfzzTcXz6Fz0Jzcd7XLLruEEDNJpimWUhDgJB6xRrg1il9o0jH4CKQFa/DrqCOHZnK//vWvBdfKB3lkVqfTLrzwwm6TcgYnJFTHVAY+wCcy6gIWfkMweT366KP9pnZVkElHIjCkCNh1RF5hPnZfcVAvGmWJmZUbOxE3gobllewipa0trLrqqiGxywy5FIH/7NmzWz/OUQjSMfgIpII1+HXUkUOfPr377ruJm8Y2BSKJjyBbKW1W0FEttxV1pGNygxqw1157hcyN31Y244oK/nEXfCtB+iQCicBQIBCrgQ7T2VraiWGizIaHffbZp1X36hRl0PwJbSVVin333VcpWneP0R3524P1o3N+NLzFHDTYJ5+fVLAmH/N5zbH0t+985zt0jtCceJYnZoG2gu68886zFpylMwuicg2pjrXIIovstNNOiy66aCfgmPFM9ZTRN8s60aR/IpAIDD4CZJe1M2t/t912WyduqSY+O+jo9JAKtChXTBctEdpOSnY1Chs+gr75rW+WoFayEpSOwUQgFazBrJfRuWKtcQtf2y6n61JKVlxxxbXWWmv+BUZ2YtkEGncfoI9n9AwGg4LAJU/33ntvBrlOFiycmu+6pN7W0cHgOrlIBBKB8SCgs1ObLrrooi7KE3vPbrvtRgDWh3vGk9kAxHn6059OSpPJhHQrO84SEvJmyBHUauhqjZI+A4VAKlgDVR09MRN6xq9+/as77rhDhBH9acEFa+WD3Lnnnnu23XbbsmRGzRr5m7u5oac8BoaIwMWL7/xQnrrwf9lllz3lKU8ZGK6TkUQgERgnAkxTunOXzv7kJz/Z1tK4zGWceQxSNDuxsFO0qGCtvLoM7IYbbqCBDRLLyUuvCKSC1StSg0ZHBmGJalW6YuHQ5E+HtD5IBo1oVQ8/hWDoHMsuu+zITfQPz+Qa/PO/9NJLlbLhn6+JQCIwjAgQbp06u+Iw+ThCOIzlauWZjWqHHXZQ2IeF9EP/oywIQGPOAyPHpYflHorWYs5Yn1SwhrXqbTyaa7p6yLBcT3Ec97V9sssVnUNU5iiX73b5OFesGpA7RfREQfjfeeedeWHMEFVrspoIdEKA+GK2aRzciekTaeDZfPPN6SWiT4Muz0LvLgb7ZRvlDXVxvsEAAEAASURBVHBC0BH11h/4KHsn0NJ/MBFIBWsw66UjV/GxKsHXXHMNBSvoWvcrkEGxuFYnVE+Sav9BdodgdeXEyKLA3PKaxpWCF84pWHFjRfFJRyKQCAwjAiSbe+8anNe6xSabbOKOAwRDd3lyo1BenfJe6PELMc/XBazJ6FjllHTuwaqRGQp3KlhDUU2PMFmMN3fddRdf3VKva3ROSskKK6zQqoU8ksqwuZRl5ZVXLhbytoLGrLeBw7CVMvlNBGY6AuaKtpbGtKrGQtf2kH7mje6OqoOG2q1QNnI4kNRa5FIuor6tfasQpGNgEUgFa2Crpj1jj5k1sunbxZu33nqrztmqXQklhnyEISZ5+m152qc4DL6kKgXLVaLK0lpk5TUR/O1vfwuQYShN8pgIJALtEXhwzoM6cqfjgaZYguJyzvbxh81XebG8zjrrlJlzawnY8+KS9zLDbKVJn8FEIBWswayXjly5b0EYJcMNv62qRonGgkUXKa/TwMGIRc1SqFYtKjRIFqxpVuRpUGtZhERgrAiwYEVPbxsx5o1tg4bRMzZXsWAx3ZFsjSdKZAcqUc/dRQkbxrLPBJ5TwRqyWg4dwn4jcxq9sS337MmO3bUNGl7PMGLhHwKt910x6ZnnpYI1vPWbnCcCEDCBZJv/61//2hBuYdOiZzBfmWu52G96wBU600orrURoh3ZVlyt8iDU3r7ZutK0p0z2YCKSCNZj10geuGhKqDylOdRImr6FCuX20wUtKnwYg+ZoIDCMCneZI5WukhMCIgjVrmihY6qghu0KpalW2UE4/kT6MTXRMPM8aE3USDxQCtTCaCX3PLNYuBKY7Iqku+0BVSjKTCCQCfUcgtJDYg1W2IoUWkgtnfUc7E+wXAmnB6heSA5fO9FNBigWrgfVMUC4bRc7XRGAGIkCmEQJFo9Lxp4GUG7UIRb6NSjkDm8SAFzkVrAGvoDbs6W//+Mc/GgH6XnkE+dxEg2AavCpgyBrHCevixOz273//e+2Z7kQgERhGBOLEHM6LQOOIPVi6v+XBUqggKK/D63AIui3zyusR9Le//U1h29Kk5yAjkArWINdOG958XlBP89297v3tL3/5S5vIQ+6lUHa5Knhj10JA4QtlIYyGvJTJfiIwcxHQtXXkVuEWF0HZfFkk27Tp7D6DUwrVqeIXWWSRTkHpP8gIpII1yLXThrd/3T+yv3uppZZyqo6pnCSKp0FariFt+A/1q5spyFk7MMjZh8s98j8fv0sssUQcZh7qMibzicBMRkAX1pEJN0+NA3/ijlJFCBR/vb64h9dx/wMjd+50L8vSSy+NoDGxHN4izxzOU8EasrqOPmYFsDaVN8pAEjnnzHMaTPKUt5Qi5nmtgkZ56VgwSQHUaAn5mggMFwJmUDqyHk2+6fil73OEChJCIPxL6HCVseaWyFIuhYrS1UHFDY1FF13Ua04gCybD4kgFa1hq6iE+Q69iwrFKWLOuf5aH3LnooouE8qlphtEdSwM4v+2225jllKj4lOLwBIiJL0lUPNORCCQCw4jA05Z/mj2mpS+TZh4Fid/bb789vlTodRooHGQXW93VV1/dpaaYr8i3KH4XsgwaQARyQBrASunGkkM0gnU2d7V3ohN60003+Z0GClYpo7tV3YWjROZ8RfhGKJULLMsss0w5v11ipSMRSASGCAFde+llRpbDiK+a7fCJjn/DDTcImh7CTSk8xHUX6ztRH2ikfKubxFC4U8Eaimp6hEm90Yv+5muDDT3jEaL55vNF+nI1X+0/dO7YX0X6XHbZZVHwQKAuiInsk570pNVWW601qCZLdyKQCAw4AmZKOrJVwi7i69JLLyUAdfbpoXAo6bXXXtulXtZbb70obxeB3yV6Bk0hAqlgTSH485R1WLCsGLad+vhgautS2jzlN0WRH1Io5zzIghXTOL/hKBx5dXEDC1bxSUcikAgMIwL6u46sO3cRXyOiYO43kqfHhEpJWbDaVlZoVF0WK9rGSs/BQSAVrMGpizFwYtl+00031TNDxLTqWBSvH/7wh+VGmTEkPZCkzk6effbZtV41omQ9/GD5aU97WuPY0UCWI5lKBBKBURBwE80666zTlih6/LnnnjttPpVjt5niKFejvEV3dAEYUZ+2qwY+w/KaCtaw1NSj+NTfTGvoVTY/hmJR61g6J38aSaf76x6V1mC/KAgGzfB+//vfczysUz1KHinvJptsMtjlSO4SgUSgJwQoT+uvv34XUl8+vu666+hhXWiGJYj+RFC3zoQJOqulpLqg5ZdfPmePw1KhDT5TwWoAMtCv9URnxRVXfPrTn86HeuGppzixNeE73/mOyxpqxWugy9aBuVAiTz755C5LBsq78847d0ggvROBRGDIENh66627qBRk3SmnnEIPG3bhplb+93//96STTuIgw+tKol2Fj722KzxthToo3UOEQCpYQ1RZj+qEut+2225LDLHxPPGJT6yLEVYflxqcd955XfSSOsrAukNx/Pa3v90qcEO5xDkoWLBq7XNgi5OMJQKJQBcEQmdiwao3sDeUDzQUrPoqhy4JDniQ9cE//OEPmGyIr4UXXtjmd9Jvu+22mzbroQNeFxPBXipYE4HqJKW5xx576IF65r333tuapZM4n//851v1klbKQfbB/09+8hOnbBp33oTMVXbnB+1RsCu2y7GjQS5g8pYIJAIFgZhQLb744qZMurZHEGVLfy8Pn6uuuuqnP/1piTV0jvIx2S984Qs+g6NojSLcfffdhJuttDvuuGMjKF+HCIFUsIaospqsbrTRRssuu2x8BrWEFbM5heOSSy5xP6cghuhCMHQO5qsQuzXnihnKpWXQXXbZhTBqFVI1fboTgURgKBDQl/G566670kK6zJq++c1vDkVx2jIZAs280Y3QrRuwIoq5pQOVhHzbFNJzKBBIBWsoqqk9k9bpt9pqK2KooWMFNX/Kx9FHH00X0VdDbLVPaIB9b7zxRnsUFKHmP+ayoWM94QlPeOlLX+qDqcNuqxvgSkjWEoHJQyBmSjq1rz6H8tHY5xAE9mUSDpPHVl9zIrqlZ+pIRBPURbiFZPNLA7PTg3ifBgeV+orckCWWCtaQVViD3X333ZdPbLqKoJA+hewrX/mKL0swNTf8C8GAO4477rh77rmnwSR5FGsHNMuNN97YV4MemPPQjRUNynxNBBKBoUNAB7dKuOGGG4alx1SqLkKoI77fR7jV/sPiDv6tLRBujaljKUIUOcR78UzH0CGQCtbQVdmjGH72s58dF2IV3+i95dVW969+9ashp4rnsDh+85vfHH/88W25jRKZ/L3uda9DsOACC7YlS89EIBEYOgRiNvj6178+9AyvxFp5ojg8P/zhD7t0dBhLZ+nzU5/6VOzfqPkvZTQlfuYzn8mC1WkBsY6V7oFFIBWsga2aXhnbe++9u5BaOPv4xz9usV/X7UI2aEEhWN/3vvfdcsstbXmLff3uqth9992J2jxo0xal9EwEhheBbbbZxgXC+G+s/of6FeV6//vfzxHiYlhKasFh9uzZxxxzTF2QBvNWRV/5yle666sLTSNKvg4gAqlgDWCljIEl3W/PPfdccsklO8XRme+77763vvWtjD2daAbQX7nOOeecb3zjG514I4Ack2RCpzia7XUiS/9EIBEYUgSoTQcccIDNAK1b3YvaccIJJ/hkRXkdipLSFw855BBTxC5s294e64OzFpw1FIVKJtsikApWW1iGyXOJJZY48MADu3NMBpkwdaeZ8tByNTON0L6rgw8+uO3m/ZBKdomSUwcddBDh20VOTXmhkoFEIBEYHwL6uFXC7r3bFYCEAHFBaEQug2/N+trXvnbxxReHBOuEzH777bfooove/8D9aZvvBNFQ+KeCNRTVNAqTFCwbvSkcLoxpe+qE0Pnc5z53zTXXxHb4wVwuJE1iwwGhqUTu32tY3ULUYj4mtW9605ue+tSnluUD/p5RkMrgRCARGBIEWKkpGW9729vw26lr06sc4nn1q1/dOGk4gEUk3Ag0+0oJN3J4rrh66DscJFsIN2zbXbrUUkspEYIh3Ts7gOBPFUupYE0V8v3M13cJX/va1+rAOmQcAG5N/YYbbnDy+e9//3uYfKJ7x28r8ZT44Dy0w4985COnnXaau7sayiJuQwyxrq+55ppMXPgMJUzQlPCcmSYCicAEIRBzJ1uRKByy6NTH7RA444wzTjzxxGBjYJUSsouwetGLXhR8mvRSCnnWDLt0hj/tygWHyltmjxOEcCY70QiMnM6Y6Dwy/UlAgM6x9tpr05/++Mc/dsqOBvPc5z739NNP14ddfV7IyuSp+EyVg4541llnvepVr/rTn/7U4AGT0VY5LB26AfllL3sZAaQsNf+1u5FCviYCicDQIWDnwMnfOfkVr3gFq0+jd5fBi45FWfH11Re84AVuzzKH7DTPnKrij0wXH/u4rbfZ2ncp4itABFdhJgoSPmuttZYLomlateJVKNMxXAikBWu46qsjt09Y6Al2WcXZuiCK/lmLJAYhXyckqvTejglNaQBr//777x+laGxdJ4Pqu69e8pKX1BJqSrnOzBOBRGCiEHDFnXM8G2ywgQyKRhWZhXCzo4B2ZcbIin/TTTe1kk0UZ2NJl1K15157XnrppYQYbj3KUj8SoxQSepZElSi1q7GgO7i0qWANbt2MiTN7Ic3ett9+e7Fi9kb6cNQKllmUju10XmwdFdQ6KRxTpvNCTLiUXe3SYbtyI4MPkGGpcIXD+gnFi6j69Kc/zT8WEDnmhY2MmwgkAoOMQEgzX6SgduCT3Ki51f3/9re/+bX6duedd26xxRY2OQUNH5KkJp5MNx7MAD1WFVzXTuQSvCQwbgXFEwSY93DjlgDfbbfdkE0mq5nXxCGQCtbEYTvZKVsv+/KXv7z88svrrvKmS8Xx5jIZ4mOGRJVxe6dzwq5CpqxMlQwiYuZf4BHd6Oqrr1533XWtDHY5DaQg5n/veMc7XH/VsG9NNtaZXyKQCEwiAvY/vOc975GhFUCio23O/Kkm7n+/4oorENhIMIV7mAhh8op0JanckuPLiQQvd227ilJQrfCJfumll/785z9PjxzYFYa2sKdnFwRSweoCzjAFmSfpqK5scFpQT45pn44awqjoWDFPoloh8zlV06kF5l+gk8Ca0PJjyUOjkrvFTeY3vLHzEzSd+HFS0koBaeX78yE6O1FOKOeZeCKQCEwyAiQDI5Ad4lQocqNT7sjuv//+5zznOZ/5zGfQMB11opwcf9NFYvbrX/86TjBGxDXyNWOkUZHYOP/Sl7607DLLTtWMt8FYvvYFgQXf+9739iWhTGRqEYg5EB5Yd9jGL7jgAm6SSJf2cMTOShqJx0TKr/0K3/ve93xsxz2lYfSakiJogeampA+WcI6TTsy4fM/pQtpVFz47xe0SJYMSgURg8BEgwTbbbDM72UkJ4kJPJzGwHV3eLwKaChMRifeDH/yAz3bbbde9XJFCSaQ78VhDfT9jl112IYpNd7GEsciooSDik1L1lre85TWveQ2CENRjzSvpBxOBjtaCwWQ3ueoFAbMlH5CxoZIkInFEic1YpFLp5JEO+WLm9IEPfMAX/epbPfmH2Oolu15obLeqb8yLqyJsurLjnj0fkw2hU9IkmMzw0LPG+fi8j3NNodm/cJWORCARmEwEiLLYc0lfYcdiGYrZY+GBvCraUvF83vOeZ9HNlS4kDIKw65fQVvoIGqvoK9IyTi+SdXMenGO3xmGHHRYJlmVBr9iO9EMU8yGBbR377ne/myuDAdd0+m3TKKdT8WZmWfTwf/7rn5tvvvlVV10V/TnUF12avlIw0c89pINnxx13tHN85ZVX5mO10W+tb5Uo43OEdhXbEXDCgZNPfvKTRx55pH3rzGkmbZ0M49iwKIDm5JNPJlhTuxpfFWSsRGB4EQgZFUKM20UzLEOKw6cWaHUBY7cTjcqFUi7MO/TQQ4UWmSYRr/EbsUi8Er12F8/uDuLLXouYQzJc2cbgvHZJv1awJO4RVELXWWedyy+/vKH8dc8uQ4cFgVSwhqWmxsAnhQb1n/78JzrW7bffriebWnWSRHo7YjQ+7eeCuze/+c0cJJE5X+OezzFw0EJKABXdyK2AtlP4uoVZKc/Y1R7SsyXeiO0NjWXEQ99waLGB4TbYbqVPn0QgEZj2CHziE5945zvfSYC0LWloMHXQ6quv7uY88jCmc7EhYcEFFiznbGp5UrvrRNq6CVv/Igox+6EPfchM1RyV8JRLRCGv4qlTIPEw42vWbr1abLHF6qB0TxsEUsGaNlX5SEHCnE5xufnmm62pUZXibPAjFO1cejtvH59xnYw7351GLCpRO/Kx+YUR66STTmK48h0ukckXyhO5g714bZsiHo444oh3HPGOBRZ8yLQuCsoxCcG2KadnIpAITBUC5nud5lRdWApxQXfR/T/4wQ+++93v7jRvjETItMiIDUl2jsh89KMf3XTTTfnzqSeQtTyp3V2YKUGE28233OxotsM6JrRmpyQw4SaLoCnaVciu8CTZPGxXK620UjGtlTTTMT0QSAVretRjx1Lo8G5vt9sJhQ4ffV7nN9lqG8eGANMvnwDbeuutfaRim222IaF4hox40OaCB0cWGUmoVvkYNOFP6LghkAQhraxU2pxuB5UralqXAkOc1UKtCE35+mwOc5ccLRR6LTzX9DxlZ1WUnCr+Icv8tvJZEklHIpAITAkCMeOKrAmc6Np6q/4bQbGfqcFbEPBEw/hkfxWLO8pQmBrEkgohUPuTBqxZvhWx0047cQiyS4HcIKmCrGRRx5JdkXuS9Yi18MIL2+364x//+NRTT/3Rj36kFHfffXfEQsBRfqVJpnkt/NhX6lKGU0455RnPeEadUbqnGQKPVPk0K1gWpyCg5z/zmc/89a9/zYck8htqViEojpAIXgkCksgMz3Kh7Vkvf/nL11tvPXFpZkVqhPJU4hYHUcI2zi7l64dnnnnmueeeywZOCErTXitZF/0popQESwoykoIDzLQrq5b4xwl+inhCWVjllmCEMtrZMn/HHXe4rmKjjTaSgtAivkv66UgEEoEpREBHLv1X59VhL7vsMt/4Yj43rzMH09+JmsJhTc8zejQrkV7/ta997fDDD7ffoBYOJWJbh6wRk2xMWc5QO2lIuJFLpFNbmYaYOAqpxU2UIbbFilJFtfJNerngpBZrtUwLt1Bxpc8h+iqrrMJ29aQnPqlse2jLanoOOwKpYA17DY7OP3nk4quDDjrIZIveo3t7ukQjLMgaWo6IyEwuCQUihil73XXWXWHFFQgm4okS49K/+qYZH7qxKPmLX/zCL4kp0xBkhSbUIJ517rUwCn+yVabf+ta3SFuhchcR57XMjVhBL0GvtnY5tiNrpcO8+eWb3vQmm1vDrFUvB9S5pzsRSAQmH4HoziSDI8wO3NnDoNvSP9h1XNG37bbb6uy1oCj9necctvE5DxRp4EYGd03Rt2r6LiUiCkJhihTICgZ7e6FWWGEFdx37XX/99Ut0xOTYXXfdhdULL7zQ1Tb2sPslIRWhkDkAGGdxQrQWbhFwk2AcShf2++c///nuxyHipEyElkTSMQ0R0Cjzmd4IhPDSyd3FEEYdMqU05YYsKP7haFBSdPjUnnwIjni4S2ocNVkj2foVpUfc8hBw7G0qhQCK3WNUPfzXT6PKCFlFq3MkPSW43HLLnX322SF8G1G8RoKt/umTCCQCE42APQMuUNBnqRokAJng1ytlxRff5d7a3/nQYGg2BEIQxFmZn//856xQtVQJdyRb+3ff7URiiNKIxZMwETHsakXIcJB7bTMqiXCEWEPG4de+sQBWKSYa4Ux/yhFIC1bd+6a/2/ewrPeZkGl5BBmBZVIVs66xFr4WQ+GWZkmkdhfPLg4ijO0dge0R9ooWyjqd1hyDzNYHOpl9ZhKp93iFKDTXfNaznuV+wsUXX1wKckFW0k/HwCJg48u/7h/5lpx6VIkcpQGoZUYIr4+Z9ZhcZBnYGgzG6EAM3qFe6M5qbfbs2c4A2pfZKnz0TTXLjsVQVKw7pd4lSGR5jXS8chBfopiJvf3tb//GN74RG8x188gR/fjwqTMNt7w840tNrKWWWopkY5xLa/q4MRy6iB2/OTB0JUmGe0HAopslPNd7mnuRboRRCKxe4vadpswmSVIC0blFl11ZIBhrRldeeeXvf/97si9EaolO8iod4evcos2kvkRB1jubjUDBPYUyHQOIAM1JC/Foq0a4GOSCTz5GKU9qVwNYcYUlvc/j0wul7nRGH7GhZNCu9FZ6cwmKWDxFue2222xRCp8GQXmdq+2MqDv0b42EDDnqqKMoWDZyRcS5mY9Tu4oU5v0Xt3iTjpufmdmcGapngPOefqYw4AikgjXgFdRn9mxesHfq2GOPdYBlxRVXNF/U/4vM6nNmXZMjSYussRT4xje+0feefUk+FKCuUZuBN954Y1i/iNRGGCkcapb9775EQcD99Gc/RaPUngZxvg4IAiO15hSqo1tzH+1E/XqsqlCL/UbLCTLueB0Q5pONgoA+7lFNIWEcdjHBs1FSh1VlOqaqbHTD0oWdOJZO76KJmuUhQOzC3GeffeTrlQpemJl8RxSN5nfif534zRO/6UtfSo2ryeckc5wqBHKJcKqQn5p8yS+ixyilnzPnOOfsWjzWdTNLcnBMPNWyL9x1CrW7U7KmtnhwXtq3CDfccMMQxDaTxkaxiFWn05pj0Bx33HEWFuvQRo5FavNXcJqWq5Zta7WTw/6PBnG+DgICDBhGyuuuu87KbxyAxZVWGg3YwGluYIOdSlx77bX9rrHGGmVFaRD4Tx4KAqSNWnOb3Wc/+1ndLYQPVUOHpYLESZpCzJOAontZTTvwwAOLf3GEQKjFgiCx+IgYZLL71a9+9YY3vOH888/X36nmJXrvjlqehFsWnt5T0CCds6FQLvyEhS12h75Fp5xata93/pNy3hFIBWveMRy+FEJMFGFB9j20fDb3/j0iKWTciDgZTaDUYqgtEJGCNC3rcBOsxF98QN4XuGybsF7QRdHpxECdr6sZfHSMjcqKgzG4lY1IpE5qtdVWcwGEK1Vt4kFvpUlonWZrIunTLwS0AY1BpRtptLSoOIu8F110kRHRAXhKtkP7Y8qOvmUV2JVvPjzCTmmdSBYxmBlf1azXMSWYxONDoNGPVC5VySyOw2yqpFl3xuLJoZo0D7XpyJ5JVx1U3G3jNjpvVLoWRatzZI/8obTxbI0bEcO/kYgca5+gqVMQajboTixs88c5LYoGyVjFiuYq1MJzcSArimDxTMe0RUB95zPDEbj/X/e7zcW6oa3itUCJRt/qU3cGod2f1kTYG/bff3/rBTQtoyx5ZCAk/trWApq2T01shZG2FBNEwqv1CQ4bbBPibqMxnEsKG3WC6Z44BFS09qZOYe73+uuvNw7Rjdg2wi6lXgxXKrGur17cajn0eJZRZ8qYRd1wq2lFWeQ1cYXKlGsE9GhVrKIdqQklSZ2qmlpQdKlQlOQDbaxOs3aPKhCCWNV7KFWujIldp5EpZjzhLiw1Xot/LUzCs3AuCKvxqsVG66Xff/zjH7/zzjvx0JbPbId1VU57d1qwSn+ZuQ4CMbQTu14uufQS1ixbUMER9zt0x4XQ6U4gVC/ya9gjfXyEx35P+8DqWIQg49P/b+9MoLWqyj7+McjKsFRGSwivgoCmkGNiKYqVmDigYoiSglOtDE1TWy0+CDIUB+KDMCdIxYihJMsMDZcpuiqRMiOEUMCw1AQrx+9L8Pu998GHzZnue6f3nvfc/8F13Gefffbw2+c9+3+fPSW2qfZsGNjckXTJ+SmnnsIHnT8i44EtkrSo2DiWFU1Z/6Zh7Xo8OflkE6DZw57BqmzYNtBALCDEwQtgVgcaKg5Ec3Yk4V1r6nglaNQ57Ja9Tp/+9KexJfDKESf1G3ltwkjkbkICf/3rX9E0DOumZs2og7Agfuef9mOkjlgm6he/+EXi18ByGH/Wow2LYJ8CIsST7wO72bAuKOu5PPPMM7Y6KE8RlSUUj9OiCmP2MHhacSwMMTDtcejQoSeddBIb0mNEZyApK3Vx5l+YpXic8bvyKRIBCawi1WZDysJXg5HvfAj4HvE9sGlZ/PnIzDvm9NH+cXijFU8g/ADF75rPySefzOBWVkyu2avG4kfScctUHemSh8YILCsCW+UgDdk6I56N8Gtod8m2ySmepb3nL9Errrhi7Nix2LQyvuzxmOXTAAKTJk266667mClGpdMAUwUcDYgn/gh1h3HC3i7qlHq3thD1zMC7M844o6amppw3Nh6zfMoncNFFF82ZM4ffNdXhPz1+7PzQPJK0GqdHjyWRTRWl/RLjz8brlNQtEhwoHqJCYaPgeTc2bdr06KOP8jckHYhmauJuPE7LahhzGIZXl5gZ/8cIB3QVQw723HNPHrF3z1YPCcN7wXGEcYb+chePgARW8eq0fiWyr0D4LbDvmvnwLWDRLAYasy/E+vXr+eOPocf8/cc3yx/x7yAfU0xTrLbAGWOV7UTBh3WXjrsg4IjKH7Es+iUbHLKzmH933FG/ktSGZvIRExJZqNBFYTxdizZMxdzdunVj8DvjUvl7F7nGF9lRhIEbkKvW/Aitmoke3hnW7L722mtp1VoECCNjWGuXKqbpLTX/bdr+7//9L6vBtUhmipcoSKnfG2+8kUmCiaULf0S8Eqa3+Inx3aBGhp04bNbNs+gpxt1hpw58EPzDkhhbwzz9m8Pj5IfPxfInl69es5pJFQz7w/BmawRa5HxDTCCSW/R6p06dmHltq70z2o8PnYmqMCfE70mQf3eHYUIOob/cxSMQbfOKV0KVKJuAfQLiHwK+Av4hsL4b/mhzH8Z1soPY5s2b7c9ES2LvvfcmTEmXtGn77pbSOpB8mOwW8WMnC1UU/pFEPXJ3ZOc88S4fRD6LdDGwkiFrFRKG/IR/Oic+FXry3aSRwNphnjxLDGEAucshQOWG9YhJY/z48Vit8IzUezmxNUkY3kbeZOYeMuaarhwurXUnSxxNkkSrioTfGqIZdHwEMAgxYYUVRPkCMLoukUMI2d1EwnruE/57Ar84NlTm0+FfCQ+TGFuTeNp3iajo0ePgx45MtA5Eix+9xUY69AByxofwHDgSV7j1u/ZsWv7T/O0pnYtEoMU+dkWCWNVlse9FpAh48hXgzAeUL6b9Kcmnx/xNaYUPmtv/4sQCxD8LjGfpb9F225fDiaQVv2zMB8gS5UNJ3xPbnNHjQDua9sWPJ40P4Skp5jcmV7LRNT60AV60xEfkmUiAxglbJqKKPiMsoLxLtGGmchLDN7cnRgheD9QArweLgzDwrn///mZga+6kCxw/G7qz/Qu2berXvgNphY38rvlN8acLiylccsklnTt3xs1Xgw8Fj0dCpkXYhP507cU1kylI+6RYrtL0H2E8WJ25qnzp6sySAjQTAQmsZgJbNdHyXYjn1T4WfAj47vDdZFUFC2PKiS9jaLgKH/c/al2EWfxEVeEPECKJTDJXkbUYGEZGxsJ8Jrptx1a/hRQYPHgwjccnD/+kVgx3LOU7qPE77rhj4sSJjHqxsSlpz9rrkXa3qfxJxdZhwsH7wKyLqVOnsoJaU8Xf2uJ5/PHHp0yZgsDih8bPzYoP4bS/Z8DuiHg3+HFdf/31TDPk3UBdVfhvGDLAl4388KWyXIXZ83y6I/7pCz8pPFvh75tnTI48E5DAynPtVC5vfB3CxOr1vQgfTHPb1yfyDQoTzf66pUWb7W/JYcpaunTpuHHjGEmGBYVH+JQjnjBjhBnIiIr5Qd/+9rdZSoDwHDY2PyN8a74FVfDSaDGi5eKLLn7glw/Q3GZYrexNgxginqmFOHgcpWvuNJI8ZQdGqVLXTm21mo/VUdqD+BOMM8E4k7EhQ4b89Kc/JZ4KN/AZOczhLaoVDQQ0HLz/bE7FTAWba2y5NarxnBtnDFSIbMJwCWqGLn3nO9859dRT+W2yQ6iFyY4nHnOufCiClS7MVRqTMIzcxSYggVXs+i23dOE3jmfsY9GEHwj/AIVxhomG/uVmurxwljTT/jFXzJw5k0uWn+BRRAB/woZ/hqbFZ3+gMwuSsVn77rsvf3CzuiAPqklOJIYxg9WtRo0axWB2egmpWZrkNKtGGANNL5dUkLHlkvVCmQBIG8xuwXammbdlSDkz4of+R2qWkAgyztSIm1LCmEM3+SEYgQlJWripU3aOortQdRqCCt3YbzDiMrmYtfUZwcbW6XAzXWvB0n6/HTt2pGoIbD80HJiE6Ra0IU32Rw516mmlxeMB8uzgdQqzV9VlCQsid4MJSGA1GJ0erDICNKjr1q1jHhnjgfj2ldnq0ySYwDJBxurzzIMbNGgQioHekCpDUJHsgpcByzTG2Idc7kTaHssItWD+Vh002IyIYv4pK5MdddRRzNjaY489UEKl4/0FRLwE1uQjdpncylww5o0y6x7LirVqicl5olanhHTZh3pDNBw56Ej1BTthd4CaMeCs28KbD2dqA7UUIWzY/RF3EIwfGuFRUUcccQTj3gYOHMhbwW+KurM3hOoos5/Oo5VDBKqDAD8AHSJQbALWclurwHnhwoX77bdfmb9PWg5aFNoD2gkeoTGgVWDlm1//+tdEW2xuDSgd8zdRRQ6qTsg2vA+pinLFvsgiICSK7uGMeYPDai0tJ5EqWLVq1bRp03r37p3W3pMfbtldEqUqLYc0/+wcN3/+/Ozk0rJRvf4ArLPI7F/E4p/gouvWfgj8IsKadaT4m9vPFuyggw6iH9ZW8Ed5U61WcV595MGO6iWpnItAnMC2eafxG/IRgQIT4FvP+Gs27bEGAPEUaTPi7QfSKnKwxiA77dDhGIIiZv4LfVqDG8sTXXUIlJBbmtsx0gyz9hhLfrOgRqSlz25uCQzkyCMhZya1sYC76adID5S3/TgilY56wI7FwCBiRgeEERbSDUMqzl9XdK1RxbaEmyrAXsV0Wq+viIP6NZg4bDkxfkcwJxg+CDI6dunkRTeznotFuE1GaduiQr5PKlSMgARWDIk8Wg0B1hVk8R6aVWtoaS0SNYG1IpHWxVoRwh922GGzZ89+7bXXHFtGw+9hiuSgPabh/NnPfuZMEjFGPNE97CDJOCpQEEMESPkCy9tsd8DfVC8jtK688krql6S9iq02I2fPG0KBKRFEZVa0SK4KdkkxUVSc4+ViSxlsilCCXvzNNx9n6PRMy+KPD5M02R2BBfPQcMRvSs7rKJ6ifESgeAQksIpXpypRHQT4yvO5t3YFQwWDeEaMGMEf3NZgeGvhDvOPNDOhLCMAm2bMmDGDqXOWdmvTWA8++CANqhPLdoAaVfqXv/yFKjAjSlhh3gZbBYW33M0tIxwGdjfBXB7huWLFCiYokKjlymoz8WwBMMOgsYjfkyu8A0pmx8LUhMGJPlZQMJPDgETefL90hohXoJm64i5GLHadYtIu3OgNNHoSWIV/i1TAOAENcrdviM6tiwDDbJlCaI0urQt79Tz3/HPnnXceA6UBwe8kxEFDwqWdQ3/7OdG64OAuTTKbsZx11llse8ei9kRrLVD4SCHdzCxjT2VseJHS0dYCIeLJJRsRfuELX4A/jS4NM2GoiAhzeyrO3PyNfOLdiCcDtKld1PDdd99N/VJHYQCrOOL01LmLG7HIUH2WaLLkCn+GErsGXX311YyUQhhRfP7woNRw45dCPToBI28+Ds1CUpv402/OmiYDBwxkugA168+GgQkf1oJHLocIFIyABFbBKlTFaRQBhq4z0Yn+Ef4cp21gOI5FR3tQfpPAlChGwbOn4WGHHmZbcPAsDRUmAbOs2ICVRmW0pR+mUw9tRC5YiOETn/gEoFg3Afni+aLIcMCHVhaYWDLwYfblD3/4Q8Zd+UidSLvrj4eOOHl/Kn4rfDDiRgiyaDhDti0/qDqqIxKGCC1yxh4xHgupUYDKokQcrnVQQvCnBiksKFiMd+p1U5c9voyqdBqEd3cI2f35u8Kqm9eAqAiMtGJ/KrjZlMDwKY9KDhFoVQQksFpVdauwWQRQCbQWSIFHH330mmuuYf13m+6ERKBdocEos80gPMnQfjMvnaHWI0eO5HGatKy0q+0eY2uYAAgQlotElQLKtGNYDu5Sam7RGNO6s3bD3LlznaEhJby32eGzodsfcU9/JH7LwyQ6MNWMu3TcnXfeSV0TiccTBiZO82e/wnvvvRe5wKWrkzBkFbltZQQKwug01qbCwaSEJb9cMv1/prP+Aq89PggvLxGX7nbIoaffxYGo4s8SFrmwLdItvD8VhpRbBFoXAX4zOkRABCCAMEI3mJyisaG7hHG+NtbK2wwa2uzDPh+0WDg48yDrVl911VV//OMfLWYSIpVqB471glIw7Ixiop8yWlNsJIRhUxRG+SC2AOscIhDwTzwiwRp8acOMyACZIc8sL05VWjex1ZqfvTjohvgA/AZnoGUfdPL85cBqn2wTyfvJEZaagtvhnjje9yv93/2pViYJYpLE3Eu5qNnCgGrZalLqRSIgC5Z/MeRo7QT4YYdNiP3R/8QTT7DNDitY0vYTgCY5G5PFYFEhzniKho3WiCFHbB2NNQuTT53WLPvElBq0oEnLTrfyd1muneWR6BmMdLSRZ/JPfmi8YYgUw2LEoCtMQbUF2t5IR/JsT0U8uWxCCFQHOoBKXHzv4rPPOZsU8YmnaIlSa3QRLlu2jBF1TZiHxOSa25OSYrti2QUGwHGmUngJ8aSCsETapMuwjGFdhP7oUYx/kGGaAiqNsXe4UVecm7sIil8Eqo6ABFbVVZkyXGkCNMnMkrvhhhsee+wxSxvpgKe5aX44vEGyS5ptHJ5Rc9Oq0bSzximjVRhwzeaGSBOi4i7huUskpr24ZNx9m7alTV08kjw4THSSE9pUFltHd+ITyRhFQFOaJ6W79dZb6RzEMw9l8WpiuhxrorJni9ksqQK7ZWerL3PTz4vIjpQxV5e8LbDljIj3Je+pIJjzgqFrWY7k9ttvZzugdevWkXOC1Zl/K7sNcmcUGqKKR0xLMSVzwoQJhx9+uFGyc50RKoAItEYC/JB0iIAIZBAoyZ3ag9EqbPxsLQrSgVbNRhfhU87h3xfrlmJs+M0330xLT9yoK+vAsoRIER9P1zxb/Gxrb5IrxCWT+c1oEZdNoQ/qKixXixeBzNtBTlCBLGBGKciwH9SRVyVuFAbn733vey2e8+wMmDonDKWjXBxgx7h4yy23HHLIIZTCK8tLl+0woU8Yc8CHV33YsGFMsyUVG8HmJLPzprsi0GoJbP/L27/+coiACEQIYKexkUY0OUxGmzx5Mmu40/awNgGmApo3/COPRC75xFiTRmtHVDYkHKXF1EK6Dpl1SOtFM8YobB7M5454NKhWBNpX+s5gwiXlipSUSwqCAL3oootuuukmLmnvrZ2Oh6ywj+cWB5mkRJdffjkylxyGNWjBOFNT5JDNf5YvX25bAFU4w2UmZ4R5qUy7My5qzpw59913n9lZqQscZn8iwkhJw0tPjrLbU/hQd8OHD580adLeNXtjVcUAho8hisTmj8shAiIAgeTvo9CIgAgYARqSrVu2RhQP7dmaNWvoNGS1pJdeeilDYPG4N2C06KXY3h/0Q+NdUlRbtiC5UGmMhUdjfeUrX+nXt18kubzVBQsmMU6cXJnk8rbW80mRmVnG6CUKiN2LXirbc9ADtJTDs4pKQI6gbhl+xE55LChPlsi21w5usk3tcHCL4fxUTUtlOztdX+vr6aefnjdvHl2BLOLq8oiC2GvGZovMHLRieoTh++meOAwUA+FHjRp14YUXMgqNSHhLqUdefjoi//Puf3Zqv1Pbdm2JP3xQbhEQAScggeUo5BCBBAJpLRBBaYxfeeUVRnDfdttt1kKbZuLMU7RGYXS0Q9YUWdMV3grdhGGQFgYDGrZ9992XW4TnoHnDjdGIRHFbQuGDFXP/7W9/69evH7rEUrTshambWe7JJ5/s0aMH/lZqO4fB8uPGDFlTU0OHmnO2vIXyEYsdk+967NmDlQjQLomZb/IykgGG4pna5nUifjMEkk9Ly14GMrZo0SJWUmWN0DAPBKsznx6GNwq5iW3SRlx95CMfGTNmzLnnnst+nR6G2CLxh5eJaclTBFozAQms1lz7KnvTEGCHHGZmTZs2jaYO9ePtH7GX2sj32zlaIw6/jKfNsxw2bByzFiuJM03v7LPP7t+/P4GxHHC2Jtaa3hYZBf/1r3991qxZ1vdENuKloKlmhQsG8uPgLkW2MO6IP9KyPqgKNlJkniPZgL9lhmoKawrVyM6J9HgyKD7NGtd8BSQnHjlu3gT6+9gh+5577qEfcO3atTZu3UxuXilh/kPCYVT426UFpsoYGnjppZeWFm97X9uF8fizYYRyi4AIJBLI+twnPiBPERABJ0DbTBcSoscGESOwpkyZwvAs+mLQSbTW3trxSDmNE2E4iBAFQ8NGtFzSQUPv4ZAhQwYPHkxybkGxlo8Anp/mdmAjYX4+djsSDYvm6SJEPvOZzyCwyFs8e5XMqmepHAdlIdss8u459Pz74+yDRNcbBp6w4B6eYKHbn2qMg74//vEyeMy8FUxpZCFcVlt4+eWXef14Q8iP9WNaWoYdtzsiefDYeD9RVCbOiAcC7H1O366Fx2Zmb3UYjz8biVOXIiACcQISWHEm8hGBcgnQttE+meXAhlLRJtFduGDBAprAZ599Nowo0jiF7RbB7C6RsNC27+tnI2lo1GntaER79erF8uLMk6f3kH66MPIKuDHeMHlw/PjxpBW26DTSfsnikyypSr8SxTEhEpY6dFcgw+UnAV66PgcMGGBdn6GEskioFzyZFIlBker2mMMShW4P0EgHiop3ACHFDFZ2GXr88ccRebxj+BAzCom3yHS8v06WDbvE7f6ek0g+e/bsec4552Cfo0uXMvKHAfFbuvZIGEPkWY9TDhEQgTiBhJ9fPJB8REAE6ksAI9Yjjzxyxx13MKWLZoluHc4cNFdhi+XRcgt3aPSyYOYfnlEzbOfH0GyGamHT2meffRB5KAALUxt93QuierrlO1Ahffr0YVGlUFHxOO0xtyyeiRMnskgSboaQ44+DXFnGLEA+z9QOhiK2j6Sf1weDh1kFL5Dpq2Xnvp0/sDOds1a0MExjimmSjtonQp8MuGrVqvvvvx97Faa1N954w9OKJBR5neyue1JZPMglSeA24yhhGHHFSmann346llHcKGN/hPCRJDxpOURABMonIIFVPiuFFIG6CVi3Di0lTTLGACwBTDNkADIrEtGzFuqnSFxlNmnEYPrGFBVi64ADDjjuuOMwax1zzDGldnTLVp/bRZvqI2kiyTXgks4pmmQ3VnkM5NzaZiZCsk5SyRBSO++S1LnF4SHz6bBBb9ilMGLRAbpp0ybXi2GGKQjFBAJ7eDdeYBEVhykqUsEiVYuqNOPvoYceIpXFixdjCkXVEYxbpsAsDOFrn942hh2355MA7g798SRmewqVzBaZHDYLgZj9lj/uDo9NDhEQgfoSkMCqLzGFF4H6EaD9xiZB+43xg16e+fPn09dmUbh1IdIWZiTgTSyNIjEz5olnkXE8gvvQQw894YQTGB3PQtuk2GGnDi62MuIs8xZLRtm6VvHw2EWQAox/v/baayksvVrkk4xVRTttQtCsgBSB1TfiBXQfutJmzpjZeIFFhKRLonawJj5LbbG4PGfmM1K5ICWM1SwO09P2nvAgDnNzyx24Q+BEYmrYNsPBoMiKaxdccAH72xCSSwLg4G3EgoWmtBTx4QjjMR+dRUAE6ktAAqu+xBReBOoggBErnN9H+4dFh2dM6zA2mcWKGM2zevVqBBZHor0kIw0itCbTzqYPwlaWZ7t3704fIlP5OB944IF0e2U3meHjYUj8OawlZuDX+vXrGRBmyyl5DrnLI/izDlNNTQ3FZ2UB7+fyYPl30FH4/PPPY8SyvfkoeJhnumWxQWKl27B+AwWkmFahHizkFnkHwnjcjZlqxYoV7MLEmVF31CMHsXF2MyFsEcp4ErndwseCebruIOYwD4QkHl4SFv5AWrFhEeP2UGwcrDpBYOIhPAoP9WZuz1sYj3vKIQIiUC8CElj1wqXAIlAHAWsL6whU27Yxux6ZZT1BFh6xZW2ntaZ4JrZzYRJh45qWKPYkbFqMjmfXFExc1rgigEjOjBZYwmjF0x63Bpi+vyOPPDIxjImAz5/w+YWLFuJODFMtnvBnN27GPLmV0XIeVgQjzdmg0HRkWrkQzagWo2EhGUSFbmNYFbqKWZYoOS6RdK6l0qLCn5qKVHR4Sd448CHzFsnuu+/O+q5MPmWIFV2BjNJjadBQ9CemRQzEk3hLniIgAg0gIIHVAGh6RASagIC1u6yhxd47TDm89957MS2ge7p06YKnNZkkk93mhQ1tYp54nGaeg4acBpixzNhg6EZk3Qcm5HPXNJa3zZEULX4eZynzcePGJSZhYX70ox+deeaZiQGqy5MZoBQEw0/auPLp06dfcsklGYUymECzMPT6MdeByZX0EeND3xyCCVFLdWdEkn0rfCtwW4o2PJ8tfbBcsvw6pjhEHvFYBYWPZEeuuyIgAk1CQAKrSTAqEhGoNwGMHO3btX/7nbcxEWFVYuQN8w1//vOfM/fwH//4B3ddPGU0jR6mzuSJxOLhTHvMg3QbsQY97TFJMwonMQYbro4WPHHYiUuWLEkMQ1R0n9HjabaxxDBV5InuYaUMEKGQEvEyn4DBUgazznLRMccy6xYMXUVHKrotMdo6owoDhKlbhbJMF4pq7NixQ48fmvOtlsKCyC0CBSYggVXgylXR8kuA9htdRdNofXP0FmEysUYdIxbzyOhFQm8xr83KEDaoYaka0FSjG0iISEjx5JNPnj17NkastHhMYKE5WC2J6XVh0qGbeBYtXFSMdh04dKeyOAKlTsTSuXPnF198MRwSHqII3fTQIcWoUPfEfGVD7rAtYcRy/9BBXSemGwnjlyNGjGBjpcGDB/MgdYo/RcBgyQuG2weze3g5REAEKkOg7l9yZfKhVERABCIEaCZZFH7u3LkMCWIQNO0lrSajdghGU4pOKmf4TiTO+CWR0zaHLXoo5sgDCbFeQO/evcNnwzCM8Zo6dWpu90IOs12m2/pDKWOIJXz2mWee2X///UOfuBtLJAtn4B+ySoswfDxMF6MX/F2K2aRR3gHW5qDW6MpkaS4kFDLdegM9HkuIM7FxuL8cIiACFSOQOrK1YjlQQiIgAokEaFlZ4OrYY4+lfaVFX7p0KWKLHejMCmLqirbTmlJvRMtpwsPksJaxpgMiKfR0N3nAvW7dOveJOzDJMOgbfxr+sJn3LMUfybMP/aEUx6RJYj65BRCm5mUUkDBsT4keCs1XibHFPcMajGjogQMHHn/88dgL0VUEM9qeDXvQLz1m/OOeflcOERCBZiIggdVMYBWtCDQBAZpG1BUH0wAxmVx22WUspI7NCesIo7VYLoEmlraTYBxYmzhbqu6oMxP0dqEDsoMh7wiQ1kgzZw21QSbJQHY8+b9LEf7z7n8oDoOlwmFwkZwDhIHkGb2EmBtZYJZaSIMWiTDxksqFKrWDyKbXEmnFHkSlWt5aquWwQ9Zq39IKq74xqSdmSZ4iIALlE5DAKp+VQopA5QjQTHLQQGKv4iBhjBm0tcy9Z9b9+eefzwghJvwvXLiQHaZZgIqQ9TWW8AgSgTY7u1RkY8OGDRlhGJ5V6slq07Zdh9KuLFV9YLEDC8UBC7v+pZWF9cDSbpk/0DAyUUdEiDs7cOSuPYKkHjp0KPM9a2pqunTusmVraU9xm3n6+puv4zaBhQKDvC18GolHlyIgAi1LQAKrZfkrdRFIJUBLz+G3bfyy+9Cph2GDzixUF8aSZcuW/fjHP6YDEVmA6YUG2EdrhQ08gV2H4U9INjREB5iGs7Q8Cb9khqBnwz3dZ++avW2ovvUnun+VOpjayT9WZ12zZk1aERBYGSuH2VOYuCZNmgRt6gLU6GOMTyDikmcxcYE9jB9/lnLFTjly5EhMaGxoE95t918l8WqiKpzyiZWLaMMqC92kG16GEcotAiLQ3AQksJqbsOIXgYYQKKddxJ5BMGwYXbt0pQvppJNOIiUGpLMyOEsq0I3FWqbcRWnRrpe6lt57j/YeLWVPccl6TpjEdmpfWi0p47DNWwifGKZb925NuONhYhKV9GR9dpJj4YmMRAGSXUHcZRz6mDFjWAELFcslogqAVAeX1AhutBEHQoqQdP+x5j4zCfBHaWUkHb9lujatduLh5SMCIlAZAhJYleGsVESg6Qlgz+A/ZBajcjBNWQL0THEwb59LxBa9h/Qksg47C13StGP34ozYQmaxrd6NN95Ik08kGc0z8bPwqRldEsvQq1cvMoCJhZhDS1hi4Jx7Wh8cmaRQaUxQSwDBBIU8SiuO3Zo5cyYru7JePytcwBk4nLmFeYxl8TmQVn169zH+tp9Su50a2M2aKPgSPdPyLH8REIGmJSCB1bQ8FZsIVJQAFimklfUfhQmb1mG0Vo8ePRjHg5GDxUvp2KInkaHxDDCidcd2Uuq0alMy2NASJ+oJAry75V2zYIXxh+6uXbvaswQO/avRTWGRO+Q8w4IFTIDQ5WdrKKQV06pmwoQJo0ePZpl+NBYD56mLvfbaC4sjY6rQrGZ8Igb4W7q4gYnYMkOaRS6dlAZZ/iKQZwISWHmuHeVNBOog4IarSDi3JLmDHXI40FUe0lRRm3bJ0sqD1emg+bdeLQRHnYFzHsAUD0oRhdrIrFrVwL9v375XX321xeZSKa6JPTkTW9tqJxiE5wHkEAERqAoCElhVUU3KpAhUAQF2FK6CXGZmsTk0oouqzJSjNxv2VDQWXYuACLQcgW3bkbZcBpSyCIiACIiACIiACBSNgCxYRatRlUcEmoMAPVbWaZUReThsKCNYnm+Z3chW8kzLp3OQkSkNkfxFQAQgIAuWXgMRaKUE0AeJRwQHo4g6derEpLlaibXDyUIyV5HJcbiJLfJs1V16EShURuYZAs98TA+cEVK3REAEWi0BCaxWW/UquAjUTcBsOWlT6kxtvfDCCzYVse7och/CJ0JmL16fBiT35VMGRUAEKkdAAqtyrJWSCFQjAaxTLOvgCwrEi7By5UrbqsXVSTxMtfhsM8W1bUOh0vLMQPiMVbLSnpK/CIhAayMggdXaalzlFYF6EGAFURZ8yjbYsP80nWUs0Uk3Yj2izmVQ04gUB7NcRgYBUoDCZhRQt0RABBpPQAKr8QwVgwgUlgDLjqM2Bg4cmGHB2rx5Mxsgoq8KQIHCsgIWey+ylGg43CwsGigGDhhYmF7RsGhyi4AINCEBCawmhKmoRKBoBBAZJrAyDDaEefLJJyl5MdbBorxPPfUUhUqrS7oRBwwcYL2iaWHkLwIiIAISWHoHREAEUgmwLTFGrJqams6dO6cFQos88MAD2HUKsEwD46uQiRQnrbD4d+nSBSAUtwBjzjKKqVsiIAKNJCCB1UiAelwECk4Aiw7mK8a5U05URWJpsWDRZUbIxLtV5EkBKYcZ5CLZRkda8UFh9rwClDdSRl2KgAg0IYHkz2UTJqCoREAEqpeAbWWIsBg2bBimLA7KEt8Acc2aNUsfXso20tVbUsv5O++8w37Y69atQzyFx6677koAzFu77LLLaaedhoNLAlR7eZV/ERCB5iMggdV8bBWzCBSEALpq0KBBjD2iUwxt8fbbb4cFQ2egwBYsWPDhD3849K9GN8uH3nPPPeS8ffvtu1xQQMa84wmB119//ZBDDjFTVjUWUHkWARGoGIE2GWM5K5YJJSQCIpBbAjbSiMFYLP60adMmtIUtFuUZRn7hg42HuYRdu3Z1/2p0vPTSS3369HnjjTfQkeEQK76TyCzOPXv2/NOf/oQNjwCSWdUw1Q8tAAAQEUlEQVRYxcqzCFSMgCxYFUOthESgmgggJuxAWHBg2jnqqKNMS0WKwUJZ+GDjWbhwYeRWtVxSUsvqvHnzUFe4Q3VltwhD8YGArsINk2opnfIpAiLQIgQksFoEuxIVgbwTqJVV2zUEkuKLX/wi53i+zZPzd7/7XXrQGMYUD5Nnn1LX55at5JAVsKZNm2ZZTSwpVqszzzyTcwROnkunvImACLQUAQmsliKvdEWgygh89rOf7d69O5lGYYRZNy2C5qCLcP78+YnSJAyfNze6asvWLZznzp3LqvRkL66frDeQDtAhQ4bgDkdo5a04yo8IiEBOCEhg5aQilA0RyDsBlNOoUaPoK0ReIEEi2eUunlOmTHnrrbewY0Xu5vly5w/s3KFDB/I8adIk8hkvmnky7uqss86iP7R9u4Ti57mAypsIiECLEJDAahHsSlQEqo8ASzacf/75dKglShDKg8basGEDvWyIsPgYplwVODSz2SY/t91228aNGykat+wIM8zoK0xc55577oc+9KECrKcaFk1uERCBZiKgWYTNBFbRikDRCDCREEsPRqz77rvvzTffRIUklpAOxFWrVjEXj/DYuvI51Y7Mm5ZiyYkPfvCDLHzVt2/fyOzIsHSEOfHEE+kAJQxiK7wltwiIgAgkEpDASsQiTxEQgSgB1hHFiLV+/fr+/fubOomGqL3GfPXxj388cTH0xPAt5YmNjVJwMG3wuOOO+/3vf48izMjMypUr2SEHgVWA5b4yiqlbIiACTUVAXYRNRVLxiEDBCezScRfEEyJjzJgx6BIvba1K2XYiADJl+fLlEyZMsPUOCJbP7kK2uyHT5G3y5Mm//e1vs9XV6NGjKTjDsFjJ3QsuhwiIgAhkEJAFKwOObomACEQJsArD3//+9969e7tsCsWW9xti5pkxY8bw4cNRJNatRvgW7C60jFnPoGWYzkEE009+8hOGrjO+KlrOHa/Xrl370Y9+lPA7eutKBERABFIJyIKVikY3REAE4gTMiHXZZZdxy8xWYRjTLpyZlPelL33pz3/+M7qKkVi2OJbLr/CRirlJ/b2t79mSV6auWJP9wgsvRP+h/Dgs8/H8fOMb32B9CqmrOBn5iIAIZBCQBSsDjm6JgAgkE2BLmUMPPfTFF19k2Hta5xp6plu3br/5zW/oXLNY4gIrTdMkp9oIX3ReSV29V9pLkWiQUy+88MLhhx9OQXB7xCURtuPgffbGeeqpp6p9CyAvoBwiIAIVI7D9y1KxJJWQCIhAtRPYY4895syZgxYxww86yY5Iudg/5+ijj2Z4uPkTBgNSRMFEHmnuSzLM6CtsV6irzZs3m7oiS3aQ+vtFKf2fy9mzZ0tdNXelKH4RKCQBCaxCVqsKJQLNSwDlxMw7OgEzRi+xnAHGrVdeeeVzn/vcH/7wB8sQi06ZcOHSHc2b19rYEVJmvsKU9eqrrw4ePBjbVfaaC0iusWPHUkyCVSCHSkIERKBgBNRFWLAKVXFEoBIEmCGIZEF5DBo06LnnnkNmoZZQJBHNxCUHITt16vT973//lFNO4UGGZDGQy0ZBVSKvO6bBIl5f/vKX6dwMvcmkXZooxE1P4oEHHvjwww8z9IrFKcLAcouACIhAOQRkwSqHksKIgAjsQKBjx46svbnrrrvefffd5kCjMB7Letw8KJILixHby7z88ssjR46cOHEigVFXBOiwUwcP1qwOlJwPsf/Wt75FNrBgpaWIyY212rnL5EcUoS15JQtWGi75i4AIZBCQBSsDjm6JgAhkEcBwhXUHjcUeMjiQMm4KijyG0sIH+xBD4++666599tmHy+weukgMjblENrGL88UXX7x06VJygnjyNboSo0Um3n///ccffzwFJM+MjW/Xfof9rROfkqcIiIAIhARkwQppyC0CIlAuAcxCiA/OI0aMmD59OurKnzSZFRFbtiDWE088cfDBB0+dOpV1HHjcH2kmB/YztBT7DB5xxBEsLo+6QghmqCvMV2T7uuuuGzJkCEUjMGJL6qqZakfRikCxCciCVez6VelEoBIEMBGNHz8e2URiDFpimh66BE8zXCXm4IADDrjyyittkU+6CxsvYrCHkRyizYQdgo9xVA8++CCprF69OpKTyCU5pO8ST0TV1772tWuuuQZplZhteYqACIhAmQQksMoEpWAiIALJBFA2jFtH1lx11VWmsVA5aeOWEF52F9sSIma//fb75je/edpppxE14saGZzW463DLuywCsZX4iYqNmWfNmvW73/2OmLFLYTALLWomsPCxg1xRBDTZ5ZdffsMNNySXU74iIAIiUB8CElj1oaWwIiACAQFkSumoXcATgYIwQi3RXYhOQtAEAXdwInd46K233kJjYe5CDH3sYx8777zzTj/99B49ejBwni68nT+wc71sWjYajDjXrFmzePHim266yTIQSj20lOeDDLjbHJi7WHXi+uuvN5EXuatLERABEagvAQms+hJTeBEQgR0IMClv9912N9MRGguNgsxCrzB5cIdwwQW6CrmDHiIYdiwcnNFb+++/P4tmHXPMMQMGDOjapWv5GmvJkiW/+tWvHnrooXXr1rFGF7qK1FFRmKY4zJyWJrDwZ1IkEwxZvsHVFZHYFMIg13KKgAiIQD0ISGDVA5aCioAIJBJAyrh8Qc2wg/IFF1xASDcjMSorNBohepBTiVFZPCgezFroLc5MOUTrdOnShTMPIn02vbrp36//m9XY2e6G7Q45Y8HKiC1+i8zYoCu6BRl9z0RI1ugi5wg+D+wlwid0ewA5REAERCCDgARWBhzdEgERaAiBTZs2rV27lpFVCCz0EFEgjNA0HGF0aaoFf7tlj3DmcRvmhRvTFIfFg7+FRK5FIrcAdjdM1NwE5haGtD59+qCukHF0TUY0X/hs6I7HJh8REAERiBOQwIozkY8IiEBjCTDe/PU3Xr/00kvnzZvHdEKiwzjkMihbr4RSiZBIKx6P28DwJGQYOJ7ptITsKSQgKzggrRBq9mxtfNtUYPhs6I6nIh8REAERiBPQOlhxJvIRARFoLAGGTzGsCvnC1jS9evVikXfMTmZwcrESqpl4egQjBoxM9NxxEMDtVbjRambTij9Yjg8mqwULFixatIj+QQ9fmoS4Jbnj0sPIIQIiIAJlEpAFq0xQCiYCItAQAmij1157bfLkybfeequZshhIzszBMC6XXKGnGZnslrnDu2W6eZzkwkVQeXD06NE/+MEPIjEQEoHVptTluH2yoYdJ9PS7coiACIhAnIAsWHEm8hEBEWgyAkzo69at24wZMx555BE2nyFeV1clLVOrZhJNWXY38Vb5mSMS1JVtL8hTw08dvmLFijvvvDMeAwm1bbdtRFf8rnxEQAREoL4EZMGqLzGFFwERqDeBf/3rXwx1QsSwG+Dtt99O9xxR0G+ID4OrwtHlJrnCBAgTXtbXjcKjM/FTn/rUFVdcMeTYIfRdovDofKxXPPFc1etxBRYBEWiFBCSwWmGlq8gi0DIE6CJkJBaj3Z9//nkWTF+4cKGpKwSWjWF3LRUKGvdsQKZRV2ecccZXv/rVgw46iHg4bMEtogqTqDPmegWuMzYFEAERaA0EJLBaQy2rjCKQUwJz5sy55ZZb2Cvwn//8p2fRB2khazhQRdyys4fB4WtWcQu3DYS3ALvtttvRRx89fPhwhluFj7ibR4jZL+UQAREQgSYnIIHV5EgVoQiIQLkErHNw48aNy5Yte+yxx5YvX87yoXThobGwdblmcpkViRd/+hlRV7YWPAuTHnzwwcOGDWMheOYJRgLrUgREQAQqSUACq5K0lZYIiMB2AqgrXzIU37ZtSnNuNr648dlnn3366adZn33lypWcmYSIf2jBMnf37t1ZAMJWe+/Xr1/fvn179uzJLSQXMfvSVtvTk0sEREAEKkhAAquCsJWUCIhACgGMVRiiTBVhjrJ9bFBLjM3iQIdFBBYhGbrOIxixUGa2E6LFTUhbzkqzAlNgy1sERKASBCSwKkFZaYiACNRJwCWUOd7b+v6K6m1Lg6X8EjdyirOpKw2lqhOsAoiACLQIAQmsFsGuREVABMol4MIr8oCkVQSILkVABHJFQAIrV9WhzIiACIiACIiACBSBgFZyL0ItqgwiIAIiIAIiIAK5IiCBlavqUGZEQAREQAREQASKQEACqwi1qDKIgAiIgAiIgAjkioAEVq6qQ5kRAREQAREQAREoAgEJrCLUosogAiIgAiIgAiKQKwISWLmqDmVGBERABERABESgCAQksIpQiyqDCIiACIiACIhArghIYOWqOpQZERABERABERCBIhCQwCpCLaoMIiACIiACIiACuSIggZWr6lBmREAEREAEREAEikBAAqsItagyiIAIiIAIiIAI5IqABFauqkOZEQEREAEREAERKAIBCawi1KLKIAIiIAIiIAIikCsCEli5qg5lRgREQAREQAREoAgEJLCKUIsqgwiIgAiIgAiIQK4ISGDlqjqUGREQAREQAREQgSIQkMAqQi2qDCIgAiIgAiIgArkiIIGVq+pQZkRABERABERABIpAQAKrCLWoMoiACIiACIiACOSKgARWrqpDmREBERABERABESgCAQmsItSiyiACIiACIiACIpArAhJYuaoOZUYEREAEREAERKAIBCSwilCLKoMIiIAIiIAIiECuCEhg5ao6lBkREAEREAEREIEiEJDAKkItqgwiIAIiIAIiIAK5IiCBlavqUGZEQAREQAREQASKQEACqwi1qDKIgAiIgAiIgAjkioAEVq6qQ5kRAREQAREQAREoAgEJrCLUosogAiIgAiIgAiKQKwISWLmqDmVGBERABERABESgCAQksIpQiyqDCIiACIiACIhArghIYOWqOpQZERABERABERCBIhCQwCpCLaoMIiACIiACIiACuSIggZWr6lBmREAEREAEREAEikBAAqsItagyiIAIiIAIiIAI5IqABFauqkOZEQEREAEREAERKAIBCawi1KLKIAIiIAIiIAIikCsCEli5qg5lRgREQAREQAREoAgEJLCKUIsqgwiIgAiIgAiIQK4ISGDlqjqUGREQAREQAREQgSIQkMAqQi2qDCIgAiIgAiIgArkiIIGVq+pQZkRABERABERABIpAQAKrCLWoMoiACIiACIiACOSKgARWrqpDmREBERABERABESgCAQmsItSiyiACIiACIiACIpArAhJYuaoOZUYEREAEREAERKAIBCSwilCLKoMIiIAIiIAIiECuCEhg5ao6lBkREAEREAEREIEiEJDAKkItqgwiIAIiIAIiIAK5IiCBlavqUGZEQAREQAREQASKQEACqwi1qDKIgAiIgAiIgAjkioAEVq6qQ5kRAREQAREQAREoAgEJrCLUosogAiIgAiIgAiKQKwISWLmqDmVGBERABERABESgCAQksIpQiyqDCIiACIiACIhArghIYOWqOpQZERABERABERCBIhCQwCpCLaoMIiACIiACIiACuSLw/6tSo3F5n0fCAAAAAElFTkSuQmCC;" parent="1" vertex="1">
                    <mxGeometry x="-75" y="518" width="168" height="168" as="geometry"/>
                </mxCell>
                <mxCell id="7" style="edgeStyle=none;html=1;entryX=0;entryY=0.5;entryDx=0;entryDy=0;" edge="1" parent="1" source="2" target="6">
                    <mxGeometry relative="1" as="geometry"/>
                </mxCell>
                <mxCell id="2" value="" style="shape=actor;whiteSpace=wrap;html=1;" vertex="1" parent="1">
                    <mxGeometry x="-201" y="353.5" width="41" height="60" as="geometry"/>
                </mxCell>
                <mxCell id="4" value="Google Login" style="sketch=0;verticalLabelPosition=bottom;sketch=0;aspect=fixed;html=1;verticalAlign=top;strokeColor=none;fillColor=#000000;align=center;outlineConnect=0;pointerEvents=1;shape=mxgraph.citrix2.authentication_google;" vertex="1" parent="1">
                    <mxGeometry x="130" y="46" width="50" height="50" as="geometry"/>
                </mxCell>
                <mxCell id="9" style="edgeStyle=none;html=1;" edge="1" parent="1" source="5" target="4">
                    <mxGeometry relative="1" as="geometry"/>
                </mxCell>
                <mxCell id="11" style="edgeStyle=none;html=1;entryX=0.021;entryY=0.006;entryDx=0;entryDy=0;entryPerimeter=0;" edge="1" parent="1" source="5" target="26">
                    <mxGeometry relative="1" as="geometry">
                        <mxPoint x="339" y="259" as="targetPoint"/>
                    </mxGeometry>
                </mxCell>
                <mxCell id="13" value="Callback" style="edgeLabel;html=1;align=center;verticalAlign=middle;resizable=0;points=[];" vertex="1" connectable="0" parent="11">
                    <mxGeometry x="-0.194" y="1" relative="1" as="geometry">
                        <mxPoint as="offset"/>
                    </mxGeometry>
                </mxCell>
                <mxCell id="5" value="Amazon Cognito" style="sketch=0;outlineConnect=0;fontColor=#232F3E;gradientColor=none;strokeColor=#ffffff;fillColor=#232F3E;dashed=0;verticalLabelPosition=middle;verticalAlign=bottom;align=center;html=1;whiteSpace=wrap;fontSize=10;fontStyle=1;spacing=3;shape=mxgraph.aws4.productIcon;prIcon=mxgraph.aws4.cognito;" vertex="1" parent="1">
                    <mxGeometry x="111" y="180" width="80" height="110" as="geometry"/>
                </mxCell>
                <mxCell id="8" style="edgeStyle=none;html=1;" edge="1" parent="1" source="6" target="5">
                    <mxGeometry relative="1" as="geometry"/>
                </mxCell>
                <mxCell id="32" style="edgeStyle=none;html=1;entryX=0.5;entryY=0;entryDx=0;entryDy=0;" edge="1" parent="1" source="6" target="MZdL-QIuMKirNqRiyHwx-3">
                    <mxGeometry relative="1" as="geometry"/>
                </mxCell>
                <mxCell id="33" value="Send Prompt&amp;nbsp;&lt;div&gt;to Test&lt;/div&gt;" style="edgeLabel;html=1;align=center;verticalAlign=middle;resizable=0;points=[];" vertex="1" connectable="0" parent="32">
                    <mxGeometry x="-0.0067" y="5" relative="1" as="geometry">
                        <mxPoint as="offset"/>
                    </mxGeometry>
                </mxCell>
                <mxCell id="6" value="UX App" style="rounded=0;whiteSpace=wrap;html=1;fillColor=#d5e8d4;strokeColor=#82b366;" vertex="1" parent="1">
                    <mxGeometry x="-51" y="332" width="120" height="103" as="geometry"/>
                </mxCell>
                <mxCell id="12" style="edgeStyle=none;html=1;entryX=1;entryY=0.5;entryDx=0;entryDy=0;" edge="1" parent="1" source="10" target="6">
                    <mxGeometry relative="1" as="geometry"/>
                </mxCell>
                <mxCell id="14" value="Identity&lt;br&gt;Name, Picture Url, Email" style="edgeLabel;html=1;align=center;verticalAlign=middle;resizable=0;points=[];" vertex="1" connectable="0" parent="12">
                    <mxGeometry x="0.0961" y="1" relative="1" as="geometry">
                        <mxPoint x="-1" y="17" as="offset"/>
                    </mxGeometry>
                </mxCell>
                <mxCell id="22" value="" style="group" vertex="1" connectable="0" parent="1">
                    <mxGeometry x="502" y="298" width="216" height="167" as="geometry"/>
                </mxCell>
                <mxCell id="15" value="" style="rounded=0;whiteSpace=wrap;html=1;" vertex="1" parent="22">
                    <mxGeometry width="216" height="167" as="geometry"/>
                </mxCell>
                <mxCell id="16" value="user specific sqlite file" style="shape=cylinder3;whiteSpace=wrap;html=1;boundedLbl=1;backgroundOutline=1;size=8.90796915690106;" vertex="1" parent="22">
                    <mxGeometry x="20" y="9.94047619047619" width="76" height="44.73214285714286" as="geometry"/>
                </mxCell>
                <mxCell id="17" value="user specific sqlite file" style="shape=cylinder3;whiteSpace=wrap;html=1;boundedLbl=1;backgroundOutline=1;size=8.90796915690106;" vertex="1" parent="22">
                    <mxGeometry x="111" y="9.94047619047619" width="76" height="44.73214285714286" as="geometry"/>
                </mxCell>
                <mxCell id="18" value="user specific sqlite file" style="shape=cylinder3;whiteSpace=wrap;html=1;boundedLbl=1;backgroundOutline=1;size=8.90796915690106;" vertex="1" parent="22">
                    <mxGeometry x="20" y="61.13392857142857" width="76" height="44.73214285714286" as="geometry"/>
                </mxCell>
                <mxCell id="19" value="user specific sqlite file" style="shape=cylinder3;whiteSpace=wrap;html=1;boundedLbl=1;backgroundOutline=1;size=8.90796915690106;" vertex="1" parent="22">
                    <mxGeometry x="111" y="61.13392857142857" width="76" height="44.73214285714286" as="geometry"/>
                </mxCell>
                <mxCell id="20" value="user specific sqlite file" style="shape=cylinder3;whiteSpace=wrap;html=1;boundedLbl=1;backgroundOutline=1;size=8.90796915690106;" vertex="1" parent="22">
                    <mxGeometry x="20" y="113.32142857142857" width="76" height="44.73214285714286" as="geometry"/>
                </mxCell>
                <mxCell id="21" value="user specific sqlite file" style="shape=cylinder3;whiteSpace=wrap;html=1;boundedLbl=1;backgroundOutline=1;size=8.90796915690106;" vertex="1" parent="22">
                    <mxGeometry x="111" y="113.32142857142857" width="76" height="44.73214285714286" as="geometry"/>
                </mxCell>
                <mxCell id="24" value="Replication for persistance" style="outlineConnect=0;dashed=0;verticalLabelPosition=bottom;verticalAlign=top;align=center;html=1;shape=mxgraph.aws3.s3;fillColor=#E05243;gradientColor=none;" vertex="1" parent="1">
                    <mxGeometry x="877" y="336" width="76.5" height="93" as="geometry"/>
                </mxCell>
                <mxCell id="30" value="" style="group" vertex="1" connectable="0" parent="1">
                    <mxGeometry x="289" y="343" width="175" height="98" as="geometry"/>
                </mxCell>
                <mxCell id="27" value="" style="shape=process;whiteSpace=wrap;html=1;backgroundOutline=1;fillColor=#dae8fc;strokeColor=#6c8ebf;" vertex="1" parent="30">
                    <mxGeometry width="175" height="98" as="geometry"/>
                </mxCell>
                <mxCell id="28" value="promptly api" style="rounded=0;whiteSpace=wrap;html=1;" vertex="1" parent="30">
                    <mxGeometry x="27" y="11" width="120" height="25" as="geometry"/>
                </mxCell>
                <mxCell id="29" value="Replication Agent (Litestream)" style="rounded=0;whiteSpace=wrap;html=1;" vertex="1" parent="30">
                    <mxGeometry x="27" y="50" width="120" height="30" as="geometry"/>
                </mxCell>
                <mxCell id="26" value="" style="image;sketch=0;aspect=fixed;html=1;points=[];align=center;fontSize=12;image=img/lib/mscae/Docker.svg;" vertex="1" parent="1">
                    <mxGeometry x="282" y="319" width="50" height="41" as="geometry"/>
                </mxCell>
                <mxCell id="31" style="edgeStyle=none;html=1;entryX=0;entryY=0.5;entryDx=0;entryDy=0;entryPerimeter=0;" edge="1" parent="1" source="10" target="24">
                    <mxGeometry relative="1" as="geometry"/>
                </mxCell>
            </root>
        </mxGraphModel>
    </diagram>
</mxfile>